<?xml version="1.0" encoding="utf-8"?><svg viewBox="0 0 188 24" xmlns="http://www.w3.org/2000/svg" xmlns:xlink="http://www.w3.org/1999/xlink"><style>:root>svg{display:none}:root>svg:target{display:block}</style><svg fill="none" viewBox="0 0 188 24" id="ralf-ringer-logo" xmlns="http://www.w3.org/2000/svg"><path fill-rule="evenodd" clip-rule="evenodd" d="M59.89.447a.899.899 0 0 1 .818-.418h6.942c-.218.427-.427.864-.646 1.292a2.252 2.252 0 0 1-.722.883.926.926 0 0 1-.57.18H63.3a1.13 1.13 0 0 0-.474.048.8.8 0 0 0-.532.76v7.398h4.33c-.199.408-.408.807-.607 1.216-.171.36-.418.684-.732.93a.943.943 0 0 1-.57.2h-2.43v9.953c.018.21 0 .418-.077.617a.836.836 0 0 1-.75.475h-1.672V1.17c-.038-.247 0-.504.105-.722zm-19.203-.4h1.729a.81.81 0 0 1 .74.533c.048.18.057.36.038.541v20.515h5.547c-.2.398-.4.807-.608 1.206a2.85 2.85 0 0 1-.617.845c-.19.18-.447.285-.713.285h-6.125c.009-7.978.009-15.956.009-23.924zm-17.96 0h1.748a.814.814 0 0 1 .75.742c1.187 7.73 2.384 15.461 3.571 23.192h-2.47a6520.44 6520.44 0 0 0-1.832-12.745c-.2-1.33-.37-2.66-.58-3.98-.265 2.023-.579 4.046-.854 6.079L21.55 23.98h-2.48c1.226-7.978 2.442-15.955 3.657-23.933zM2.507 2.252v9.232h2.27a1.39 1.39 0 0 0 .675-.114c.417-.2.674-.636.664-1.092v-6.8c.02-.428-.2-.827-.56-1.055a1.388 1.388 0 0 0-.826-.17H2.507zM0 .048h6.145c.589 0 1.149.228 1.567.636a2.66 2.66 0 0 1 .75 1.662v7.893c.029.493-.085.987-.332 1.415-.238.38-.57.674-.969.873.494.19.893.58 1.111 1.064.162.418.228.874.19 1.32 0 3.02.01 6.05-.01 9.07H5.975c.01-3.058 0-6.107 0-9.165a.93.93 0 0 0-.722-1.092c-.076-.019-.142-.019-.218-.019-.846-.028-1.69-.019-2.527-.028-.01 3.428 0 6.866 0 10.295H0V.048z" fill="#fff"/><path fill-rule="evenodd" clip-rule="evenodd" d="M81.735.038h6.145a2.177 2.177 0 0 1 1.662.74 2.67 2.67 0 0 1 .655 1.739V8.67c-.019.694.029 1.387-.028 2.08a2.26 2.26 0 0 1-1.244 1.757c.427.19.788.513 1.016.931.17.342.256.712.247 1.092-.01 1.31.038 2.621.019 3.932-.029 1.843-.02 3.676-.02 5.518H87.71v-9.288a.9.9 0 0 0-.37-.798 1.977 1.977 0 0 0-1.093-.18 27.848 27.848 0 0 0-2.023-.01c0 3.438.01 6.867-.01 10.295-.825-.01-1.661 0-2.487 0 .01-7.997.01-15.975.01-23.962zm2.488 2.222c.01 3.068.01 6.136 0 9.194.827.028 1.644.01 2.47.01a1.145 1.145 0 0 0 1.13-1.093v-6.97a1.15 1.15 0 0 0-1.13-1.15c-.817 0-1.643 0-2.47.01zM103.114.038c.579.01 1.158-.01 1.738 0a.838.838 0 0 1 .798.874c0 .038-.01.076-.019.114v22.936c-.58 0-1.159.01-1.738-.01a.798.798 0 0 1-.779-.76V.039zm16.069.01a3.443 3.443 0 0 1 1.976.247c.342.218.598.56.693.95.893 4.32 1.776 8.642 2.678 12.954.029-4.72 0-9.44.01-14.16.769 0 1.539-.02 2.317.009v23.591c0 .105-.009.219-.009.333-.523.057-1.045 0-1.539-.171a1.784 1.784 0 0 1-.978-1.244c-.817-3.514-1.624-7.029-2.431-10.543-.114-.446-.19-.911-.323-1.358-.019 4.435-.01 8.87-.01 13.316-.788.01-1.576 0-2.365 0-.028-7.978-.009-15.947-.019-23.924zm22.006.104a4.314 4.314 0 0 1 1.482-.114c.74.01 1.481-.019 2.222.02a2.64 2.64 0 0 1 2.222 2.535c.01 1.358.01 2.716 0 4.084a1.448 1.448 0 0 1-.797 1.12c-.504.276-1.026.542-1.539.789-.028-1.729 0-3.448-.019-5.176a1.54 1.54 0 0 0-1.643-1.425c-.095.01-.18.02-.266.048a1.558 1.558 0 0 0-1.045 1.529v16.83a1.522 1.522 0 0 0 1.32 1.538 1.468 1.468 0 0 0 1.501-1.017c.076-.265.114-.55.095-.826-.009-2.165.01-4.34-.009-6.506a2.121 2.121 0 0 1-1.14-1.206c-.181-.38-.38-.76-.57-1.14 1.026-.009 2.051 0 3.077 0 .399-.018.769.21.95.57.085.21.114.428.095.646v8.301c.028.437-.01.874-.105 1.301a2.634 2.634 0 0 1-1.586 1.767 5.347 5.347 0 0 1-1.861.161c-.674-.019-1.339.038-1.995-.038a2.679 2.679 0 0 1-2.146-2.66V3.639c-.038-.56 0-1.121.114-1.662a2.66 2.66 0 0 1 1.681-1.814l-.038-.01zm19.85.731a.808.808 0 0 1 .769-.845h6.468a17.039 17.039 0 0 1-.931 1.738 1.27 1.27 0 0 1-1.045.608h-1.937a.81.81 0 0 0-.808.788v7.085c1.235 0 2.46-.01 3.695.01-.257.513-.503 1.035-.779 1.529a1.56 1.56 0 0 1-1.054.817h-1.862c0 3-.009 5.993 0 8.994h4.958c-.209.456-.437.912-.674 1.358a2.06 2.06 0 0 1-.855.921 1.913 1.913 0 0 1-.836.095h-5.1c-.019-7.693-.009-15.395-.009-23.088v-.01zm18.054 23.089c-.009-7.978-.009-15.956 0-23.934 2.042-.01 4.075 0 6.117-.01a2.204 2.204 0 0 1 1.766.846c.37.465.57 1.035.56 1.624v7.19c.038.512 0 1.035-.133 1.538a2.25 2.25 0 0 1-1.101 1.244c.408.21.75.523.978.921a4.04 4.04 0 0 1 .275 1.928c.01 1.976 0 3.951 0 5.936-.038.903-.019 1.795-.019 2.698-.826.01-1.643 0-2.469 0-.028-3.154.01-6.307-.019-9.46a.874.874 0 0 0-.883-.807c-.864-.029-1.719-.057-2.574-.029v10.286c-.836.01-1.662 0-2.498 0v.029zm2.498-21.721c-.009 3.068-.009 6.135 0 9.213.807.009 1.615 0 2.431 0 .637 0 1.159-.513 1.159-1.16v-.018c.019-2.27.01-4.54 0-6.81a1.163 1.163 0 0 0-1.092-1.216c-.826-.018-1.662 0-2.498-.009z" fill="#0499BA"/></svg></svg>