<?xml version="1.0" encoding="utf-8"?><svg viewBox="0 0 188 150" xmlns="http://www.w3.org/2000/svg" xmlns:xlink="http://www.w3.org/1999/xlink"><style>:root>svg{display:none}:root>svg:target{display:block}</style><svg fill="none" viewBox="0 0 174 150" id="boot" xmlns="http://www.w3.org/2000/svg"><path fill-rule="evenodd" clip-rule="evenodd" d="m171.581 100.096 2.409 23.085c.04.397-.04.834-.228 1.192-6.195 11.005-16.316 18.565-30.105 22.448-10.824 3.09-23.939 3.884-38.956 2.414-21.818-2.135-41.534-8.552-46.748-10.37l-6.92 8.791c-.306.397-.743.636-1.258.715C42.697 149.523 36.65 150 31.515 150c-22.6 0-28.17-8.751-28.448-9.228a1.927 1.927 0 0 1-.278-1.033v-28.021c-1.05-3.099-7.781-25.012 4.46-45.116 11.975-19.718.516-63.672.397-64.109A1.881 1.881 0 0 1 8.003.795C8.4.318 8.955 0 9.58 0h67.336c.555 0 1.07.238 1.457.636.357.397.555.953.515 1.51-.396 5.78-.357 11.363.12 16.628v.268c3.756 39.99 31.779 55.476 49.543 61.297 5.528 1.817 11.689 1.858 17.693 1.897h.018c12.23.12 24.834.242 25.27 17.592.02.09.039.179.049.268zM146.215 86.2c-6.275-.04-12.797-.12-18.884-2.096-9.912-3.248-24.058-9.824-35.2-22.688-9.486-10.986-15.146-24.564-16.9-40.507H39.05c2.418 12.993 5.194 40.368-7.9 63.691 1.278.269 2.576.537 3.885.805 17.307 3.526 35.16 7.172 40.166 17.552 1.903 3.903 1.774 8.473-.307 13.598 3.459.974 6.86 2.086 10.15 3.338 26.001 9.893 59.823 1.5 82.542-20.433-.465-12.466-8.098-13.141-21.371-13.26zM5.575 80.846c-3.252 12.813-.496 24.584.614 28.468l.379-.009a279.83 279.83 0 0 1 8.087-.1c12.569 0 35.13.894 56.363 6.297 1.903-4.291 2.111-7.897.654-10.886-4.153-8.593-21.808-12.198-37.42-15.367l-.353-.072c-11.17-2.288-21.723-4.449-28.324-8.331zm69.17-76.883H12.077a188.62 188.62 0 0 1 2.578 12.983h60.17a108.666 108.666 0 0 1-.08-12.983zM15.249 20.91c2.092 15.049 2.925 35.342-4.6 47.749a42.83 42.83 0 0 0-3.895 8.284c4.51 2.97 11.945 4.957 20.33 6.794 13.442-22.856 10.35-50.44 7.95-62.827H15.25zM57.99 134.73c1.457.524 22.938 8.239 47.137 10.582 22.403 2.175 51.803.039 64.848-22.37l-1.923-18.525c-10.596 9.536-23.879 16.777-37.787 20.581-7.384 2.057-14.73 3.05-21.847 3.05-8.654 0-16.99-1.46-24.772-4.43-29.629-11.274-68.08-10.629-76.892-10.331v25.777c1.616 1.857 10.904 10.211 41.603 5.542l7.306-9.267c.516-.676 1.418-.914 2.25-.636l.077.027zm7.029-89.633h.238c4.46-.12 7.98-3.884 7.86-8.354-.039-2.175-.951-4.162-2.527-5.662a7.91 7.91 0 0 0-5.809-2.215c-4.46.119-7.98 3.884-7.86 8.354.118 4.39 3.756 7.877 8.098 7.877zm-4.143-8.036c-.08-2.295 1.734-4.202 4.034-4.282 1.11-.04 2.17.398 2.964 1.143a4.223 4.223 0 0 1 1.308 2.89c.08 2.295-1.734 4.202-4.034 4.282-2.3.089-4.193-1.739-4.272-4.033zm6.354 15.674c1.497-1.58 3.48-2.493 5.65-2.533a7.95 7.95 0 0 1 5.809 2.215c1.576 1.5 2.488 3.487 2.528 5.662.119 4.47-3.4 8.235-7.861 8.354h-.238c-2.091 0-4.024-.785-5.57-2.215-1.577-1.5-2.489-3.487-2.529-5.662a7.945 7.945 0 0 1 2.211-5.82zm3.043 8.553c.793.755 1.854 1.152 2.964 1.152a4.168 4.168 0 0 0 4.035-4.291 4.223 4.223 0 0 0-1.309-2.89c-.793-.706-1.774-1.143-2.845-1.143H73a4.165 4.165 0 0 0-2.884 1.311c-.754.795-1.15 1.858-1.15 2.97a4.224 4.224 0 0 0 1.308 2.89zm12.77 21.068c1.546 1.43 3.479 2.215 5.57 2.215h.238c2.171-.04 4.154-.954 5.65-2.533a7.945 7.945 0 0 0 2.211-5.821c-.04-2.175-.952-4.162-2.528-5.662-1.576-1.51-3.638-2.255-5.808-2.215-2.171.04-4.154.953-5.65 2.533-1.507 1.58-2.25 3.645-2.211 5.82.03 2.186.941 4.163 2.528 5.663zm2.567-8.752a4.165 4.165 0 0 1 2.884-1.31c1.11-.04 2.171.397 2.964 1.151a4.224 4.224 0 0 1 1.309 2.891c0 1.113-.397 2.175-1.15 2.97a4.207 4.207 0 0 1-2.885 1.311c-1.11 0-2.17-.397-2.964-1.152a4.223 4.223 0 0 1-1.308-2.89c0-1.103.397-2.176 1.15-2.97zm23.114 23.562h.238c2.171-.04 4.154-.954 5.65-2.533a7.945 7.945 0 0 0 2.211-5.82c-.04-2.176-.952-4.163-2.528-5.663a7.91 7.91 0 0 0-5.809-2.215c-2.171.04-4.153.954-5.65 2.533a7.94 7.94 0 0 0-2.21 5.82c.119 4.391 3.747 7.878 8.098 7.878zM105.721 86.2a4.205 4.205 0 0 1 2.884-1.311 3.973 3.973 0 0 1 2.964 1.142 4.226 4.226 0 0 1 1.309 2.89c0 1.113-.397 2.176-1.15 2.97a4.168 4.168 0 0 1-2.885 1.312c-2.25.079-4.193-1.739-4.272-4.043 0-1.103.396-2.166 1.15-2.96z" fill="#0499BA"/></svg><svg fill="none" viewBox="0 0 135 150" id="calendar" xmlns="http://www.w3.org/2000/svg"><path fill-rule="evenodd" clip-rule="evenodd" d="M135 41.622c0-.111-.008-.222-.034-.334V17.454c0-3.31-2.68-5.969-5.94-5.969h-16.252V1.702A1.68 1.68 0 0 0 111.08 0a1.68 1.68 0 0 0-1.693 1.702v9.783H83.715V1.702c0-.95-.75-1.702-1.702-1.702a1.68 1.68 0 0 0-1.694 1.702v9.783H54.681V1.702A1.68 1.68 0 0 0 52.987 0c-.944 0-1.693.753-1.693 1.702v9.783h-25.69V1.702c0-.95-.74-1.702-1.693-1.702a1.68 1.68 0 0 0-1.693 1.702v9.783H5.939C2.646 11.485 0 14.18 0 17.455V144.03c0 3.31 2.68 5.97 5.94 5.97h123.12c3.259 0 5.939-2.66 5.905-5.935V41.947l.003-.022c.016-.103.031-.2.031-.303zM5.94 14.897h16.278v4.054c-3.906.795-6.85 4.267-6.85 8.424 0 4.737 3.829 8.586 8.543 8.586 4.714 0 8.544-3.849 8.544-8.586 0-4.157-2.945-7.629-6.85-8.424v-4.054h25.672v4.054c-3.906.795-6.85 4.267-6.85 8.424 0 4.737 3.83 8.586 8.543 8.586 4.68 0 8.544-3.849 8.544-8.586 0-4.157-2.945-7.629-6.85-8.424v-4.054h25.638v4.054c-3.906.795-6.85 4.267-6.85 8.424 0 4.737 3.83 8.586 8.544 8.586s8.543-3.849 8.543-8.586c0-4.157-2.944-7.629-6.85-8.424v-4.054h25.672v4.054c-3.905.795-6.849 4.267-6.849 8.424 0 4.737 3.829 8.586 8.543 8.586 4.68 0 8.543-3.849 8.543-8.586 0-4.157-2.944-7.629-6.85-8.424v-4.054h16.253c1.387 0 2.544 1.163 2.544 2.557V39.92H3.395V17.454c0-1.402 1.149-2.557 2.544-2.557zm17.97 14.214c.953 0 1.694-.787 1.694-1.702v-4.892a5.173 5.173 0 0 1 3.463 4.892c0 2.865-2.306 5.182-5.157 5.182-2.85 0-5.157-2.317-5.157-5.182a5.181 5.181 0 0 1 3.464-4.892v4.892c0 .949.749 1.702 1.693 1.702zm29.068 0c.919 0 1.693-.787 1.693-1.702v-4.883c2 .71 3.464 2.625 3.464 4.883 0 2.865-2.306 5.182-5.157 5.182-2.85 0-5.157-2.317-5.157-5.182a5.18 5.18 0 0 1 3.463-4.892v4.892c0 .949.75 1.702 1.694 1.702zm29.034 0c.953 0 1.693-.787 1.693-1.702v-4.892c2.017.71 3.463 2.651 3.463 4.883 0 2.83-2.306 5.183-5.156 5.183-2.851 0-5.157-2.318-5.157-5.183a5.181 5.181 0 0 1 3.463-4.891V27.4c0 .958.75 1.71 1.694 1.71zm29.067 0c.919 0 1.694-.787 1.694-1.702v-4.883c1.999.71 3.463 2.625 3.463 4.883 0 2.865-2.306 5.182-5.157 5.182-2.85 0-5.156-2.317-5.156-5.182a5.18 5.18 0 0 1 3.463-4.892v4.892c0 .949.749 1.702 1.693 1.702zm17.946 117.502H5.939c-1.387 0-2.544-1.163-2.544-2.557V43.324h128.176v100.732c0 1.403-1.149 2.557-2.545 2.557zm-97.822-98.14h-15.87a1.68 1.68 0 0 0-1.693 1.701v15.95a1.68 1.68 0 0 0 1.693 1.701h15.87a1.68 1.68 0 0 0 1.693-1.702v-15.94c0-.958-.74-1.71-1.693-1.71zM29.51 64.43H17.027V51.884h12.484V64.43zm15.3-15.958h15.87a1.68 1.68 0 0 1 1.693 1.702v15.95a1.68 1.68 0 0 1-1.694 1.701H44.81a1.68 1.68 0 0 1-1.693-1.702V50.174c0-.95.74-1.702 1.694-1.702zm1.693 15.958h12.483V51.884H46.503V64.43zm43.688-15.958H74.312a1.68 1.68 0 0 0-1.693 1.702v15.95a1.68 1.68 0 0 0 1.693 1.701h15.87a1.68 1.68 0 0 0 1.694-1.702v-15.94a1.675 1.675 0 0 0-1.685-1.71zM88.497 64.43H76.014V51.884h12.483V64.43zm15.299-15.958h15.87c.944 0 1.693.753 1.693 1.71v15.941c0 .95-.74 1.702-1.693 1.702h-15.87a1.68 1.68 0 0 1-1.694-1.702V50.174c0-.95.741-1.702 1.694-1.702zm1.685 15.958h12.483V51.884h-12.483V64.43zm-74.277 8.586h-15.87a1.68 1.68 0 0 0-1.693 1.701v15.95a1.68 1.68 0 0 0 1.693 1.701h15.87c.953 0 1.693-.786 1.693-1.701v-15.95a1.68 1.68 0 0 0-1.693-1.701zM29.51 88.965H17.027V76.428h12.484v12.537zm15.299-15.95h15.87c.953 0 1.693.753 1.693 1.694v15.958c0 .915-.74 1.701-1.694 1.701H44.81a1.68 1.68 0 0 1-1.693-1.701v-15.95c0-.949.74-1.701 1.694-1.701zm1.693 15.95h12.483V76.428H46.503v12.537zm43.688-15.95H74.312a1.68 1.68 0 0 0-1.693 1.703v15.949a1.68 1.68 0 0 0 1.693 1.701h15.87c.953 0 1.694-.786 1.694-1.701v-15.95a1.673 1.673 0 0 0-1.685-1.701zm-1.694 15.95H76.014V76.428h12.483v12.537zm15.299-15.95h15.87c.944 0 1.693.753 1.693 1.703v15.949c0 .915-.74 1.701-1.693 1.701h-15.87a1.68 1.68 0 0 1-1.694-1.701v-15.95a1.68 1.68 0 0 1 1.694-1.701zm1.685 15.95h12.483V76.428H105.48v12.537zm-74.277 8.56h-15.87a1.68 1.68 0 0 0-1.693 1.703v15.949a1.68 1.68 0 0 0 1.693 1.702h15.87a1.68 1.68 0 0 0 1.693-1.702v-15.95a1.68 1.68 0 0 0-1.693-1.701zm-1.693 15.95H17.027v-12.546h12.484v12.546zm15.299-15.95h15.87a1.68 1.68 0 0 1 1.693 1.703v15.949a1.68 1.68 0 0 1-1.694 1.702H44.81a1.68 1.68 0 0 1-1.693-1.702v-15.95c0-.949.74-1.701 1.694-1.701zm1.693 15.95h12.483v-12.546H46.503v12.546zm43.688-15.95H74.312a1.68 1.68 0 0 0-1.693 1.703v15.949a1.68 1.68 0 0 0 1.693 1.702h15.87a1.68 1.68 0 0 0 1.694-1.702v-15.95a1.673 1.673 0 0 0-1.685-1.701zm-1.694 15.95H76.014v-12.546h12.483v12.546zm15.299-15.95h15.87c.944 0 1.693.753 1.693 1.703v15.949a1.68 1.68 0 0 1-1.693 1.702h-15.87a1.68 1.68 0 0 1-1.694-1.702v-15.95a1.68 1.68 0 0 1 1.694-1.701zm1.685 15.95h12.483v-12.546H105.48v12.546zm-74.277 8.595h-15.87a1.68 1.68 0 0 0-1.693 1.702v15.949a1.68 1.68 0 0 0 1.693 1.702h15.87a1.68 1.68 0 0 0 1.693-1.702v-15.949c0-.95-.74-1.702-1.693-1.702zm-1.693 15.949H17.027v-12.546h12.484v12.546zm15.3-15.949h15.87a1.68 1.68 0 0 1 1.693 1.702v15.949a1.68 1.68 0 0 1-1.694 1.702H44.81a1.68 1.68 0 0 1-1.693-1.702v-15.949c0-.95.74-1.702 1.694-1.702zm1.693 15.949h12.483v-12.546H46.503v12.546zm43.688-15.949H74.312a1.68 1.68 0 0 0-1.693 1.702v15.949a1.68 1.68 0 0 0 1.693 1.702h15.87a1.68 1.68 0 0 0 1.694-1.702v-15.949a1.673 1.673 0 0 0-1.685-1.702zm-1.694 15.949H76.014v-12.546h12.483v12.546zm15.299-15.949h15.87c.944 0 1.693.752 1.693 1.702v15.949a1.68 1.68 0 0 1-1.693 1.702h-15.87a1.68 1.68 0 0 1-1.694-1.702v-15.949c0-.95.741-1.702 1.694-1.702zm1.685 15.949h12.483v-12.546h-12.483v12.546z" fill="#0499BA"/></svg><svg fill="none" viewBox="0 0 144 150" id="note" xmlns="http://www.w3.org/2000/svg"><path fill-rule="evenodd" clip-rule="evenodd" d="M112.531 0H1.861C.916 0 .166.752.166 1.702v146.596c0 .958.75 1.702 1.695 1.702h110.67c.954 0 1.696-.787 1.696-1.702V1.702c0-.95-.75-1.702-1.696-1.702zm-1.695 146.597H3.566V3.412h107.27v143.185zM136.411 0c3.732 0 6.756 3.027 6.756 6.78v121.843c0 .35-.102.675-.281.949l-9.03 19.436a1.632 1.632 0 0 1-1.525.992 1.675 1.675 0 0 1-1.525-.992l-8.971-19.316a1.686 1.686 0 0 1-.366-1.061V6.781c0-3.745 3.016-6.781 6.756-6.781h8.186zm3.357 27.235H124.86v8.525h14.908v-8.525zm-14.908-3.412h14.908V15.34H124.86v8.483zm14.908 15.34H124.86v87.767h14.908V39.163zm-3.365-35.751h-8.187a3.347 3.347 0 0 0-3.356 3.369v5.156h14.908V6.79a3.356 3.356 0 0 0-3.365-3.377zM125.848 130.34l6.483 13.938 6.491-13.938h-12.974zm7.734-80.746h-2.547a1.681 1.681 0 0 1-1.695-1.701c0-.95.741-1.702 1.695-1.702h2.547c.946 0 1.696.744 1.696 1.702 0 .949-.741 1.701-1.696 1.701zm0 5.387h-2.547c-.954 0-1.695.752-1.695 1.702 0 .957.75 1.701 1.695 1.701h2.547c.955 0 1.696-.752 1.696-1.701 0-.958-.741-1.702-1.696-1.702zm-2.547 8.79h2.547c.955 0 1.696.753 1.696 1.703 0 .949-.741 1.701-1.696 1.701h-2.547a1.681 1.681 0 0 1-1.695-1.701c0-.95.741-1.702 1.695-1.702zm2.547 8.792h-2.547a1.68 1.68 0 0 0-1.695 1.701c0 .958.75 1.702 1.695 1.702h2.547c.955 0 1.696-.753 1.696-1.702s-.741-1.701-1.696-1.701zm-2.547 8.764h2.547c.955 0 1.696.753 1.696 1.702s-.741 1.701-1.696 1.701h-2.547a1.687 1.687 0 0 1-1.695-1.701c0-.95.741-1.702 1.695-1.702zm2.547 8.79h-2.547a1.68 1.68 0 0 0-1.695 1.701c0 .95.75 1.702 1.695 1.702h2.547c.955 0 1.696-.752 1.696-1.702 0-.949-.741-1.701-1.696-1.701zm-2.547 8.799h2.547c.955 0 1.696.752 1.696 1.701 0 .949-.741 1.702-1.696 1.702h-2.547a1.687 1.687 0 0 1-1.695-1.702 1.68 1.68 0 0 1 1.695-1.701zm2.547 8.79h-2.547c-.954 0-1.695.753-1.695 1.702 0 .958.75 1.702 1.695 1.702h2.547c.955 0 1.696-.753 1.696-1.702s-.741-1.702-1.696-1.702zm-2.547 8.765h2.547c.955 0 1.696.744 1.696 1.702 0 .949-.741 1.701-1.696 1.701h-2.547a1.681 1.681 0 0 1-1.695-1.701c0-.95.741-1.702 1.695-1.702zM70.32 35.247h27.54c.946 0 1.696.744 1.696 1.702 0 .949-.776 1.701-1.696 1.701H70.32a1.681 1.681 0 0 1-1.696-1.701c0-.95.741-1.702 1.696-1.702zm27.542 11.04h-30.43a1.68 1.68 0 0 0-1.695 1.7c0 .959.75 1.702 1.695 1.702h30.421c.92 0 1.695-.752 1.695-1.701a1.674 1.674 0 0 0-1.686-1.702zM64.986 57.333h32.875c.945 0 1.695.743 1.686 1.701 0 .95-.775 1.702-1.695 1.702H64.986a1.681 1.681 0 0 1-1.695-1.702c0-.949.74-1.701 1.695-1.701zm32.876 11.039H16.53c-.954 0-1.695.752-1.695 1.702 0 .949.75 1.701 1.695 1.701h81.33c.92 0 1.696-.752 1.696-1.701 0-.95-.75-1.702-1.695-1.702zm-6.152 12.75c0 .949-.775 1.701-1.695 1.701H24.376a1.687 1.687 0 0 1-1.695-1.701c0-.95.741-1.702 1.695-1.702h65.64c.945 0 1.694.752 1.694 1.701zm6.152 9.337H16.53c-.954 0-1.695.752-1.695 1.702 0 .949.75 1.701 1.695 1.701h81.33c.92 0 1.696-.752 1.696-1.701 0-.95-.75-1.702-1.695-1.702zm-7.847 14.451H24.376a1.681 1.681 0 0 1-1.695-1.702 1.68 1.68 0 0 1 1.695-1.701h65.64c.945 0 1.694.752 1.694 1.701 0 .95-.775 1.702-1.695 1.702zM22.503 54.888c.077.086.162.163.264.231 4.021 3.497 9.26 5.627 14.985 5.627a22.782 22.782 0 0 0 15.062-5.67.866.866 0 0 0 .136-.12c4.745-4.215 7.744-10.372 7.727-17.22 0-12.682-10.291-23.011-22.925-23.011-12.633 0-22.924 10.33-22.924 23.01.008 6.807 2.973 12.93 7.675 17.153zm3.05-1.907c1.005-5.951 6.091-10.338 12.2-10.338 6.108 0 11.202 4.387 12.199 10.338-3.348 2.694-7.59 4.319-12.2 4.319-4.608 0-8.85-1.625-12.199-4.319zm12.2-34.879c10.767 0 19.525 8.8 19.525 19.599 0 4.754-1.695 9.124-4.515 12.518a15.671 15.671 0 0 0-15.01-10.979c-7.02 0-12.958 4.54-15.003 10.988a19.567 19.567 0 0 1-4.523-12.527c0-10.809 8.766-19.599 19.525-19.599zm8.62 11.39c0 4.772-3.834 8.654-8.622 8.654-4.754 0-8.621-3.89-8.621-8.662s3.867-8.654 8.62-8.645c4.755 0 8.622 3.882 8.622 8.653zm-3.391-.042c0-2.9-2.343-5.25-5.231-5.25-2.88 0-5.222 2.35-5.23 5.25 0 2.898 2.342 5.25 5.23 5.25 2.888 0 5.23-2.352 5.23-5.25zm48.217 83.85-10.53 1.462a1.804 1.804 0 0 0-1.124.65l-13.988 18.333c-4.48-4.532-6.892-7.807-8.119-10.193 6.313-1.154 10.394-3.207 11.476-5.832.51-1.154.34-2.42-.478-3.377-1.456-1.77-4.753-2.283-8.86-1.394-4.378.958-5.911 3.241-6.414 5.011a7.073 7.073 0 0 0-.17 2.83h-.001a28.08 28.08 0 0 1-1.763.171c-4.044.34-6.282-1.539-9.376-4.137l-.063-.053a79.156 79.156 0 0 1-.79-.661c-.698-.589-1.419-1.198-2.234-1.793-.545-.41-1.218-.479-1.798-.171-.579.308-.92.889-.92 1.531l.137 13.502c-.367 2.131-1.213 2.506-1.538 2.649l-.021.01c-2.616 1.052-8.357-2.523-10.734-4.395a1.674 1.674 0 0 0-2.377.273 1.69 1.69 0 0 0 .273 2.386c.92.718 8.962 6.952 14.09 4.908 1.397-.547 3.16-1.941 3.672-5.455.034-.103.034-.171.034-.274l-.102-10.021a.469.469 0 0 1 .136.102l.081.068c3.3 2.771 6.412 5.384 11.837 4.909a49.66 49.66 0 0 0 2.445-.24c1.627 3.72 5.128 8.149 10.597 13.468.341.308.75.479 1.193.479.034 0 .102 0 .068.034.477-.068.92-.308 1.227-.684l14.738-19.325 9.848-1.394c.954-.102 1.593-.992 1.457-1.907a1.67 1.67 0 0 0-1.909-1.47zm-34.698 5.617c.341-1.265 1.662-2.146 3.868-2.625 1.193-.239 2.172-.342 2.956-.342 1.423 0 2.24.308 2.513.548-.306.786-2.922 2.659-9.439 3.813-.034-.573 0-1.051.102-1.394zm41.361-91.135H64.451a1.676 1.676 0 0 1-1.695-1.702V11.15c0-.949.74-1.701 1.695-1.701h33.411c.946 0 1.696.744 1.696 1.701v14.93c0 .915-.776 1.702-1.696 1.702zm-1.695-14.93h-30.02V24.37h30.02V12.852zM71.41 16.905h-1.32c-.954 0-1.695.753-1.695 1.702 0 .958.75 1.701 1.695 1.701h1.32c.955 0 1.696-.752 1.696-1.701 0-.95-.75-1.702-1.696-1.702zm5.597 0h1.33c.953 0 1.695.753 1.695 1.702 0 .95-.742 1.701-1.696 1.701h-1.329a1.681 1.681 0 0 1-1.695-1.701c0-.95.741-1.702 1.695-1.702zm8.254 0h-1.32c-.955 0-1.696.753-1.696 1.702 0 .958.75 1.701 1.695 1.701h1.32c.955 0 1.696-.752 1.696-1.701 0-.95-.741-1.702-1.695-1.702zm5.607 0h1.32c.954 0 1.704.753 1.695 1.702a1.68 1.68 0 0 1-1.695 1.701h-1.32a1.681 1.681 0 0 1-1.696-1.701c0-.95.741-1.702 1.696-1.702z" fill="#0499BA"/></svg><svg fill="none" viewBox="0 0 119 150" id="payment" xmlns="http://www.w3.org/2000/svg"><path fill-rule="evenodd" clip-rule="evenodd" d="M118.457 116.131v20.946c.025.107.034.222.042.33l.001.012c0 .119-.009.231-.034.342v2.626c0 5.319-4.304 9.613-9.636 9.613H10.136C4.804 150 .5 145.672.5 140.387V48.803C.543 42.807 5.447 37.94 11.465 37.94h9.842V1.702c0-.95.746-1.702 1.706-1.702H81.73c.952 0 1.706.744 1.706 1.702v36.213h19.101c.952 0 1.706.744 1.706 1.702V56.44h4.578c5.332 0 9.636 4.328 9.636 9.614v2.617c.026.111.034.23.034.35 0 .12-.008.231-.034.343v46.767zm-3.412-45.39H3.912v64.967h111.124v-17.901H84.662a1.687 1.687 0 0 1-1.706-1.702v-25.77c0-.95.746-1.702 1.706-1.702h30.383V70.741zm-28.677 43.671h28.668V92.046H86.368v22.366zm28.668-47.075V66.07c0-3.447-2.803-6.201-6.215-6.201h-6.284c-.12 0-.24-.009-.352-.034h-90.72a10.968 10.968 0 0 1-7.553-3.02v10.52h111.124zm-80.03-10.914H69.72V18.038c-3.172-.582-5.701-2.831-6.421-5.662h-21.87c-.712 2.831-3.24 5.046-6.421 5.662v38.385zm65.816 0V41.32H83.427v15.104h17.395zm-20.807 0V3.413H24.728v53.01h6.867V16.498c0-.949.745-1.702 1.706-1.702 2.734 0 4.92-1.838 4.92-4.088 0-.95.747-1.702 1.707-1.702h24.887c.952 0 1.706.744 1.706 1.702 0 2.25 2.22 4.088 4.921 4.088.952 0 1.706.745 1.706 1.703v39.924h6.867zm-58.708-15.07h-9.842c-4.175 0-7.553 3.378-7.553 7.535s3.386 7.535 7.553 7.535h9.842v-15.07zm-11.18 105.243h98.694a6.226 6.226 0 0 0 6.224-6.201v-1.266H3.912v1.266c0 3.438 2.795 6.201 6.216 6.201zm97.186-43.363c0 3.609-2.967 6.577-6.593 6.577-3.618 0-6.593-2.968-6.593-6.577 0-3.61 2.967-6.577 6.593-6.577 3.618 0 6.593 2.959 6.593 6.577zm-3.412 0c0-1.745-1.441-3.173-3.181-3.173s-3.18 1.428-3.18 3.173a3.187 3.187 0 0 0 3.18 3.173c1.749 0 3.181-1.437 3.181-3.173zM52.368 34.742c-4.818 0-8.745 3.917-8.745 8.724 0 4.806 3.927 8.724 8.745 8.724s8.744-3.918 8.744-8.724c.009-4.807-3.926-8.724-8.744-8.724zm0 14.044c-2.94 0-5.333-2.387-5.333-5.32 0-2.934 2.392-5.32 5.333-5.32 2.94 0 5.332 2.386 5.332 5.32 0 2.933-2.392 5.32-5.332 5.32zm-33.453 54.447c0-13.505 10.999-24.478 24.536-24.478 13.528 0 24.536 10.973 24.536 24.478s-11.008 24.478-24.536 24.478c-13.529 0-24.536-10.973-24.536-24.478zm3.42 0c0 11.623 9.465 21.066 21.116 21.066 11.65 0 21.115-9.443 21.115-21.066s-9.499-21.066-21.115-21.066c-11.651 0-21.116 9.443-21.116 21.066z" fill="#0499BA"/></svg><svg fill="none" viewBox="0 0 171 150" id="people" xmlns="http://www.w3.org/2000/svg"><path d="M137.054 76.105V68.3c6.369-4.387 10.566-11.736 10.566-20.055v-7.834c3.349-13.692 2.731-23.511-1.823-29.176-2.905-3.612-6.572-4.406-8.251-4.58-4.545-4.494-9.862-6.73-15.845-6.653-15.218.203-29.21 15.416-29.798 16.065a1.924 1.924 0 0 0-.464 1.685 1.93 1.93 0 0 0 1.081 1.375c1.67.775 5.201 3.157 4.777 5.18-.907 4.3 1.428 14.439 1.891 16.405v7.543c0 8.318 4.188 15.678 10.557 20.055v7.805c-14.928.736-27.434 10.836-31.806 24.567a33.835 33.835 0 0 0-9.775-5.19c-.048-.02-.096-.04-.154-.05-2.837-.938-5.8-1.5-8.82-1.655v-1.5h7.382c5.5 0 9.978-4.494 9.978-10.014v-27.22c0-16.917-13.722-30.687-30.58-30.687-16.858 0-30.58 13.77-30.58 30.687v27.2c0 5.52 4.477 10.014 9.977 10.014h7.373v1.5c-17.418.892-31.42 15.01-32.211 32.518a1.88 1.88 0 0 0-.01.61c-.01.32-.019.639-.019.959v20.219c0 1.065.859 1.927 1.92 1.927h166.16c1.061 0 1.92-.862 1.92-1.927v-36.662c.019-18.902-14.841-34.386-33.446-35.306zm8.27 5.471-13.365 13.102-5.8-6.323 9.679-8.415c3.31.048 6.494.62 9.486 1.636zm-18.335 53.821-3.599 4.154-3.6-4.154V107.17h7.199v28.227zM110.922 79.93l9.718 8.425-5.8 6.323-13.374-13.112a31.205 31.205 0 0 1 9.456-1.636zm12.477 11.117 5.819 6.342-1.737 5.927h-8.163l-1.737-5.927 5.818-6.342zm18.711-52.67c-.878-3.98-4.419-6.962-8.646-6.962-4.004 0-7.401 2.683-8.492 6.343a8.246 8.246 0 0 0-3.155-.029c-1.1-3.65-4.487-6.314-8.482-6.314-4.227 0-7.768 2.983-8.646 6.963h-1.168c1.573-6.091 5.674-14.119 13.452-14.322 9.939-.252 16.568-2.247 18.402-2.867 4.805 1.085 7.314 11.524 8.154 17.189h-1.419zm-3.628 1.947c-.01 2.77-2.258 5.016-5.018 5.016-2.769 0-5.018-2.256-5.018-5.035 0-2.78 2.249-5.036 5.018-5.036 2.76 0 5.008 2.247 5.018 5.017v.038zm-30.165-.048c.019-2.76 2.258-5.007 5.018-5.007s4.998 2.247 5.018 5.007v.058c-.02 2.76-2.258 4.997-5.018 4.997s-4.999-2.247-5.018-5.007v-.049zm-11.86-23.328c4.034-3.873 14.61-12.947 25.312-13.082 5.114-.068 9.649 1.956 13.538 6.013.377.397.888.6 1.448.59.029 0 3.464-.018 6.05 3.196 1.978 2.46 3.773 7.176 2.828 16.172-1.708-5.771-4.796-11.91-10.21-12.54-.309-.039-.618 0-.907.116-.068.02-6.755 2.527-17.64 2.799-7.276.183-12.487 5.558-15.401 12.24-.473-3.031-.733-5.907-.424-7.35.791-3.758-2.278-6.595-4.594-8.154zm6.572 31.297v-6.003h1.66c.878 3.98 4.429 6.962 8.646 6.962 4.448 0 8.144-3.302 8.771-7.602.579-.164 1.486-.261 2.606.068.656 4.261 4.333 7.534 8.762 7.534 4.226 0 7.768-2.983 8.646-6.962h1.65v6.003c0 7.273-3.802 13.664-9.524 17.286a1.959 1.959 0 0 0-.299.193 20.216 20.216 0 0 1-10.557 2.963c-3.87 0-7.488-1.084-10.567-2.972a1.596 1.596 0 0 0-.27-.175c-5.722-3.631-9.524-10.022-9.524-17.295zm20.37 24.306c3.494 0 6.804-.746 9.805-2.092v6.663l-9.805 8.521-9.813-8.502v-6.682a24.066 24.066 0 0 0 9.813 2.092zM97.606 83.174l15.96 15.648c.155.155.338.272.531.368l1.853 6.314v30.61c0 .465.174.91.473 1.268l5.519 6.362c.367.417.888.669 1.448.669.56 0 1.081-.242 1.447-.669l5.52-6.362a1.91 1.91 0 0 0 .473-1.268v-30.561l1.862-6.362c.193-.088.367-.214.531-.368l15.951-15.64c10.345 5.152 17.485 15.862 17.485 28.218v12.066h-17.041v-11.601a1.923 1.923 0 0 0-1.92-1.927 1.923 1.923 0 0 0-1.921 1.927v34.27h-44.765v-34.27a1.923 1.923 0 0 0-1.92-1.927c-1.062 0-1.92.862-1.92 1.927v11.601H80.12v-12.066c0-2.333.26-4.609.743-6.807.02-.078.039-.155.049-.233 2.122-9.305 8.366-17.043 16.694-21.187zM71.32 128.599h4.96v17.537h-4.96v-17.537zm4.95-17.198v13.335h-4.96v-5.259a1.923 1.923 0 0 0-1.92-1.927c-1.062 0-1.92.862-1.92 1.927v7.099c0 .029-.01.067-.01.096 0 .029 0 .068.01.097v19.367H47.9v-25.4l9.958-6.73 5.25 1.646a1.939 1.939 0 0 0 1.534-.174c.463-.271.791-.716.917-1.239l3.29-14.38a30.498 30.498 0 0 1 8.058 4.929 34.68 34.68 0 0 0-.637 6.613zM57.52 41.002c4.565 1.056 6.958 10.971 7.769 16.423h-1.226c-.878-3.844-4.304-6.71-8.395-6.71-3.87 0-7.16 2.575-8.231 6.12a8.653 8.653 0 0 0-2.944-.049c-1.09-3.515-4.361-6.071-8.221-6.071-4.092 0-7.517 2.876-8.396 6.71h-.984c1.525-5.839 5.452-13.47 12.883-13.653 9.553-.242 15.941-2.16 17.745-2.77zm2.915 18.38c-.02 2.624-2.143 4.754-4.758 4.754-2.624 0-4.757-2.14-4.757-4.774s2.133-4.774 4.757-4.774c2.615 0 4.748 2.13 4.758 4.755v.039zm-19.396.019c-.02 2.614-2.143 4.735-4.758 4.735-2.624 0-4.757-2.14-4.757-4.774s2.133-4.774 4.757-4.774c2.615 0 4.738 2.12 4.758 4.745v.068zm-14.63 1.888h1.477c.878 3.835 4.304 6.701 8.386 6.701 4.303 0 7.884-3.186 8.51-7.33.541-.146 1.361-.223 2.384.067.657 4.116 4.217 7.263 8.502 7.263 4.082 0 7.507-2.866 8.385-6.7h1.477v5.712c0 6.953-3.619 13.064-9.061 16.55a1.825 1.825 0 0 0-.435.27 19.343 19.343 0 0 1-10.064 2.8c-3.696 0-7.16-1.037-10.104-2.828a1.794 1.794 0 0 0-.337-.213c-5.472-3.487-9.11-9.616-9.11-16.579V61.29h-.01zM36.59 88.51a23.156 23.156 0 0 0 9.38 1.976 23.12 23.12 0 0 0 9.37-1.975v6.72l-9.37 19.948-9.38-19.948v-6.72zm28.592 10.11-2.914 12.734-4.15-1.298a1.927 1.927 0 0 0-1.65.242l-5.79 3.913 7.798-16.588c2.277.067 4.526.406 6.706.997zm7.527-43.566v27.2c0 3.39-2.75 6.15-6.127 6.15H59.2V86.36c6.147-4.242 10.19-11.34 10.19-19.377v-7.757c0-.058 0-.125-.01-.184-.203-2.072-2.152-19.764-10.991-21.807-.347-.503-.608-1.075-.589-1.317.039-.038.145-.116.357-.213 1.757-.774 2.953-1.55 3.754-2.188 6.543 4.9 10.798 12.733 10.798 21.536zm-47.342 33.36c-3.377 0-6.127-2.76-6.127-6.15v-27.21c0-14.797 11.995-26.833 26.74-26.833 4.467 0 8.675 1.104 12.38 3.06-.473.28-1.042.58-1.747.89-1.785.785-2.383 2.034-2.576 2.944-.203.998 0 1.966.347 2.799-2.75.736-7.864 1.82-14.687 1.995-9.553.242-15.43 9.703-17.05 19.057v.02c-.01.067-.03.135-.04.203a1.79 1.79 0 0 0-.028.32v7.494c0 8.028 4.033 15.126 10.18 19.367v2.053h-7.392v-.01zm8.087 9.199 7.797 16.598-5.79-3.913a1.917 1.917 0 0 0-1.65-.242l-4.15 1.298-2.914-12.744c2.152-.58 4.4-.92 6.707-.997zM23.09 99.839l3.3 14.4c.116.523.454.978.917 1.239a1.934 1.934 0 0 0 1.534.174l5.25-1.646 9.968 6.73v25.391H24.48v-26.659a1.923 1.923 0 0 0-1.92-1.927c-1.061 0-1.92.862-1.92 1.927v5.258H4.505c1.148-11.272 8.51-20.742 18.585-24.887zM4.34 128.6h16.29v17.537H4.34V128.6zm75.78-.126a1.924 1.924 0 0 0 1.139-1.142H97.17v18.805H80.12v-17.663zm69.508 17.663v-18.805h17.041v18.805h-17.041z" fill="#0499BA"/></svg><svg fill="none" viewBox="0 0 188 24" id="ralf-ringer-logo" xmlns="http://www.w3.org/2000/svg"><path fill-rule="evenodd" clip-rule="evenodd" d="M59.89.447a.899.899 0 0 1 .818-.418h6.942c-.218.427-.427.864-.646 1.292a2.252 2.252 0 0 1-.722.883.926.926 0 0 1-.57.18H63.3a1.13 1.13 0 0 0-.474.048.8.8 0 0 0-.532.76v7.398h4.33c-.199.408-.408.807-.607 1.216-.171.36-.418.684-.732.93a.943.943 0 0 1-.57.2h-2.43v9.953c.018.21 0 .418-.077.617a.836.836 0 0 1-.75.475h-1.672V1.17c-.038-.247 0-.504.105-.722zm-19.203-.4h1.729a.81.81 0 0 1 .74.533c.048.18.057.36.038.541v20.515h5.547c-.2.398-.4.807-.608 1.206a2.85 2.85 0 0 1-.617.845c-.19.18-.447.285-.713.285h-6.125c.009-7.978.009-15.956.009-23.924zm-17.96 0h1.748a.814.814 0 0 1 .75.742c1.187 7.73 2.384 15.461 3.571 23.192h-2.47a6520.44 6520.44 0 0 0-1.832-12.745c-.2-1.33-.37-2.66-.58-3.98-.265 2.023-.579 4.046-.854 6.079L21.55 23.98h-2.48c1.226-7.978 2.442-15.955 3.657-23.933zM2.507 2.252v9.232h2.27a1.39 1.39 0 0 0 .675-.114c.417-.2.674-.636.664-1.092v-6.8c.02-.428-.2-.827-.56-1.055a1.388 1.388 0 0 0-.826-.17H2.507zM0 .048h6.145c.589 0 1.149.228 1.567.636a2.66 2.66 0 0 1 .75 1.662v7.893c.029.493-.085.987-.332 1.415-.238.38-.57.674-.969.873.494.19.893.58 1.111 1.064.162.418.228.874.19 1.32 0 3.02.01 6.05-.01 9.07H5.975c.01-3.058 0-6.107 0-9.165a.93.93 0 0 0-.722-1.092c-.076-.019-.142-.019-.218-.019-.846-.028-1.69-.019-2.527-.028-.01 3.428 0 6.866 0 10.295H0V.048z" fill="#fff"/><path fill-rule="evenodd" clip-rule="evenodd" d="M81.735.038h6.145a2.177 2.177 0 0 1 1.662.74 2.67 2.67 0 0 1 .655 1.739V8.67c-.019.694.029 1.387-.028 2.08a2.26 2.26 0 0 1-1.244 1.757c.427.19.788.513 1.016.931.17.342.256.712.247 1.092-.01 1.31.038 2.621.019 3.932-.029 1.843-.02 3.676-.02 5.518H87.71v-9.288a.9.9 0 0 0-.37-.798 1.977 1.977 0 0 0-1.093-.18 27.848 27.848 0 0 0-2.023-.01c0 3.438.01 6.867-.01 10.295-.825-.01-1.661 0-2.487 0 .01-7.997.01-15.975.01-23.962zm2.488 2.222c.01 3.068.01 6.136 0 9.194.827.028 1.644.01 2.47.01a1.145 1.145 0 0 0 1.13-1.093v-6.97a1.15 1.15 0 0 0-1.13-1.15c-.817 0-1.643 0-2.47.01zM103.114.038c.579.01 1.158-.01 1.738 0a.838.838 0 0 1 .798.874c0 .038-.01.076-.019.114v22.936c-.58 0-1.159.01-1.738-.01a.798.798 0 0 1-.779-.76V.039zm16.069.01a3.443 3.443 0 0 1 1.976.247c.342.218.598.56.693.95.893 4.32 1.776 8.642 2.678 12.954.029-4.72 0-9.44.01-14.16.769 0 1.539-.02 2.317.009v23.591c0 .105-.009.219-.009.333-.523.057-1.045 0-1.539-.171a1.784 1.784 0 0 1-.978-1.244c-.817-3.514-1.624-7.029-2.431-10.543-.114-.446-.19-.911-.323-1.358-.019 4.435-.01 8.87-.01 13.316-.788.01-1.576 0-2.365 0-.028-7.978-.009-15.947-.019-23.924zm22.006.104a4.314 4.314 0 0 1 1.482-.114c.74.01 1.481-.019 2.222.02a2.64 2.64 0 0 1 2.222 2.535c.01 1.358.01 2.716 0 4.084a1.448 1.448 0 0 1-.797 1.12c-.504.276-1.026.542-1.539.789-.028-1.729 0-3.448-.019-5.176a1.54 1.54 0 0 0-1.643-1.425c-.095.01-.18.02-.266.048a1.558 1.558 0 0 0-1.045 1.529v16.83a1.522 1.522 0 0 0 1.32 1.538 1.468 1.468 0 0 0 1.501-1.017c.076-.265.114-.55.095-.826-.009-2.165.01-4.34-.009-6.506a2.121 2.121 0 0 1-1.14-1.206c-.181-.38-.38-.76-.57-1.14 1.026-.009 2.051 0 3.077 0 .399-.018.769.21.95.57.085.21.114.428.095.646v8.301c.028.437-.01.874-.105 1.301a2.634 2.634 0 0 1-1.586 1.767 5.347 5.347 0 0 1-1.861.161c-.674-.019-1.339.038-1.995-.038a2.679 2.679 0 0 1-2.146-2.66V3.639c-.038-.56 0-1.121.114-1.662a2.66 2.66 0 0 1 1.681-1.814l-.038-.01zm19.85.731a.808.808 0 0 1 .769-.845h6.468a17.039 17.039 0 0 1-.931 1.738 1.27 1.27 0 0 1-1.045.608h-1.937a.81.81 0 0 0-.808.788v7.085c1.235 0 2.46-.01 3.695.01-.257.513-.503 1.035-.779 1.529a1.56 1.56 0 0 1-1.054.817h-1.862c0 3-.009 5.993 0 8.994h4.958c-.209.456-.437.912-.674 1.358a2.06 2.06 0 0 1-.855.921 1.913 1.913 0 0 1-.836.095h-5.1c-.019-7.693-.009-15.395-.009-23.088v-.01zm18.054 23.089c-.009-7.978-.009-15.956 0-23.934 2.042-.01 4.075 0 6.117-.01a2.204 2.204 0 0 1 1.766.846c.37.465.57 1.035.56 1.624v7.19c.038.512 0 1.035-.133 1.538a2.25 2.25 0 0 1-1.101 1.244c.408.21.75.523.978.921a4.04 4.04 0 0 1 .275 1.928c.01 1.976 0 3.951 0 5.936-.038.903-.019 1.795-.019 2.698-.826.01-1.643 0-2.469 0-.028-3.154.01-6.307-.019-9.46a.874.874 0 0 0-.883-.807c-.864-.029-1.719-.057-2.574-.029v10.286c-.836.01-1.662 0-2.498 0v.029zm2.498-21.721c-.009 3.068-.009 6.135 0 9.213.807.009 1.615 0 2.431 0 .637 0 1.159-.513 1.159-1.16v-.018c.019-2.27.01-4.54 0-6.81a1.163 1.163 0 0 0-1.092-1.216c-.826-.018-1.662 0-2.498-.009z" fill="#0499BA"/></svg><svg fill="none" viewBox="0 0 84 150" id="train" xmlns="http://www.w3.org/2000/svg"><path fill-rule="evenodd" clip-rule="evenodd" d="M83.5 110.702c-.034 6.036-4.954 10.956-10.99 10.956H70.8l9.644 19.982c.025.051.051.11.077.161l2.775 5.756a1.693 1.693 0 0 1-.784 2.273c-.238.136-.51.17-.749.17a1.678 1.678 0 0 1-1.523-.954l-2.358-4.886H6.086l-2.358 4.886c-.264.613-.876.954-1.523.954a2 2 0 0 1-.75-.17 1.693 1.693 0 0 1-.783-2.273L13.16 121.65h-1.668c-6.036 0-10.956-4.912-10.956-10.957V87.834a1.567 1.567 0 0 1-.034-.349c0-.12.017-.238.034-.349v-38.26a1.567 1.567 0 0 1-.034-.349c0-.119.017-.238.034-.349V46.22c0-11.17 9.1-20.262 20.26-20.262h9.049v-5.866c0-.945.74-1.694 1.694-1.694h2.792l-4.01-15.001h-4.579a3.702 3.702 0 0 0-3.695 3.695v2.17c0 .946-.749 1.695-1.694 1.695-.944 0-1.694-.74-1.694-1.694V7.092C18.66 3.192 21.853 0 25.75 0h32.502c3.898 0 7.09 3.193 7.09 7.092v2.17c0 .946-.74 1.695-1.693 1.695-.945 0-1.694-.74-1.694-1.694V7.092a3.702 3.702 0 0 0-3.695-3.695h-4.614l-4.01 15h2.819c.944 0 1.694.741 1.694 1.695v5.866h9.091c11.169 0 20.26 9.1 20.26 20.262v64.482zM3.899 50.23v35.56h36.408V50.23H3.899zm76.145 0h-36.34v35.56h36.34V50.23zM50.156 3.397H33.82l4.01 14.992h8.308l4.018-14.992zm-13.62 18.39H33.25v4.17h17.528v-4.17H36.535zm26.644 7.568H20.762C11.466 29.355 3.9 36.923 3.9 46.22v.613h76.145v-.613c0-9.297-7.568-16.865-16.864-16.865zM11.67 132.58l-3.95 8.182h68.527l-3.95-8.182H11.671zm1.635-3.388h57.358l-3.643-7.535H16.94l-3.635 7.535zm54.77-10.923h4.392c4.18 0 7.568-3.397 7.568-7.568V89.188H3.89v21.514c0 4.171 3.397 7.568 7.568 7.568h56.617zM52.08 39.776H31.888c-.945 0-1.694-.75-1.694-1.695 0-.945.74-1.694 1.694-1.694H52.08c.945 0 1.694.74 1.694 1.694 0 .945-.74 1.695-1.694 1.695zm-31.045 56.06c-4.341 0-7.874 3.534-7.874 7.876 0 4.342 3.533 7.875 7.874 7.875a7.862 7.862 0 0 0 7.874-7.875c-.008-4.35-3.533-7.875-7.874-7.875zm0 12.388a4.473 4.473 0 0 1-4.478-4.478c0-2.477 2-4.478 4.478-4.478 2.443 0 4.477 2.001 4.477 4.478 0 2.469-2 4.478-4.477 4.478zm34.031-4.512c0-4.342 3.533-7.875 7.874-7.875a7.879 7.879 0 0 1 7.875 7.875 7.862 7.862 0 0 1-7.874 7.875c-4.342 0-7.875-3.533-7.875-7.875zm3.397.034a4.478 4.478 0 1 0 8.955 0c0-2.477-2-4.478-4.477-4.478a4.473 4.473 0 0 0-4.478 4.478z" fill="#0499BA"/></svg></svg>