<svg width="130" height="111" viewBox="0 0 130 111" fill="none" xmlns="http://www.w3.org/2000/svg">
<path d="M117.219 75.0731C111.09 70.9665 108.03 73.2626 104.266 70.9665C100.492 68.6805 95.0772 66.9407 91.2326 67.1734C87.388 67.406 84.7913 66.3844 77.1021 66.3844C69.4128 66.3844 64.1793 67.9623 61.3109 68.1242C58.4425 68.286 52.434 68.9941 42.1884 74.4359C31.9428 79.8777 24.2837 81.0207 24.2837 81.0207C24.2837 81.0207 38.3035 73.6065 42.7017 71.2699C47.0999 68.9435 49.2939 67.76 51.1861 65.9798C53.0681 64.2198 60.4051 60.3154 61.9349 59.3343C63.4647 58.3531 66.9973 55.0253 70.53 52.7393C74.0626 50.4534 80.5441 45.0823 82.8187 42.321C85.0933 39.5596 88.5554 36.0497 90.7495 32.9343C92.9436 29.8189 96.285 23.578 99.3043 18.0957C101.488 14.1407 101.418 9.76095 101.206 7.6267C99.7673 8.62808 98.5696 9.59911 97.4927 10.469C94.9967 12.492 93.3461 13.8272 91.454 13.2405C89.6122 12.6639 88.1629 11.4299 86.9954 10.4285C86.0997 9.6598 85.2543 8.94164 84.7108 9.01245C84.6303 9.02256 84.3888 9.06302 84.0566 9.55865C83.7547 10.0239 83.8352 11.3288 83.9157 12.7044C84.1271 16.2952 84.4391 21.7168 79.9302 25.601C73.9921 30.7191 69.8858 28.949 68.1346 28.1904C67.9635 28.1196 67.8226 28.0589 67.7019 28.0083L67.4603 27.9173C66.2727 27.4621 65.2361 27.0575 63.203 31.7812C60.7272 37.5265 54.7992 43.4336 50.5017 44.435C48.9115 44.8092 47.1905 44.698 45.5298 44.5867C42.2689 44.3844 40.2359 44.3642 39.5113 46.5692C39.2596 47.3278 39.008 48.2787 38.7464 49.28C37.5286 53.9026 35.8679 60.2244 30.7552 63.3701C28.1283 64.9885 26.3369 65.5449 25.0385 65.9495C23.3578 66.4754 22.8445 66.6373 22.4016 68.4782C21.516 72.1398 19.805 75.1743 17.5707 77.0152C16.4535 77.9357 16.1315 78.8966 15.7591 80.0092C15.5075 80.7679 15.2156 81.6276 14.6319 82.5278L13.7865 81.9816C14.2997 81.1927 14.5514 80.4341 14.803 79.6957C15.1955 78.5426 15.588 77.3389 16.9266 76.2364C18.9898 74.537 20.58 71.7049 21.4153 68.2456C21.9991 65.8483 22.9653 65.5449 24.7366 64.9885C25.9947 64.5941 27.7056 64.058 30.2318 62.5104C35.0024 59.577 36.6026 53.4777 37.7701 49.0272C38.0418 48.0157 38.2935 47.0547 38.5451 46.2658C39.5515 43.2111 42.6111 43.4033 45.5801 43.5853C47.1703 43.6865 48.8209 43.7876 50.2702 43.4538C54.306 42.5131 59.912 36.8791 62.2771 31.3766C64.5215 26.1674 66.0513 26.2787 67.8226 26.9665L68.044 27.0474C68.1849 27.098 68.346 27.1688 68.5271 27.2497C70.2381 27.9881 73.8009 29.5357 79.2659 24.8221C83.3924 21.2616 83.1106 16.3458 82.8992 12.755C82.7986 11.0051 82.718 9.73061 83.2011 8.99222C83.5836 8.39544 84.0264 8.07176 84.5498 7.99084C85.526 7.85934 86.452 8.63819 87.6295 9.63957C88.7769 10.6207 90.0852 11.7334 91.7358 12.2492C93.1146 12.6842 94.5941 11.4805 96.8385 9.6598C97.9758 8.73934 99.3748 7.61659 101.045 6.4736C101.025 6.35222 101.005 6.2713 101.005 6.2713C104.145 4.06624 102.022 3.86394 100.572 2.55911C99.1231 1.25429 97.7443 1.64877 97.7443 1.64877C95.8623 -0.242725 93.3059 0.303482 91.6553 2.16463C90.0047 4.02578 86.3513 7.17153 83.6842 6.97934C81.0171 6.77704 78.813 8.83038 78.813 8.83038C76.3372 9.10348 75.2401 9.10348 70.9225 12.1076C66.6048 15.1118 63.3037 14.9904 57.577 19.3297C51.8402 23.669 47.2911 22.7991 43.678 27.2193C40.0648 31.6396 38.8873 29.0299 27.8163 39.2966C16.7454 49.5531 8.30132 62.6216 7.67732 65.737C7.05332 68.8524 7.01307 70.1573 4.69824 74.0212C2.38341 77.8851 1.86005 82.8111 2.09154 85.1274C2.32302 87.4437 0.944188 87.0492 0.99451 88.3642C1.04483 89.6791 2.35321 89.7297 2.35321 89.7297C1.82986 90.8828 1.86006 92.1775 3.71192 92.2584C5.57385 92.3393 9.91164 94.9389 15.0244 97.7003C20.1271 100.462 49.0222 108.513 73.2876 110.253C97.5531 111.993 119.463 103.304 122.292 99.6019C125.12 95.8897 124.727 98.8938 128.179 91.9449C131.672 85.0161 123.348 79.1697 117.219 75.0731ZM48.5391 100.826C42.2891 100.826 37.2266 95.738 37.2266 89.4566C37.2266 83.1752 42.2891 78.0874 48.5391 78.0874C54.7891 78.0874 59.8516 83.1752 59.8516 89.4566C59.8415 95.738 54.7791 100.826 48.5391 100.826Z" fill="#0499BA"/>
</svg>
