<svg width="174" height="150" viewBox="0 0 174 150" fill="none" xmlns="http://www.w3.org/2000/svg">
<path fill-rule="evenodd" clip-rule="evenodd" d="M171.581 100.096L173.99 123.181C174.03 123.578 173.95 124.015 173.762 124.373C167.567 135.378 157.446 142.938 143.657 146.821C132.833 149.911 119.718 150.705 104.701 149.235C82.8831 147.1 63.1669 140.683 57.9529 138.865L51.0338 147.656C50.7265 148.053 50.2904 148.292 49.7749 148.371C42.6973 149.523 36.6506 150 31.5159 150C8.91509 150 3.3442 141.249 3.06664 140.772C2.86839 140.454 2.78909 140.097 2.78909 139.739V111.718C1.73835 108.619 -4.99232 86.7062 7.24977 66.6016C19.2242 46.8843 7.76523 2.93027 7.64628 2.49321C7.48768 1.90716 7.60663 1.27144 8.00313 0.794649C8.39964 0.31786 8.95474 0 9.57924 0H76.8661H76.9058H76.9157C77.4708 0 77.9863 0.238395 78.3729 0.63572C78.7297 1.03304 78.928 1.5893 78.8883 2.14555C78.4918 7.92663 78.5315 13.509 79.0073 18.7736V19.0418C82.7641 59.0325 110.787 74.5182 128.551 80.3391C134.079 82.1557 140.24 82.1965 146.244 82.2362L146.255 82.2363L146.262 82.2364C158.492 82.3555 171.096 82.4783 171.532 99.8278C171.552 99.9172 171.571 100.007 171.581 100.096ZM146.215 86.1996C139.94 86.1599 133.418 86.0804 127.331 84.1037C117.419 80.8556 103.273 74.2799 92.1316 61.4165C82.6452 50.4304 76.9851 36.8519 75.2306 20.9092H39.0495C41.4682 33.9017 44.2437 61.2774 31.1491 84.6004C32.4278 84.8686 33.7264 85.1368 35.0349 85.4049C52.3423 88.9312 70.1949 92.5767 75.2008 102.957C77.104 106.86 76.9752 111.43 74.8935 116.555C78.353 117.529 81.7531 118.641 85.0441 119.893C111.045 129.786 144.867 121.393 167.586 99.4603C167.121 86.9942 159.488 86.3188 146.215 86.1996ZM5.57454 80.8456C2.3232 93.6594 5.07891 105.43 6.18912 109.314C6.30877 109.311 6.43505 109.308 6.56784 109.305C8.27227 109.263 11.0496 109.195 14.6545 109.205C27.2237 109.205 49.7848 110.099 71.0177 115.502C72.9209 111.211 73.1291 107.605 71.6719 104.616C67.5185 96.0234 49.8641 92.4177 34.2518 89.2491L33.8989 89.1768C22.7288 86.8894 12.1763 84.7284 5.57454 80.8456ZM74.7448 3.96331H12.0772C12.7116 6.64526 13.7326 11.2741 14.6545 16.9459H74.8241C74.5466 12.7939 74.5069 8.43322 74.7448 3.96331ZM15.2493 20.9092C17.3408 35.9579 18.1735 56.2512 10.6498 68.6577C8.98448 71.3893 7.71567 74.1706 6.75414 76.9419C11.2644 79.9119 18.6989 81.8986 27.0849 83.7362C40.5265 60.8801 37.4337 33.2958 35.0349 20.9092H15.2493ZM57.99 134.73C59.4472 135.254 80.9282 142.969 105.127 145.312C127.53 147.487 156.93 145.351 169.975 122.942L168.052 104.417C157.456 113.953 144.173 121.194 130.265 124.998C122.881 127.055 115.535 128.048 108.418 128.048C99.7643 128.048 91.4278 126.588 83.6464 123.618C54.0175 112.344 15.5665 112.989 6.75414 113.287V139.064C8.3699 140.921 17.658 149.275 48.3574 144.606L55.663 135.339C56.1785 134.663 57.0805 134.425 57.9132 134.703C57.9202 134.705 57.9459 134.715 57.99 134.73ZM65.019 45.0966H65.2569C69.7176 44.9774 73.2366 41.2127 73.1177 36.7428C73.078 34.5675 72.166 32.5808 70.5899 31.0809C69.0138 29.5711 66.952 28.7864 64.7811 28.8658C60.3204 28.985 56.8015 32.7497 56.9204 37.2196C57.0394 41.61 60.6773 45.0966 65.019 45.0966ZM60.8756 37.0607C60.7963 34.7661 62.6103 32.859 64.91 32.7795C66.0202 32.7398 67.0809 33.1768 67.8739 33.9218C68.6669 34.6767 69.1328 35.6998 69.1823 36.8123C69.2616 39.1069 67.4476 41.014 65.1479 41.0935C62.8482 41.1829 60.9549 39.3552 60.8756 37.0607ZM67.23 52.7352C68.7268 51.1558 70.7094 50.2419 72.8802 50.2022C75.0511 50.1227 77.1129 50.9174 78.689 52.4173C80.2651 53.9172 81.1771 55.9038 81.2168 58.0792C81.3357 62.5491 77.8167 66.3137 73.356 66.4329H73.1181C71.0266 66.4329 69.0936 65.6482 67.5472 64.2178C65.9711 62.7179 65.0592 60.7313 65.0195 58.556C64.9402 56.3806 65.7233 54.3145 67.23 52.7352ZM70.2732 61.2876C71.0662 62.0425 72.1269 62.4398 73.2371 62.4398C75.5269 62.3603 77.3409 60.4631 77.2715 58.1487C77.222 57.0362 76.7561 56.0131 75.9631 55.2582C75.17 54.5529 74.1887 54.1159 73.1181 54.1159H72.9992C71.889 54.1556 70.868 54.6324 70.1146 55.427C69.3613 56.2217 68.9647 57.2845 68.9647 58.397C69.0143 59.5095 69.4802 60.5327 70.2732 61.2876ZM83.0425 82.3555C84.5888 83.7859 86.5218 84.5706 88.6134 84.5706H88.8513C91.0221 84.5309 93.0047 83.617 94.5015 82.0377C96.0082 80.4583 96.7913 78.3922 96.712 76.2169C96.6723 74.0415 95.7604 72.0549 94.1843 70.555C92.6082 69.0451 90.5463 68.3002 88.3755 68.3399C86.2046 68.3796 84.2221 69.2935 82.7253 70.8728C81.2185 72.4522 80.4751 74.5183 80.5147 76.6936C80.5445 78.8789 81.4564 80.8556 83.0425 82.3555ZM85.6098 73.6044C86.3632 72.8098 87.3842 72.333 88.4944 72.2933C89.6046 72.2535 90.6653 72.6906 91.4583 73.4455C92.2513 74.2004 92.7172 75.2235 92.7668 76.336C92.7668 77.4486 92.3702 78.5114 91.6169 79.306C90.8635 80.1007 89.8425 80.5676 88.7323 80.6172C87.6221 80.6172 86.5614 80.2199 85.7684 79.465C84.9754 78.7101 84.5095 77.6869 84.46 76.5744C84.46 75.4719 84.8565 74.3991 85.6098 73.6044ZM108.724 97.1659H108.962C111.133 97.1262 113.116 96.2123 114.612 94.6329C116.119 93.0536 116.902 90.9875 116.823 88.8121C116.783 86.6368 115.871 84.6502 114.295 83.1503C112.719 81.6404 110.657 80.8557 108.486 80.9352C106.315 80.9749 104.333 81.8888 102.836 83.4681C101.329 85.0475 100.546 87.1136 100.626 89.2889C100.745 93.6794 104.373 97.1659 108.724 97.1659ZM105.721 86.1997C106.474 85.4051 107.495 84.9382 108.605 84.8886C109.715 84.8488 110.776 85.2462 111.569 86.0309C112.362 86.7858 112.828 87.8089 112.878 88.9214C112.878 90.0339 112.481 91.0968 111.728 91.8914C110.974 92.6861 109.953 93.1628 108.843 93.2026C106.593 93.282 104.65 91.4643 104.571 89.1598C104.571 88.0572 104.967 86.9944 105.721 86.1997Z" fill="#0499BA"/>
</svg>
