<svg width="124" height="111" viewBox="0 0 124 111" fill="none" xmlns="http://www.w3.org/2000/svg">
<path d="M28.1263 53.2475L30.8679 44.2418L32.8535 46.5847L33.7917 47.6921L31.8334 54.1536L28.1263 53.2475ZM54.0029 47.8203L63.1841 16.9042L65.5067 20.5468L66.5541 22.1942L58.6573 48.8819L54.0029 47.8203ZM103.716 7.66053L121.586 43.5828L110.82 82.022L110.556 82.9555L111.048 83.7883L113.598 88.1448L75.0613 107.52L103.716 7.66053ZM67.4103 19.3204L64.0403 14.0396L44.9038 11.0651L34.575 45.1295L31.6512 41.67L14.2453 37.8261L0 84.0812L74.2051 110.476L116.768 89.0783L112.997 82.6352L124 43.354L104.636 4.43897L72.9937 0.476074L67.4103 19.3204Z" fill="#0499BA"/>
</svg>
