<svg width="135" height="150" viewBox="0 0 135 150" fill="none" xmlns="http://www.w3.org/2000/svg">
<path fill-rule="evenodd" clip-rule="evenodd" d="M135 41.622C135 41.5108 134.992 41.3997 134.966 41.2885V17.4544C134.966 14.1448 132.286 11.4852 129.026 11.4852H112.774V1.70182C112.774 0.744014 112.025 0 111.08 0C110.127 0 109.387 0.752566 109.387 1.70182V11.4852H83.7145V1.70182C83.7145 0.752566 82.9656 0 82.0126 0C81.0596 0 80.3193 0.752566 80.3193 1.70182V11.4852H54.6807V1.70182C54.6807 0.744014 53.9319 0 52.9874 0C52.0429 0 51.294 0.752566 51.294 1.70182V11.4852H25.6045V1.70182C25.6045 0.752566 24.8642 0 23.9111 0C22.9581 0 22.2178 0.752566 22.2178 1.70182V11.4852H5.93949C2.64639 11.4852 0 14.179 0 17.4544V41.5878V41.622V41.6562V144.031C0 147.34 2.68043 150 5.93949 150H129.061C132.32 150 135 147.34 134.966 144.065V41.947L134.969 41.9248C134.985 41.822 135 41.7257 135 41.622ZM5.93949 14.8974H22.2178V18.951C18.312 19.7463 15.3678 23.2184 15.3678 27.3746C15.3678 32.1123 19.197 35.9607 23.9111 35.9607C28.6253 35.9607 32.4545 32.1123 32.4545 27.3746C32.4545 23.2184 29.5102 19.7463 25.6045 18.951V14.8974H51.277V18.951C47.3713 19.7463 44.427 23.2184 44.427 27.3746C44.427 32.1123 48.2562 35.9607 52.9704 35.9607C57.6505 35.9607 61.5137 32.1123 61.5137 27.3746C61.5137 23.2184 58.5695 19.7463 54.6637 18.951V14.8974H80.3022V18.951C76.3965 19.7463 73.4523 23.2184 73.4523 27.3746C73.4523 32.1123 77.2814 35.9607 81.9956 35.9607C86.7097 35.9607 90.5389 32.1123 90.5389 27.3746C90.5389 23.2184 87.5947 19.7463 83.6889 18.951V14.8974H109.361V18.951C105.456 19.7463 102.512 23.2184 102.512 27.3746C102.512 32.1123 106.341 35.9607 111.055 35.9607C115.735 35.9607 119.598 32.1123 119.598 27.3746C119.598 23.2184 116.654 19.7463 112.748 18.951V14.8974H129.001C130.388 14.8974 131.545 16.0604 131.545 17.4544V39.9202H3.39521V17.4544C3.39521 16.0519 4.54396 14.8974 5.93949 14.8974ZM23.9111 29.1106C24.8642 29.1106 25.6045 28.3238 25.6045 27.4088V22.5171C27.6212 23.2184 29.0678 25.1425 29.0678 27.4088C29.0678 30.2737 26.7617 32.5912 23.9111 32.5912C21.0605 32.5912 18.7545 30.2737 18.7545 27.4088C18.7545 25.1425 20.2011 23.2269 22.2178 22.5171V27.4088C22.2178 28.358 22.9666 29.1106 23.9111 29.1106ZM52.9789 29.1106C53.8979 29.1106 54.6722 28.3238 54.6722 27.4088V22.5257C56.6719 23.2355 58.1355 25.1511 58.1355 27.4088C58.1355 30.2737 55.8295 32.5912 52.9789 32.5912C50.1283 32.5912 47.8223 30.2737 47.8223 27.4088C47.8223 25.1425 49.2688 23.2269 51.2855 22.5171V27.4088C51.2855 28.358 52.0344 29.1106 52.9789 29.1106ZM82.0126 29.1106C82.9656 29.1106 83.706 28.3238 83.706 27.4088V22.5171C85.7227 23.2269 87.1692 25.1682 87.1692 27.4002C87.1692 30.2309 84.8632 32.5827 82.0126 32.5827C79.162 32.5827 76.856 30.2651 76.856 27.4002C76.856 25.134 78.3026 23.2184 80.3193 22.5086V27.4002C80.3193 28.358 81.0681 29.1106 82.0126 29.1106ZM111.08 29.1106C111.999 29.1106 112.774 28.3238 112.774 27.4088V22.5257C114.773 23.2355 116.237 25.1511 116.237 27.4088C116.237 30.2737 113.931 32.5912 111.08 32.5912C108.23 32.5912 105.924 30.2737 105.924 27.4088C105.924 25.1425 107.37 23.2269 109.387 22.5171V27.4088C109.387 28.358 110.136 29.1106 111.08 29.1106ZM129.026 146.613H5.93949C4.55247 146.613 3.39521 145.45 3.39521 144.056V43.3238H131.571V144.056C131.571 145.459 130.422 146.613 129.026 146.613ZM31.2039 48.4722H15.3341C14.381 48.4722 13.6407 49.2247 13.6407 50.174V66.1233C13.6407 67.0811 14.3895 67.8251 15.3341 67.8251H31.2039C32.1569 67.8251 32.8973 67.0725 32.8973 66.1233V50.1825C32.8973 49.2247 32.1569 48.4722 31.2039 48.4722ZM29.5106 64.43H17.0274V51.8844H29.5106V64.43ZM44.8096 48.4722H60.6795C61.6325 48.4722 62.3728 49.2247 62.3728 50.174V66.1233C62.3728 67.0725 61.6325 67.8251 60.6795 67.8251H44.8096C43.8651 67.8251 43.1163 67.0811 43.1163 66.1233V50.174C43.1163 49.2247 43.8566 48.4722 44.8096 48.4722ZM46.503 64.43H58.9861V51.8844H46.503V64.43ZM90.1907 48.4722H74.3124C73.3593 48.4722 72.619 49.2247 72.619 50.174V66.1233C72.619 67.0811 73.3678 67.8251 74.3124 67.8251H90.1822C91.1352 67.8251 91.8755 67.0725 91.8755 66.1233V50.1825C91.8841 49.2247 91.1352 48.4722 90.1907 48.4722ZM88.4974 64.43H76.0142V51.8844H88.4974V64.43ZM103.796 48.4722H119.666C120.61 48.4722 121.359 49.2247 121.359 50.1825V66.1233C121.359 67.0725 120.619 67.8251 119.666 67.8251H103.796C102.851 67.8251 102.102 67.0811 102.102 66.1233V50.174C102.102 49.2247 102.843 48.4722 103.796 48.4722ZM105.481 64.43H117.964V51.8844H105.481V64.43ZM31.2039 73.0156H15.3341C14.381 73.0156 13.6407 73.7682 13.6407 74.7175V90.6667C13.6407 91.6245 14.3895 92.3685 15.3341 92.3685H31.2039C32.1569 92.3685 32.8973 91.5818 32.8973 90.6667V74.7175C32.8973 73.7682 32.1569 73.0156 31.2039 73.0156ZM29.5106 88.9649H17.0274V76.4278H29.5106V88.9649ZM44.8096 73.0156H60.6795C61.6325 73.0156 62.3728 73.7682 62.3728 74.7089V90.6667C62.3728 91.5818 61.6325 92.3685 60.6795 92.3685H44.8096C43.8651 92.3685 43.1163 91.6245 43.1163 90.6667V74.7175C43.1163 73.7682 43.8566 73.0156 44.8096 73.0156ZM46.503 88.9649H58.9861V76.4278H46.503V88.9649ZM90.1907 73.0156H74.3124C73.3593 73.0156 72.619 73.7682 72.619 74.7175V90.6667C72.619 91.6245 73.3678 92.3685 74.3124 92.3685H90.1822C91.1352 92.3685 91.8755 91.5818 91.8755 90.6667V74.7175C91.8841 73.7682 91.1352 73.0156 90.1907 73.0156ZM88.4974 88.9649H76.0142V76.4278H88.4974V88.9649ZM103.796 73.0156H119.666C120.61 73.0156 121.359 73.7682 121.359 74.7175V90.6667C121.359 91.5818 120.619 92.3685 119.666 92.3685H103.796C102.851 92.3685 102.102 91.6245 102.102 90.6667V74.7175C102.102 73.7682 102.843 73.0156 103.796 73.0156ZM105.481 88.9649H117.964V76.4278H105.481V88.9649ZM31.2039 97.5256H15.3341C14.381 97.5256 13.6407 98.2782 13.6407 99.2275V115.177C13.6407 116.135 14.3895 116.879 15.3341 116.879H31.2039C32.1569 116.879 32.8973 116.126 32.8973 115.177V99.2275C32.8973 98.2782 32.1569 97.5256 31.2039 97.5256ZM29.5106 113.475H17.0274V100.929H29.5106V113.475ZM44.8096 97.5256H60.6795C61.6325 97.5256 62.3728 98.2782 62.3728 99.2275V115.177C62.3728 116.126 61.6325 116.879 60.6795 116.879H44.8096C43.8651 116.879 43.1163 116.135 43.1163 115.177V99.2275C43.1163 98.2782 43.8566 97.5256 44.8096 97.5256ZM46.503 113.475H58.9861V100.929H46.503V113.475ZM90.1907 97.5256H74.3124C73.3593 97.5256 72.619 98.2782 72.619 99.2275V115.177C72.619 116.135 73.3678 116.879 74.3124 116.879H90.1822C91.1352 116.879 91.8755 116.126 91.8755 115.177V99.2275C91.8841 98.2782 91.1352 97.5256 90.1907 97.5256ZM88.4974 113.475H76.0142V100.929H88.4974V113.475ZM103.796 97.5256H119.666C120.61 97.5256 121.359 98.2782 121.359 99.2275V115.177C121.359 116.126 120.619 116.879 119.666 116.879H103.796C102.851 116.879 102.102 116.135 102.102 115.177V99.2275C102.102 98.2782 102.843 97.5256 103.796 97.5256ZM105.481 113.475H117.964V100.929H105.481V113.475ZM31.2039 122.07H15.3341C14.381 122.07 13.6407 122.822 13.6407 123.772V139.721C13.6407 140.679 14.3895 141.423 15.3341 141.423H31.2039C32.1569 141.423 32.8973 140.67 32.8973 139.721V123.772C32.8973 122.822 32.1569 122.07 31.2039 122.07ZM29.5106 138.019H17.0274V125.473H29.5106V138.019ZM44.8096 122.07H60.6795C61.6325 122.07 62.3728 122.822 62.3728 123.772V139.721C62.3728 140.67 61.6325 141.423 60.6795 141.423H44.8096C43.8651 141.423 43.1163 140.679 43.1163 139.721V123.772C43.1163 122.822 43.8566 122.07 44.8096 122.07ZM46.503 138.019H58.9861V125.473H46.503V138.019ZM90.1907 122.07H74.3124C73.3593 122.07 72.619 122.822 72.619 123.772V139.721C72.619 140.679 73.3678 141.423 74.3124 141.423H90.1822C91.1352 141.423 91.8755 140.67 91.8755 139.721V123.772C91.8841 122.822 91.1352 122.07 90.1907 122.07ZM88.4974 138.019H76.0142V125.473H88.4974V138.019ZM103.796 122.07H119.666C120.61 122.07 121.359 122.822 121.359 123.772V139.721C121.359 140.67 120.619 141.423 119.666 141.423H103.796C102.851 141.423 102.102 140.679 102.102 139.721V123.772C102.102 122.822 102.843 122.07 103.796 122.07ZM105.481 138.019H117.964V125.473H105.481V138.019Z" fill="#0499BA"/>
</svg>
