<svg width="190" height="190" viewBox="0 0 190 190" fill="none" xmlns="http://www.w3.org/2000/svg">
<path fill-rule="evenodd" clip-rule="evenodd" d="M145.665 99.9898H153.784C173.772 99.9898 190.01 116.408 190 136.62V179.904C190 181.133 189.045 182.089 187.84 182.089H163.407H163.368H137.334H136.987H116.912H116.613H94.677C93.7224 186.595 89.7594 190 85.0058 190H12.7759C7.33773 190 2.93124 185.542 2.93124 180.04V150.121H2.15986C0.95458 150.121 0 149.155 0 147.936V126.231C0 121.734 3.62547 118.066 8.07054 118.066H31.0383V112.389C31.0383 108.945 32.3786 105.706 34.7988 103.219C37.219 100.77 40.4588 99.4143 43.8239 99.4143H53.8807C57.2941 99.4143 60.4857 100.77 62.9058 103.219C65.326 105.658 66.6663 108.896 66.6663 112.389V118.066H68.9419C75.489 106.887 87.3007 99.9801 100.125 99.9801H108.282V88.2545C101.542 82.2063 96.6247 72.3829 96.1715 58.4332C87.9371 46.61 87.4549 33.5382 94.7734 21.5784C103.538 7.24822 121.926 -2.05814 136.65 0.390392C146.967 2.13655 154.131 9.25777 156.898 20.5249C163.243 25.5975 165.528 33.8113 163.416 44.3761C162.115 50.9705 159.531 56.5309 158.605 58.3454C158.171 72.939 152.839 83.016 145.665 89.0056V99.9898ZM136.056 122.923C136.062 122.926 136.067 122.93 136.071 122.934L146.562 127.285L151.142 104.35H144.45L130.536 120.641L135.83 122.836C135.897 122.856 135.965 122.885 136.032 122.914C136.038 122.914 136.047 122.918 136.056 122.923ZM123.295 120.622L109.401 104.35H102.757L107.328 127.236L123.295 120.622ZM128.704 136.503H125.243L119.419 177.738H134.519L128.704 136.503ZM124.722 132.182H129.254L132.166 126.026L126.892 123.841L121.781 125.968L124.722 132.182ZM131.674 4.38022C119.419 4.38022 105.553 12.3209 98.476 23.9002C92.7389 33.2845 92.5653 43.5079 97.8878 53.0288C99.4884 48.6586 101.725 41.0106 101.6 33.0212C101.6 32.5919 101.735 32.153 101.947 31.8018C105.226 26.7389 110.538 28.7484 116.15 30.8848C123.748 33.8113 134.191 37.7816 147.275 29.441C147.921 29.0118 148.779 29.0118 149.474 29.402C150.207 29.7922 155.818 33.4601 157.891 48.7073C160.35 40.9325 161.989 29.6166 153.745 23.6368C153.311 23.3344 153.003 22.8466 152.877 22.3686C150.023 9.7065 142.078 5.82398 135.907 4.77043C134.567 4.50704 133.14 4.38022 131.674 4.38022ZM105.901 33.7235C105.901 45.3321 101.552 55.731 100.482 58.1503C100.848 70.8611 105.264 79.7285 111.271 85.0938C111.676 85.2597 112.023 85.5523 112.255 85.923C116.835 89.6104 122.196 91.3858 127.364 91.3858H127.403C132.282 91.3858 137.353 89.786 141.76 86.4986C141.991 86.1766 142.31 85.923 142.686 85.7767C149.136 80.4797 153.957 71.3391 154.285 57.9357C153.803 42.1617 149.927 36.0257 148.162 34.0259C133.911 42.3763 122.341 37.9572 114.617 34.9917C109.14 32.8943 107.106 32.4163 105.901 33.7235ZM141.345 92.0004C136.92 94.5172 132.089 95.7464 127.403 95.7464C122.398 95.7366 117.249 94.3416 112.592 91.4834V101.336L126.969 118.154L141.345 101.336V92.0004ZM103.615 130.738L98.3603 104.409C88.6313 104.955 79.7026 110.018 74.0908 118.076H89.663C94.1081 118.076 97.7336 121.744 97.7336 126.241V147.936C97.7818 149.155 96.7886 150.121 95.6219 150.121H94.8891V177.728H115.032L121.106 134.64L117.77 127.636L106.556 132.308C106.296 132.445 106.036 132.484 105.737 132.484C105.389 132.484 105.042 132.396 104.695 132.221C104.136 131.918 103.741 131.352 103.615 130.738ZM37.865 106.321C36.2644 107.93 35.358 110.077 35.358 112.389V118.066H40.3238V112.389C40.3238 111.433 40.7191 110.516 41.3651 109.813C42.0497 109.111 42.9561 108.76 43.9107 108.76H53.8807C54.8257 108.76 55.732 109.16 56.4263 109.813C57.1205 110.506 57.4676 111.423 57.4676 112.389V118.066H62.337V112.389C62.337 110.116 61.4306 107.94 59.83 106.321C58.239 104.702 56.1177 103.785 53.8325 103.785H43.8625C41.6158 103.785 39.4656 104.663 37.865 106.321ZM44.6435 118.066H53.1479V113.13H44.6435V118.066ZM8.11875 122.436C6.04567 122.436 4.35828 124.143 4.35828 126.241V145.761H36.6983V142.873C36.6983 141.654 37.6529 140.688 38.8582 140.688H38.8871H38.8967H58.9718C60.1771 140.688 61.1317 141.654 61.1317 142.873L61.0931 145.624V145.761H93.4717V126.241C93.4717 124.143 91.7843 122.436 89.7112 122.436H8.11875ZM51.3352 185.688V155.243H46.5044V185.688H51.3352ZM53.4854 150.833C53.6397 150.833 53.7843 150.843 53.9289 150.872H56.7541V145.058H40.9987V147.946V150.872H43.8817L43.8821 150.872C44.0266 150.853 44.1711 150.833 44.3253 150.833C44.4796 150.833 44.6242 150.843 44.7688 150.872H53.0419L53.0422 150.872C53.1867 150.853 53.3312 150.833 53.4854 150.833ZM7.25095 150.131V180.089C7.25095 183.191 9.75793 185.679 12.7759 185.688H42.1847V155.243H38.8582C37.6529 155.243 36.6983 154.277 36.6983 153.058V150.131H7.25095ZM55.6549 185.679H85.0058C88.0046 185.679 90.4537 183.259 90.5694 180.284C90.5405 180.157 90.5308 180.03 90.5308 179.904C90.5308 179.747 90.5501 179.601 90.579 179.455V150.121H61.0931V153.048C61.0931 154.228 60.1385 155.233 58.9333 155.233H55.6549V185.679ZM165.528 177.728H185.642V136.62C185.642 119.422 172.287 105.355 155.548 104.399L150.284 130.777C150.149 131.43 149.763 131.957 149.204 132.26C148.857 132.386 148.509 132.474 148.162 132.474C147.902 132.474 147.603 132.426 147.343 132.299L136.196 127.685L132.86 134.767L138.925 177.728H161.208V144.493C161.208 143.273 162.163 142.307 163.368 142.307C164.573 142.307 165.528 143.273 165.528 144.493V177.728ZM41.9645 131.567C41.9645 132.787 40.9714 133.752 39.7661 133.752H18.7846C17.5793 133.752 16.6248 132.787 16.6248 131.567C16.6248 130.348 17.5793 129.382 18.7846 129.382H39.8047C41.0099 129.382 41.9645 130.348 41.9645 131.567ZM19.9024 159.779C18.6971 159.779 17.7425 160.745 17.7425 161.964V174.197C17.7425 175.416 18.6971 176.382 19.9024 176.382C21.0691 176.382 22.0622 175.377 22.0622 174.197V161.964C22.0622 160.745 21.1173 159.779 19.9024 159.779ZM29.5732 159.779C28.3679 159.779 27.4134 160.745 27.4134 161.964V174.197C27.4134 175.416 28.3679 176.382 29.5732 176.382C30.7399 176.382 31.7331 175.377 31.7331 174.197V161.964C31.7331 160.745 30.7785 159.779 29.5732 159.779ZM66.0968 161.964C66.0968 160.745 67.0514 159.779 68.2567 159.779C69.462 159.779 70.4166 160.745 70.4166 161.964V174.197C70.4166 175.377 69.4234 176.382 68.2567 176.382C67.0514 176.382 66.0968 175.416 66.0968 174.197V161.964ZM77.8889 159.779C76.6836 159.779 75.729 160.745 75.729 161.964V174.197C75.729 175.416 76.6836 176.382 77.8889 176.382C79.0942 176.382 80.0488 175.377 80.0488 174.197V161.964C80.0391 160.745 79.0942 159.779 77.8889 159.779ZM57.9806 133.752H79.0102C80.2155 133.752 81.1219 132.787 81.1219 131.567C81.1219 130.348 80.1673 129.382 78.962 129.382H57.9806C56.7753 129.382 55.8207 130.348 55.8207 131.567C55.8207 132.787 56.7753 133.752 57.9806 133.752Z" fill="#0499BA"/>
</svg>
