<svg width="105" height="105" viewBox="0 0 105 105" fill="none" xmlns="http://www.w3.org/2000/svg">
<path id="Union" fill-rule="evenodd" clip-rule="evenodd" d="M64.9164 4.1387H60.4157C59.4529 4.1387 58.6659 3.35405 58.6666 2.38441C58.6666 1.41552 59.4493 0.630859 60.4157 0.630859L64.9164 0.631593C65.8784 0.631593 66.6655 1.41626 66.6655 2.38515C66.6655 3.35404 65.8828 4.1387 64.9164 4.1387ZM71.1684 4.13894H79.644C84.7346 4.13894 88.872 8.28681 88.872 13.3904C88.872 14.3593 89.6591 15.1439 90.6212 15.1439C91.5832 15.1439 92.3703 14.3593 92.3703 13.3904C92.3703 6.35776 86.6586 0.631836 79.6395 0.631836H71.1639C70.1975 0.631836 69.4148 1.4165 69.4148 2.38539C69.4148 3.35428 70.2064 4.13894 71.1684 4.13894ZM102.881 60.8257H97.904L94.1868 23.9826H94.7206C95.687 23.9826 96.4697 23.198 96.4697 22.2291V17.5072C96.4697 16.5383 95.6826 15.7536 94.7206 15.7536H79.8942C78.9278 15.7536 78.1451 16.5383 78.1451 17.5072V22.2291C78.1451 23.198 78.9322 23.9826 79.8942 23.9826H80.5854L76.8725 60.8257H73.6277L73.627 51.1843C73.627 50.509 73.2374 49.891 72.6254 49.6018C72.0089 49.3126 71.2914 49.3999 70.7664 49.8257L56.2594 61.6992L56.2602 51.1844C56.2602 50.5091 55.8707 49.8911 55.2586 49.6019C54.6421 49.3127 53.9246 49.4 53.3996 49.8258L38.8977 61.694V51.1843C38.8977 50.509 38.5082 49.891 37.9005 49.6018C37.2928 49.317 36.5709 49.3955 36.0459 49.8257L21.4914 61.6984V51.1844C21.4914 50.5091 21.1019 49.8911 20.4898 49.6019C19.8821 49.3127 19.1558 49.4 18.6352 49.8258L1.27272 64.0363C0.866366 64.3644 0.629883 64.8642 0.629883 65.3898V102.877C0.629883 103.846 1.41257 104.631 2.37901 104.631H102.881C103.847 104.631 104.63 103.842 104.63 102.877V62.5843C104.635 61.6154 103.848 60.8263 102.881 60.8263L102.881 60.8257ZM81.647 19.2605H92.9698V20.4753H81.647V19.2605ZM84.1005 23.9868H90.6695L94.3823 60.826H80.3914L84.1005 23.9868ZM91.0413 101.123H83.5674V87.7541H91.0413V101.123ZM94.5439 101.123H101.127V64.3367H71.8719C70.9099 64.3367 70.1228 63.552 70.1228 62.5831V54.8797L55.6172 66.7332C55.0922 67.1634 54.3659 67.2507 53.7582 66.9615C53.1461 66.6723 52.7566 66.0543 52.7566 65.379V54.8693L38.254 66.7383C37.7334 67.1684 37.0115 67.2602 36.3994 66.9666C35.7873 66.6774 35.3978 66.0593 35.3978 65.384V54.87L20.8432 66.7479C20.3183 67.1736 19.5964 67.2653 18.9887 66.9717C18.381 66.6825 17.9915 66.0645 17.9915 65.3892V54.8795L4.12798 66.2222V101.118H80.0684V85.9963C80.0684 85.0318 80.8511 84.2427 81.8176 84.2427H92.7948C93.7568 84.2427 94.5439 85.0274 94.5439 85.9963V101.123ZM84.3785 80.3251H90.2388C91.2053 80.3251 91.988 79.536 91.988 78.5715V72.6964C91.988 71.7275 91.2009 70.9429 90.2388 70.9429H84.3785C83.4121 70.9429 82.6294 71.7319 82.6294 72.6964V78.5715C82.625 79.5397 83.4121 80.3251 84.3785 80.3251ZM86.1284 74.4537H88.4859V76.8172H86.1284V74.4537ZM53.3983 76.939H59.5345C60.501 76.939 61.2836 77.728 61.2836 78.6925V84.8399C61.2836 85.8044 60.501 86.5935 59.5345 86.5935H53.3983C52.4319 86.5935 51.6492 85.8088 51.6492 84.8399V78.6925C51.6492 77.728 52.4319 76.939 53.3983 76.939ZM55.1482 83.0864H57.7854V80.4468H55.1482V83.0864ZM40.0428 76.939H33.9066C32.9402 76.939 32.1575 77.728 32.1575 78.6925V84.8399C32.1575 85.8088 32.9402 86.5935 33.9066 86.5935H40.0428C41.0093 86.5935 41.792 85.8044 41.792 84.8399V78.6925C41.792 77.728 41.0093 76.939 40.0428 76.939ZM38.293 83.0864H35.6558V80.4468H38.293V83.0864ZM14.415 76.939H20.5511C21.5176 76.939 22.3003 77.728 22.3003 78.6925V84.8399C22.3003 85.8044 21.5176 86.5935 20.5511 86.5935H14.415C13.4485 86.5935 12.6658 85.8088 12.6658 84.8399V78.6925C12.6658 77.728 13.4485 76.939 14.415 76.939ZM16.1641 83.0864H18.8013V80.4468H16.1641V83.0864ZM60.4157 9.39993H70.7107C71.6771 9.39993 72.4598 8.61527 72.4598 7.64638C72.4598 6.67749 71.6727 5.89282 70.7107 5.89282L60.4157 5.89209C59.4493 5.89209 58.6666 6.67675 58.6666 7.64564C58.6659 8.61528 59.4529 9.39993 60.4157 9.39993ZM75.7558 5.89209H79.211C83.3572 5.89209 86.7376 9.25526 86.7325 13.3892C86.7325 14.3581 85.9454 15.1428 84.9833 15.1428C84.0213 15.1428 83.2342 14.3581 83.2342 13.3892C83.2342 11.188 81.4324 9.3992 79.211 9.3992H75.7558C74.7937 9.3992 74.0067 8.61453 74.0067 7.64564C74.0067 6.67675 74.7894 5.89209 75.7558 5.89209Z" fill="#0499BA"/>
</svg>
