<svg width="134" height="190" viewBox="0 0 134 190" fill="none" xmlns="http://www.w3.org/2000/svg">
<path fill-rule="evenodd" clip-rule="evenodd" d="M132.616 24.6966L67.7546 0.130099C67.2836 -0.0434478 66.7164 -0.0434478 66.2454 0.130099L1.3747 24.6966C0.557572 25.0437 0 25.8247 0 26.731C0 27.6373 0.557572 28.4568 1.3747 28.7557L20.188 35.8808V69.115V69.1246V69.1343V72.1521C20.188 77.0307 24.1486 81.003 29.013 81.003H104.987C109.851 81.003 113.812 77.0307 113.812 72.1521V69.1343V69.1246V69.115V35.8808L132.625 28.7557C133.442 28.4086 134 27.6373 134 26.731C134 25.815 133.481 24.9955 132.616 24.6966ZM104.977 76.6739H29.013C26.5135 76.6739 24.4947 74.6492 24.4947 72.1424V71.2747H109.505V72.1424C109.496 74.6396 107.477 76.6739 104.977 76.6739ZM109.496 66.9553H98.3923V52.8402C98.3923 51.635 97.4406 50.6805 96.2389 50.6805C95.0372 50.6805 94.0855 51.635 94.0855 52.8402V66.9553H39.8953V52.8402C39.8953 51.635 38.9435 50.6805 37.7419 50.6805C36.5402 50.6805 35.5885 51.635 35.5885 52.8402V66.9553H24.4851V37.5102L66.2357 53.3222C66.4953 53.409 66.7549 53.4476 67.0144 53.4476C67.274 53.4476 67.5335 53.409 67.745 53.3222L109.496 37.5102V66.9553ZM110.812 32.3727C110.805 32.3755 110.799 32.3782 110.793 32.3809L66.976 48.9643L23.3219 32.4388C23.1873 32.3713 23.0431 32.3134 22.8989 32.2748L8.21938 26.731L67.024 4.45913L125.733 26.731L110.861 32.352C110.854 32.3556 110.845 32.3592 110.836 32.3629L110.812 32.3727ZM118.668 88.0315H77.6482C73.8605 88.0315 70.2459 89.0631 67.0158 90.9625C63.7858 89.0246 60.1712 88.0315 56.3835 88.0315H15.3635C14.1618 88.0315 13.2101 88.986 13.2101 90.1912V181.149C13.2101 182.354 14.1618 183.309 15.3635 183.309H58.4504C59.4405 187.146 62.8821 190 67.0158 190C71.1015 190 74.5911 187.146 75.5332 183.261H118.659C119.86 183.261 120.812 182.306 120.812 181.101V90.1815C120.822 88.9764 119.87 88.0315 118.668 88.0315ZM116.515 178.98H73.6875C72.4858 178.98 71.5341 179.934 71.5341 181.139C71.5341 183.646 69.5153 185.671 67.0158 185.671C64.5164 185.671 62.4976 183.646 62.4976 181.139C62.4976 179.934 61.5459 178.98 60.3442 178.98H17.5169L17.5553 92.3412H56.4316C59.7866 92.3412 63.0648 93.3343 65.8142 95.2723C66.5448 95.7929 67.535 95.7929 68.2656 95.2723C71.0246 93.3729 74.2931 92.3412 77.6482 92.3412H116.515V178.98ZM56.3804 96.1017C60.8026 96.1017 64.696 98.3482 66.9935 101.771C69.2911 98.3482 73.1845 96.1017 77.6066 96.092H110.609C111.811 96.092 112.763 97.0465 112.763 98.2517V173.07C112.763 174.275 111.811 175.229 110.609 175.229H67.032H67.0128H23.3683C22.1667 175.229 21.2149 174.275 21.2149 173.07V98.2614C21.2149 97.0562 22.1667 96.1017 23.3683 96.1017H56.3804ZM25.4832 100.411L25.5217 170.91H64.8209V108.973V108.915V108.857C64.7921 104.22 61.0141 100.411 56.342 100.411H25.4832ZM108.465 170.91V100.411H77.597C73.1653 100.411 69.4738 103.873 69.1469 108.279C69.1565 108.491 69.1661 108.703 69.1661 108.915V170.91H108.465ZM56.1718 105.637H34.1766C32.9749 105.637 32.0232 106.591 32.0232 107.797C32.0232 109.002 32.9749 109.956 34.1766 109.956H56.1718C57.3735 109.956 58.3252 109.002 58.3252 107.797C58.3252 106.591 57.3735 105.637 56.1718 105.637ZM34.1766 116.773H56.1718C57.3735 116.773 58.3252 117.727 58.3252 118.933C58.3252 120.138 57.3735 121.092 56.1718 121.092H34.1766C32.9749 121.092 32.0232 120.138 32.0232 118.933C32.0232 117.727 32.9749 116.773 34.1766 116.773ZM56.1718 127.919H34.1766C32.9749 127.919 32.0232 128.873 32.0232 130.078C32.0232 131.284 32.9749 132.238 34.1766 132.238H56.1718C57.3735 132.238 58.3252 131.284 58.3252 130.078C58.3252 128.873 57.3735 127.919 56.1718 127.919ZM34.1766 139.093H56.1718C57.3735 139.093 58.3252 140.047 58.3252 141.252C58.3252 142.467 57.3735 143.412 56.1718 143.412H34.1766C32.9749 143.412 32.0232 142.458 32.0232 141.252C32.0232 140.047 32.9749 139.093 34.1766 139.093ZM56.1718 150.239H34.1766C32.9749 150.239 32.0232 151.193 32.0232 152.398C32.0232 153.603 32.9749 154.558 34.1766 154.558H56.1718C57.3735 154.558 58.3252 153.603 58.3252 152.398C58.3252 151.183 57.3735 150.239 56.1718 150.239ZM34.1766 161.413H56.1718C57.3735 161.413 58.3252 162.368 58.3252 163.573C58.3252 164.778 57.3735 165.733 56.1718 165.733H34.1766C32.9749 165.733 32.0232 164.778 32.0232 163.573C32.0232 162.368 32.9749 161.413 34.1766 161.413ZM77.819 109.956H99.8143C100.977 109.956 101.968 109.002 101.968 107.797C101.968 106.591 101.016 105.637 99.8143 105.637H77.819C76.6173 105.637 75.6656 106.591 75.6656 107.797C75.6656 109.002 76.6173 109.956 77.819 109.956ZM99.8143 121.092H77.819C76.6173 121.092 75.6656 120.147 75.6656 118.933C75.6656 117.727 76.6173 116.773 77.819 116.773H99.8143C101.016 116.773 101.968 117.727 101.968 118.933C101.968 120.138 100.977 121.092 99.8143 121.092ZM77.819 132.238H99.8143C100.977 132.238 101.968 131.284 101.968 130.078C101.968 128.873 101.016 127.919 99.8143 127.919H77.819C76.6173 127.919 75.6656 128.873 75.6656 130.078C75.6656 131.284 76.6173 132.238 77.819 132.238ZM99.8143 143.412H77.819C76.6173 143.412 75.6656 142.458 75.6656 141.252C75.6656 140.047 76.6173 139.093 77.819 139.093H99.8143C101.016 139.093 101.968 140.047 101.968 141.252C101.968 142.467 100.977 143.412 99.8143 143.412ZM77.819 154.558H99.8143C100.977 154.558 101.968 153.603 101.968 152.398C101.968 151.193 101.016 150.239 99.8143 150.239H77.819C76.6173 150.239 75.6656 151.193 75.6656 152.398C75.6656 153.603 76.6173 154.558 77.819 154.558ZM99.8143 165.733H77.819C76.6173 165.733 75.6656 164.778 75.6656 163.573C75.6656 162.368 76.6173 161.413 77.819 161.413H99.8143C101.016 161.413 101.968 162.368 101.968 163.573C101.968 164.778 100.977 165.733 99.8143 165.733Z" fill="#0499BA"/>
</svg>
