<svg width="218" height="190" viewBox="0 0 218 190" fill="none" xmlns="http://www.w3.org/2000/svg">
<path fill-rule="evenodd" clip-rule="evenodd" d="M38.859 0H167.835C169.207 0 170.315 1.11133 170.315 2.48787V187.512C170.315 188.889 169.207 190 167.835 190H20.6694C9.27733 190 0 180.705 0 169.264C0 167.887 1.10774 166.776 2.47983 166.776H36.3792V2.48787C36.3792 1.11133 37.4869 0 38.859 0ZM20.682 185.037C28.4991 185.024 34.9945 179.266 36.1904 171.751H5.14848C6.33174 179.266 12.8397 185.024 20.6694 185.037H20.682ZM34.0756 185.024H165.355V4.97574H41.3389V169.264V169.352C41.3137 175.616 38.494 181.236 34.0756 185.024ZM152.237 24.6134H54.4541C53.082 24.6134 51.9743 23.5021 51.9743 22.1256C51.9743 20.749 53.082 19.6377 54.4541 19.6377H152.237C153.609 19.6377 154.717 20.749 154.717 22.1256C154.717 23.5021 153.609 24.6134 152.237 24.6134ZM54.4541 42.8241H152.237C153.609 42.8241 154.717 41.7128 154.717 40.3363C154.717 38.9597 153.609 37.8484 152.237 37.8484H54.4541C53.082 37.8484 51.9743 38.9597 51.9743 40.3363C51.9743 41.7128 53.082 42.8241 54.4541 42.8241ZM152.237 61.0473H54.4541C53.082 61.0473 51.9743 59.9359 51.9743 58.5594C51.9743 57.1829 53.082 56.0715 54.4541 56.0715H152.237C153.609 56.0715 154.717 57.1829 154.717 58.5594C154.717 59.9359 153.609 61.0473 152.237 61.0473ZM54.4541 79.2709H152.237C153.609 79.2709 154.717 78.1596 154.717 76.783C154.717 75.4065 153.609 74.2952 152.237 74.2952H54.4541C53.082 74.2952 51.9743 75.4065 51.9743 76.783C51.9743 78.1469 53.082 79.2709 54.4541 79.2709ZM152.237 97.4816H54.4541C53.082 97.4816 51.9743 96.3703 51.9743 94.9937C51.9743 93.6172 53.082 92.5059 54.4541 92.5059H152.237C153.609 92.5059 154.717 93.6172 154.717 94.9937C154.717 96.3703 153.609 97.4816 152.237 97.4816ZM54.4541 115.705H152.237C153.609 115.705 154.717 114.593 154.717 113.217C154.717 111.84 153.609 110.729 152.237 110.729H54.4541C53.082 110.729 51.9743 111.84 51.9743 113.217C51.9743 114.593 53.082 115.705 54.4541 115.705ZM152.237 133.928H54.4541C53.082 133.928 51.9743 132.804 51.9743 131.441C51.9743 130.064 53.082 128.953 54.4541 128.953H152.237C153.609 128.953 154.717 130.064 154.717 131.441C154.717 132.817 153.609 133.928 152.237 133.928ZM128.319 158.908L127.602 158.428C125.185 156.812 122.277 156.597 119.646 157.86C117.355 158.958 115.706 161.143 115.203 163.694L112.459 162.368C110.231 161.282 107.562 161.333 105.334 162.507C103.811 163.303 102.816 164.49 101.948 165.538L101.918 165.574C101.276 166.341 100.729 166.996 100.085 167.344C99.5686 167.622 99.0525 167.622 98.8888 167.508C98.7503 167.42 98.5615 167.117 98.4356 166.662C98.3098 166.195 98.2342 165.639 98.1713 165.046L98.1712 165.045C98.1461 164.805 98.1209 164.565 98.0832 164.326C97.7937 162.267 96.8873 160.057 95.3768 157.746C93.7277 155.246 91.7389 153.174 89.8381 151.318L89.7625 151.242L89.762 151.242C88.3018 149.815 85.8473 147.416 82.1972 148.742C79.6544 149.664 77.7914 152.227 77.2123 155.587C76.8929 157.399 76.7533 159.271 76.618 161.086L76.618 161.086L76.6081 161.219L76.5452 161.989C76.369 164.313 76.5829 166.7 76.8221 168.733C76.9858 170.097 78.2068 171.069 79.5663 170.918C80.9258 170.754 81.8951 169.529 81.744 168.165C81.53 166.359 81.3538 164.263 81.4922 162.368L81.5552 161.585C81.6811 159.855 81.8195 158.062 82.0965 156.433C82.3608 154.892 83.0658 153.717 83.8966 153.414C84.4756 153.2 84.7903 153.313 86.3134 154.804L86.389 154.879C88.0883 156.546 89.8507 158.378 91.2353 160.487C92.3179 162.141 92.9851 163.707 93.1613 165.008C93.1739 165.115 93.1865 165.219 93.1991 165.323C93.2063 165.383 93.2136 165.443 93.2208 165.504C93.2262 165.549 93.2315 165.594 93.2368 165.639C93.3249 166.359 93.4256 167.18 93.6648 168.026C94.118 169.617 94.9614 170.855 96.1321 171.638C97.0384 172.244 98.1209 172.56 99.2287 172.56C100.311 172.56 101.432 172.269 102.464 171.688C103.893 170.897 104.84 169.779 105.683 168.784L105.683 168.784L105.737 168.72L105.765 168.687C106.42 167.906 106.98 167.238 107.625 166.902C108.468 166.46 109.463 166.435 110.306 166.839L113.705 168.493C114.989 169.125 116.512 169.074 117.771 168.38C119.03 167.672 119.86 166.409 120.011 164.97C120.125 163.821 120.804 162.81 121.774 162.356C122.819 161.85 123.889 161.926 124.845 162.57L125.563 163.05C126.708 163.808 128.244 163.505 128.999 162.368C129.767 161.206 129.465 159.666 128.319 158.908ZM208.509 20.2187H215.533C216.905 20.2187 218.013 21.33 218 22.7065V69.4078C218 70.7843 216.893 71.8956 215.521 71.8956C214.149 71.8956 213.041 70.7843 213.041 69.4078V25.1818H208.497V45.7036V45.7288V58.1682V58.2061V58.2439V148.881V148.919V148.956V161.408C208.497 161.775 208.408 162.141 208.257 162.457L197.167 188.472C196.79 189.381 195.896 189.975 194.902 189.975C193.907 189.975 193.013 189.381 192.623 188.472L181.508 162.381C181.369 162.04 181.307 161.686 181.319 161.333V45.7793V45.7162V13.6391C181.319 6.12496 187.412 0 194.914 0C202.417 0 208.509 6.11233 208.509 13.6391V20.2187ZM186.266 55.7308H203.549V48.2041H186.266V55.7308ZM203.549 60.6939H186.266V146.418H203.549V60.6939ZM203.549 151.394H186.266V158.921H203.549V151.394ZM203.562 13.6517C203.562 8.8654 199.685 4.97574 194.914 4.97574C190.143 4.97574 186.266 8.8654 186.279 13.6391V43.2409H203.562V13.6517ZM187.55 163.884L194.914 181.173L202.291 163.884H187.55Z" fill="#0499BA"/>
</svg>
