<svg width="56" height="131" viewBox="0 0 56 131" fill="none" xmlns="http://www.w3.org/2000/svg">
<path d="M0 121.111C0.127451 121.052 0.245098 120.992 0.372549 120.933C0.588235 120.933 0.803922 120.893 1.0098 121.012C1.33333 120.992 1.63725 121.151 1.96078 121.121C2.03922 121.111 2.11765 121.121 2.18627 121.151C2.31373 121.221 2.45098 121.201 2.58824 121.211C2.72549 121.221 2.86275 121.211 2.9902 121.27C3.06863 121.31 3.16667 121.3 3.26471 121.3C3.53922 121.32 3.80392 121.3 4.07843 121.379C4.29412 121.439 4.53922 121.389 4.76471 121.399C4.94118 121.409 5.12745 121.379 5.30392 121.459C5.38235 121.499 5.48039 121.479 5.57843 121.479C5.84314 121.489 6.09804 121.489 6.36274 121.489C6.5 121.489 6.63726 121.489 6.76471 121.538C6.87255 121.578 7.0098 121.568 7.12745 121.568C7.83333 121.578 8.53922 121.578 9.2451 121.578C9.44118 121.578 9.64706 121.548 9.83333 121.648C9.88235 121.677 9.95098 121.658 10.0196 121.658C10.9216 121.658 11.8235 121.658 12.7157 121.658C12.8627 121.588 12.9314 121.499 12.8824 121.32C12.7157 121.151 12.5392 120.962 12.3529 120.784C11.8529 120.297 11.451 119.741 11.0686 119.165C10.7745 118.708 10.5588 118.221 10.402 117.705C10.3137 117.407 10.2353 117.119 10.2353 116.801C10.2353 116.712 10.2353 116.612 10.2353 116.523C10.2353 116.305 10.2745 116.076 10.2059 115.878C10.1471 115.679 10.1863 115.47 10.0784 115.292C10.049 115.242 10.049 115.172 10.0588 115.113C10.1667 114.586 10.2451 114.05 10.5882 113.613C10.8235 113.305 11.0098 112.968 11.1569 112.61C11.2843 112.302 11.402 111.975 11.4902 111.657C11.598 111.279 11.7843 110.942 12 110.634C12.2059 110.346 12.4804 110.127 12.8235 110.008C13.0686 109.919 13.3137 109.879 13.5686 109.819C13.8627 109.76 14.1471 109.75 14.4314 109.75C15.2157 109.77 15.9706 109.601 16.7059 109.343C17.451 109.085 18.1078 108.667 18.6275 108.062C18.7647 107.903 18.8824 107.714 18.9902 107.525C19.1961 107.168 19.3627 106.781 19.4608 106.373C19.5098 106.185 19.5784 105.986 19.5882 105.787C19.5882 105.489 19.6765 105.211 19.7059 104.923C19.7451 104.606 19.8039 104.288 19.8922 103.98C19.9804 103.692 19.9804 103.404 19.9608 103.116C19.8824 102.967 19.7647 102.878 19.6176 102.808C19.1961 102.59 18.7843 102.361 18.3725 102.123C17.7059 101.725 17.0196 101.358 16.3627 100.941C15.9706 100.703 15.5686 100.484 15.1863 100.236C14.7843 99.9776 14.3824 99.7392 13.9804 99.481C13.2941 99.0341 12.598 98.5773 11.9216 98.1105C11.4804 97.8126 11.0392 97.5047 10.6275 97.167C10.3333 96.9287 10.0196 96.7102 9.70588 96.4818C9.48039 96.3129 9.32353 96.0746 9.06863 95.9554C8.54902 95.4092 7.92157 94.9722 7.44118 94.3863C7.03922 93.8996 6.64706 93.4229 6.33333 92.8668C6.11765 92.4894 5.95098 92.1021 5.85294 91.685C5.82353 91.5856 5.80392 91.4764 5.80392 91.3672C5.79412 91.1685 5.80392 90.96 5.79412 90.7613C5.77451 90.2846 5.89216 89.8477 6.11765 89.4306C6.32353 89.0532 6.56863 88.6857 6.88235 88.3977C7.2549 88.0501 7.64706 87.7323 8.08824 87.484C8.63725 87.1762 9.19608 86.8981 9.79412 86.7094C10 86.6399 10.1863 86.5306 10.3824 86.471C10.7157 86.3618 11.049 86.2724 11.3824 86.1731C11.4118 86.1632 11.4412 86.1731 11.4706 86.1632C12 85.9645 12.5588 85.8752 13.098 85.7461C13.5098 85.6467 13.9216 85.5375 14.3529 85.5176C14.6078 85.3985 14.8922 85.4382 15.1569 85.3587C15.4314 85.2793 15.7255 85.2892 16.0098 85.2296C16.3235 85.17 16.6373 85.1601 16.951 85.0807C17.0196 85.0608 17.098 85.0509 17.1765 85.0509C17.3725 85.0409 17.5686 85.0509 17.7647 84.9714C17.8431 84.9416 17.951 84.9615 18.0392 84.9516C18.1765 84.9416 18.3137 84.9515 18.4412 84.892C18.5098 84.8622 18.5882 84.8622 18.6667 84.8622C18.8922 84.8522 19.1275 84.8721 19.3431 84.7827C19.4216 84.7529 19.5294 84.7728 19.6176 84.7629C19.8627 84.7529 20.1078 84.7926 20.3431 84.6834C20.4118 84.6536 20.4902 84.6735 20.5686 84.6735C20.8725 84.6536 21.1765 84.6635 21.4804 84.604C21.7451 84.5444 22.0294 84.5742 22.3039 84.5841C22.5588 84.594 22.7843 84.5245 23.0098 84.4351C23.1667 84.1769 23.1961 83.879 23.2647 83.6009C23.3039 83.4519 23.3235 83.303 23.3627 83.154C23.5392 82.3595 23.6765 81.565 23.9118 80.7804C23.9118 80.4229 24.0588 80.0952 24.1176 79.7476C24.1765 79.4 24.3235 79.0722 24.3627 78.7246C24.4118 78.3373 24.549 77.9798 24.5882 77.5925C24.6176 77.374 24.7059 77.1456 24.7745 76.9271C24.8431 76.7086 24.8431 76.5 24.8431 76.2915C24.7843 76.1524 24.6863 76.0631 24.5588 76.0035C24.3529 75.9141 24.1471 75.8148 23.9314 75.7155C23.8333 75.6757 23.7353 75.6261 23.6373 75.5764C22.8431 75.1792 22.049 74.7819 21.2647 74.3747C20.8725 74.1662 20.5 73.9278 20.1078 73.7193C19.5588 73.4213 19.0392 73.0737 18.5 72.746C18.1373 72.5176 17.7941 72.2693 17.4412 72.021C17.0392 71.733 16.6569 71.445 16.2549 71.157C16.2255 71.1371 16.2059 71.1272 16.1765 71.1073C15.7941 70.7995 14.7255 69.7964 14.4412 69.4488C13.9902 68.8927 13.549 68.3167 13.1863 67.691C12.8235 67.0653 12.5196 66.3999 12.3431 65.6948C12.2647 65.3869 12.1863 65.0691 12.2157 64.7315C12.2353 64.5328 12.2255 64.3243 12.2157 64.1257C12.1961 63.5397 12.3922 63.0034 12.598 62.4771C12.6275 62.3877 12.6765 62.3082 12.7157 62.2288C13.0588 61.474 13.549 60.8384 14.1176 60.2425C14.7157 59.6169 15.4216 59.1401 16.1569 58.6833C16.549 58.445 16.951 58.2265 17.3725 58.0378C18.2647 57.6505 19.1373 57.2234 20.0588 56.8857C20.9314 56.5679 21.8039 56.27 22.6863 55.982C23.4608 55.7238 24.2549 55.5053 25.049 55.3265C25.3137 55.2669 25.5784 55.1974 25.8431 55.1378C26.049 55.0882 26.2549 55.0187 26.4608 54.9789C26.6667 54.9293 26.8824 54.9194 27.0882 54.8598C27.451 54.7505 27.8333 54.7207 28.1961 54.6214C28.4118 54.5618 28.6471 54.5718 28.8725 54.5122C29.1765 54.4228 29.5 54.4129 29.8039 54.3334C30.0686 54.2639 30.3431 54.2639 30.6176 54.2142C30.8627 54.1745 31.0882 54.105 31.3039 53.966C31.4804 53.6879 31.549 53.3701 31.6373 53.0622C31.7941 52.5458 31.9216 52.0294 32.0588 51.5129C32.2353 50.8773 32.4314 50.2517 32.6176 49.6161C32.8235 48.9109 33.049 48.2058 33.2549 47.5007C33.402 47.0041 33.5294 46.4976 33.6667 45.9911C33.8627 45.2959 34.0882 44.6107 34.2843 43.9155C34.3726 43.6076 34.4706 43.2898 34.3824 42.8727C34.3627 42.8231 34.3039 42.7039 34.2353 42.5847C34.1765 42.4953 34.1176 42.3861 34.0392 42.3364C33.6373 42.0881 33.3039 41.7405 32.9314 41.4525C32.5784 41.1844 32.2647 40.8666 31.9412 40.5587C31.5098 40.1615 31.0882 39.7642 30.6667 39.357C30.2549 38.9598 29.8627 38.5526 29.4608 38.1355C29.049 37.6985 28.6569 37.2417 28.2843 36.7848C28.0098 36.4472 27.7451 36.1194 27.4902 35.7718C27 35.1362 26.598 34.4411 26.2843 33.7061C26.1275 33.3387 26.0294 32.9514 26.049 32.5442C26.0588 32.3257 26.049 32.1072 26.049 31.9086C26.0882 31.7993 26.1176 31.71 26.1471 31.6206C26.2353 31.3425 26.3725 31.0743 26.5882 30.8757C26.7843 30.697 26.951 30.4983 27.1667 30.3494C27.5392 30.0912 27.9608 29.962 28.3725 29.8131C28.5882 29.7336 28.8137 29.7038 29.0294 29.6442C29.0882 29.6343 29.1471 29.6244 29.2059 29.6145C29.3725 29.6045 29.5392 29.6145 29.6961 29.5449C29.7843 29.5052 29.9118 29.5251 30.0098 29.5251C30.2549 29.5151 30.5 29.5449 30.7353 29.4456C30.8137 29.4158 30.9216 29.4357 31.0098 29.4357C31.7157 29.4357 32.4216 29.4357 33.1275 29.4357C33.2647 29.4357 33.402 29.4357 33.5294 29.4853C33.6275 29.5251 33.7353 29.5151 33.8431 29.5151C34.1275 29.535 34.4216 29.4853 34.7059 29.5946C34.7843 29.6244 34.8922 29.6045 34.9804 29.6045C35.1471 29.6145 35.3137 29.5847 35.4804 29.674C35.5294 29.7038 35.598 29.6939 35.6569 29.6939C35.8529 29.7038 36.049 29.684 36.2451 29.7734C36.3039 29.8031 36.3922 29.7833 36.4706 29.7932C36.7745 29.8031 37.0686 29.9323 37.3725 29.9025C37.5686 30.0216 37.7941 29.962 37.9804 29.9819C38.0294 29.962 38.0588 29.9521 38.0784 29.9323C38.1569 29.8627 38.2353 29.7833 38.3235 29.7038C38.3431 29.6542 38.3529 29.5946 38.3725 29.535C38.5588 28.9491 38.7549 28.373 38.9412 27.7871C39.2157 26.9231 39.4902 26.0591 39.7647 25.195C40.0294 24.3608 40.3039 23.5365 40.5686 22.7023C40.6863 22.3348 40.7647 21.9574 40.8529 21.59C40.8725 21.5205 40.902 21.441 40.9216 21.3715C40.9314 21.3119 40.9412 21.2523 40.951 21.2027C40.902 20.9941 40.8039 20.8451 40.6765 20.716C40.1471 20.1797 39.6961 19.5739 39.2941 18.9383C39.0588 18.5609 38.8529 18.1637 38.7255 17.7366C38.6471 17.4884 38.5882 17.2301 38.5784 16.9719C38.5686 16.4853 38.7255 16.0384 38.951 15.6113C38.9902 15.5418 39.0392 15.4822 39.1078 15.4425C39.3922 15.2538 39.6961 15.1148 40.0392 15.0949C40.2353 15.085 40.4314 15.085 40.6274 15.0155C40.7941 14.9559 40.9902 15.0353 41.1667 14.9459C41.6176 15.0155 42.0588 15.1744 42.6471 15.0453C42.8137 15.0055 42.9804 14.797 43.0882 14.5189C43.1471 14.3799 43.2157 14.2408 43.2451 14.0919C43.3725 13.5357 43.5588 12.9994 43.7157 12.4631C43.9412 11.6786 44.1863 10.9138 44.4216 10.1293C44.6373 9.40429 44.8726 8.69917 45.0686 7.97419C45.2941 7.13996 45.5882 6.33553 45.8529 5.52116C46 5.06433 46.1863 4.62735 46.3529 4.18044C46.3922 4.06127 46.4314 3.95202 46.4804 3.80305C46.5196 3.2469 46.5196 2.66096 46.3039 2.1048C46.3333 2.00549 46.3725 1.92604 46.3922 1.83666C46.5392 1.29044 46.9216 0.952776 47.3824 0.6747C47.4706 0.625043 47.5784 0.605181 47.6765 0.565456C47.7157 0.545593 47.7353 0.505868 47.7647 0.476074C47.951 0.476074 48.1373 0.476074 48.3137 0.476074C48.3333 0.545593 48.3922 0.565456 48.4412 0.585318C48.7549 0.714425 49.0196 0.922982 49.2451 1.19113C49.2843 1.24078 49.3333 1.28051 49.3725 1.33016C49.4412 1.4692 49.5098 1.60824 49.5882 1.76714C49.5882 2.00549 49.5882 2.27364 49.5882 2.54178C49.5294 2.66096 49.4706 2.78013 49.4118 2.90924C49.3333 3.09793 49.2157 3.25683 49.0588 3.39587C48.9706 3.47532 48.8922 3.57463 48.7941 3.65408C48.4118 3.99175 48.2843 4.43866 48.2157 4.92529C48.1667 5.22323 48.1275 5.5311 48.0588 5.82903C48.0098 6.05745 47.9804 6.28587 47.951 6.51429C47.902 6.83209 47.8431 7.14989 47.7745 7.45776C47.7157 7.72591 47.7157 8.00399 47.6569 8.28206C47.549 8.86801 47.4314 9.45395 47.3529 10.0498C47.3137 10.3378 47.2451 10.6159 47.1961 10.9039C47.1176 11.321 47.0784 11.758 46.9608 12.1652C46.902 12.3837 46.9314 12.622 46.8333 12.8405C46.8725 13.0987 46.7647 13.3272 46.7157 13.5655C46.6765 13.784 46.6373 14.0124 46.5784 14.2408C46.5196 14.4792 46.4902 14.7275 46.451 14.9658C46.4412 15.0453 46.4314 15.1247 46.4118 15.1942C46.3235 15.4127 46.3627 15.6213 46.5 15.8298C46.5686 15.8596 46.6471 15.9093 46.7255 15.949C46.7745 15.9391 46.8333 15.949 46.8627 15.9291C46.9804 15.8596 47.1078 15.8298 47.2157 15.8795C47.3922 15.9589 47.5784 15.9391 47.7549 15.949C47.8922 15.9589 48.0294 15.949 48.1569 16.0086C48.2353 16.0483 48.3333 16.0285 48.4314 16.0384C48.6275 16.0483 48.8235 16.0285 49.0196 16.1178C49.1078 16.1576 49.2353 16.1278 49.3333 16.1377C49.5 16.1476 49.6667 16.1278 49.8333 16.2072C49.8922 16.237 49.9804 16.2271 50.0588 16.2271C50.2745 16.237 50.4902 16.2072 50.6863 16.3065C50.7549 16.3363 50.8333 16.3165 50.9118 16.3165C51.1078 16.3264 51.3039 16.2966 51.5 16.3959C51.5784 16.4356 51.6863 16.4158 51.7745 16.4158C52.0392 16.3959 52.2843 16.4754 52.5 16.5548C52.6373 16.6641 52.6176 16.7932 52.598 16.9322C52.5686 16.9719 52.5294 17.0117 52.4706 17.0712C52.2451 17.0712 52.0196 17.0812 51.7941 17.0712C51.5784 17.0613 51.3627 17.111 51.1667 16.9918C51.1176 16.962 51.049 16.9819 50.9804 16.9719C50.8333 16.962 50.6765 16.9719 50.5294 16.9024C50.451 16.8627 50.3529 16.8826 50.2549 16.8726C50.0588 16.8627 49.8627 16.8825 49.6667 16.8031C49.5784 16.7634 49.451 16.7932 49.3431 16.7832C49.1471 16.7733 48.951 16.8031 48.7549 16.7137C48.6765 16.674 48.5784 16.6939 48.4804 16.6939C48.3333 16.6839 48.1765 16.6939 48.0294 16.6243C47.9412 16.5846 47.8235 16.6045 47.7157 16.5945C47.5 16.5846 47.2941 16.5945 47.0784 16.525C46.8333 16.4456 46.5784 16.535 46.2157 16.7137C45.9608 17.0017 45.9608 17.3692 45.8824 17.7168C45.8235 17.9849 45.7745 18.2531 45.7157 18.5212C45.6667 18.7397 45.6569 18.978 45.6078 19.2065C45.5 19.6732 45.4706 20.1499 45.3333 20.6068C45.3529 20.8749 45.2353 21.1232 45.2157 21.3814C45.1765 21.7489 45.0784 22.1064 45.0098 22.4639C44.951 22.7917 44.8235 23.1194 44.8725 23.4869C44.9804 23.8245 45.1863 24.1026 45.5098 24.3211C45.7745 24.4899 46.0098 24.7283 46.2549 24.9368C46.8529 25.4433 47.402 25.9895 48.0588 26.4265C48.2843 26.5755 48.4608 26.8039 48.6863 26.9628C49.0784 27.2309 49.4216 27.5487 49.8137 27.8268C50.0686 28.0155 50.3039 28.2439 50.549 28.4525C50.6863 28.5717 50.8333 28.6809 50.9804 28.8001C51.1078 28.9093 51.2255 29.0285 51.3726 29.1278C51.5882 29.2669 51.7549 29.4754 51.9706 29.6343C52.2745 29.8627 52.5392 30.1507 52.8333 30.3891C53.3137 30.7764 53.7353 31.2233 54.1765 31.6504C54.2353 31.7 54.2941 31.7397 54.3529 31.7894C54.4216 31.849 54.5098 31.8986 54.5588 31.9682C54.7059 32.2264 54.9412 32.4151 55.1373 32.6236C55.5 33.0109 55.8039 33.4281 56 33.9544C55.9608 34.0835 55.9216 34.2325 55.8726 34.3914C55.8235 34.4411 55.7745 34.4907 55.7451 34.5205C55.4216 34.6496 55.1373 34.739 54.8333 34.59C54.7941 34.5702 54.7451 34.5801 54.6961 34.5801C53.8726 34.5404 53.0784 34.3318 52.2941 34.1133C51.8235 33.9842 51.3529 33.865 50.8922 33.7359C50.098 33.5274 49.3039 33.3585 48.5196 33.1202C48 32.9613 47.4608 32.852 46.9314 32.713C46.6373 32.6435 46.3333 32.5938 46.049 32.5045C45.7843 32.425 45.5098 32.3952 45.2549 32.3257C44.9902 32.2562 44.7353 32.1767 44.4608 32.1469C44.3235 32.137 44.1863 32.1072 44.0686 32.0476C43.8431 31.9483 43.6274 31.9582 43.4118 31.9781C43.2451 32.0675 43.1863 32.2164 43.1569 32.3654C43.0588 32.8322 42.9216 33.289 42.8627 33.7558C42.8431 33.875 42.8039 33.9941 42.7745 34.1133C42.7549 34.2226 42.7353 34.3219 42.7157 34.4311C42.6667 34.6695 42.6569 34.9178 42.598 35.1561C42.5 35.5732 42.4608 36.0003 42.3431 36.4174C42.2353 36.7948 42.2059 37.2019 42.1275 37.5893C42.0588 37.917 41.9706 38.2447 41.9118 38.5725C41.8627 38.8406 41.7745 39.1088 41.7549 39.3868C41.7451 39.5358 41.7059 39.6848 41.6667 39.8337C41.5784 40.2409 41.5392 40.6481 41.4216 41.0454C41.3235 41.3929 41.2745 41.7604 41.2059 42.1279C41.1274 42.545 41.049 42.972 40.951 43.3891C40.8824 43.7367 40.8235 44.0843 40.7451 44.422C40.6961 44.6107 40.6569 44.8093 40.6078 45.0079C40.5882 45.0973 40.5686 45.1867 40.5588 45.2761C40.549 45.4251 40.5686 45.584 40.4804 45.7329C40.4804 45.9911 40.4804 46.2593 40.4804 46.5473C40.5294 46.587 40.598 46.6466 40.6765 46.6963C41.2647 47.1034 41.8627 47.5007 42.451 47.9079C43.2059 48.4243 43.9608 48.9507 44.7157 49.4571C45.1471 49.7452 45.5882 50.0232 46.0294 50.3013C46.7941 50.778 47.5392 51.2746 48.3137 51.7413C48.6373 51.94 48.951 52.1585 49.2745 52.367C49.7647 52.6848 50.2549 52.9828 50.7451 53.3006C51.0098 53.4793 51.2745 53.668 51.5098 53.8368C51.598 53.9759 51.6765 54.0851 51.7647 54.2142C51.7647 54.2738 51.7647 54.3533 51.7647 54.4427C51.6765 54.6413 51.5 54.7207 51.2941 54.7902C51.098 54.7902 50.8824 54.7902 50.6667 54.7902C50.4412 54.7902 50.2255 54.681 49.9902 54.7009C49.7647 54.7207 49.5196 54.7406 49.3039 54.6909C48.9118 54.6016 48.5098 54.6611 48.1176 54.5916C47.6471 54.5122 47.1765 54.5221 46.7059 54.5122C46.4608 54.5022 46.2353 54.4029 45.9804 54.4228C45.7353 54.4427 45.4804 54.4625 45.2451 54.4129C44.549 54.2639 43.8431 54.3632 43.1373 54.3235C42.951 54.3135 42.7745 54.3433 42.598 54.2639C42.5196 54.2242 42.4216 54.244 42.3235 54.244C41.2549 54.244 40.1765 54.244 39.0686 54.244C38.9902 54.2838 38.8824 54.3433 38.7941 54.3831C38.6765 54.542 38.6078 54.6909 38.6078 54.8697C38.598 54.9889 38.549 55.108 38.5294 55.2272C38.4314 55.7238 38.3431 56.2204 38.2353 56.7169C38.1373 57.2135 38.0588 57.71 37.9118 58.1967C37.8529 58.3854 37.8333 58.584 37.7941 58.7826C37.7059 59.2196 37.6078 59.6466 37.5392 60.0836C37.4804 60.4809 37.3922 60.8682 37.3137 61.2555C37.2353 61.6428 37.1765 62.0401 37.0686 62.4274C36.9706 62.8147 36.9412 63.212 36.8529 63.5993C36.7843 63.8972 36.7549 64.215 36.6569 64.4931C36.5784 64.7116 36.6275 64.9599 36.5 65.1684C36.402 65.7842 36.2549 66.3999 36.1471 67.0157C36.049 67.5619 35.9412 68.0982 35.8333 68.6444C35.7255 69.1807 35.6176 69.7269 35.5098 70.2632C35.4314 70.6505 35.3627 71.0478 35.2843 71.4351C35.1765 71.9714 35.1078 72.5275 34.9412 73.0539C34.9216 73.4511 34.7843 73.8384 34.7353 74.2357C34.6961 74.5336 34.6373 74.8415 34.5392 75.1295C34.4608 75.348 34.5098 75.5963 34.3824 75.8048C34.2843 76.4206 34.1667 77.0463 34.0196 77.6521C34.0294 77.9301 33.8529 78.1884 33.951 78.5359C33.9706 78.5757 34.0196 78.675 34.0784 78.7842C34.1765 78.8339 34.2843 78.9233 34.402 78.9332C34.7647 78.963 35.0686 79.1418 35.3922 79.2808C35.7059 79.4099 36.0196 79.5092 36.3431 79.5887C36.9902 79.7575 37.6275 79.9363 38.2745 80.115C38.9118 80.2938 39.5588 80.4626 40.2059 80.6215C41 80.8301 41.7941 81.0287 42.5784 81.2273C43.2549 81.3962 43.9314 81.565 44.6078 81.7437C45.1373 81.8828 45.6667 82.002 46.1863 82.1609C46.5196 82.2602 46.8529 82.3694 47.1863 82.4687C47.5392 82.578 47.8627 82.7369 48.1961 82.8958C48.4706 83.0348 48.6667 83.2334 48.7451 83.5512C48.6373 83.9386 48.402 84.1868 47.9902 84.2464C47.902 84.2564 47.8137 84.306 47.7255 84.3259C47.4314 84.3954 47.1274 84.455 46.8235 84.4351C46.6863 84.4252 46.549 84.4252 46.4216 84.4848C46.3431 84.5245 46.2451 84.5146 46.1471 84.5146C45.8529 84.5245 45.5686 84.5146 45.2745 84.5245C45.0196 84.5344 44.7549 84.4947 44.5 84.594C44.4216 84.6238 44.3137 84.604 44.2255 84.604C43.8431 84.604 43.4608 84.6139 43.0784 84.6139C42.9314 84.6139 42.7745 84.6139 42.6275 84.6635C42.5196 84.7033 42.3824 84.6933 42.2647 84.6933C41.2353 84.6933 40.2157 84.7033 39.1863 84.7033C38.9706 84.7033 38.7647 84.6735 38.549 84.7728C38.4706 84.8125 38.3725 84.7827 38.2745 84.7827C37.9804 84.7827 37.6961 84.7827 37.402 84.7926C37.2843 84.7926 37.1667 84.8324 37.0392 84.8423C36.9314 84.8522 36.8235 84.8721 36.7255 84.8721C36.2157 84.8721 35.7157 84.882 35.2059 84.8622C35.0588 84.8622 34.9118 84.8125 34.7255 84.7827C34.5294 84.892 34.2745 84.8622 34.0392 84.8721C33.6667 84.8721 33.3039 84.8721 32.9902 84.8721C32.6078 84.9813 32.451 85.2098 32.3529 85.5375C32.1863 86.1234 31.9706 86.6995 31.7843 87.2854C31.5686 87.9707 31.3431 88.6559 31.1373 89.3511C30.8431 90.3542 30.5196 91.3473 30.2157 92.3404C29.9902 93.0753 29.7353 93.8003 29.5196 94.5352C29.2353 95.4886 28.9314 96.442 28.6471 97.3954C28.451 98.0608 28.2255 98.7064 28.0294 99.3718C27.8529 99.9875 27.6275 100.593 27.451 101.219C27.2157 102.023 26.9706 102.838 26.7157 103.642C26.598 104.01 26.5098 104.377 26.3824 104.745C26.3137 104.943 26.2843 105.132 26.3137 105.331C26.3922 105.499 26.5392 105.589 26.6961 105.638C27.0392 105.748 27.3333 105.926 27.6471 106.075C28.1961 106.344 28.7353 106.632 29.2843 106.9C29.8333 107.168 30.3922 107.416 30.9412 107.664C31.4608 107.893 31.9608 108.161 32.4608 108.429C32.8824 108.648 33.2745 108.916 33.7059 109.104C35.098 109.71 36.4118 110.455 37.7745 111.13C38.3922 111.438 39 111.756 39.598 112.104C40.402 112.57 41.2157 113.017 41.9706 113.574C42.3431 113.842 42.7059 114.11 43.0686 114.408C43.2941 114.596 43.5196 114.785 43.7157 114.994C44.0098 115.311 44.2647 115.659 44.4314 116.066C44.5196 116.285 44.5784 116.503 44.5882 116.732C44.6078 116.98 44.5098 117.218 44.4412 117.447C44.402 117.566 44.3333 117.665 44.2843 117.774C43.9706 118.122 43.6471 118.45 43.2647 118.718C43.2059 118.758 43.1373 118.797 43.0686 118.837C42.3627 119.274 41.598 119.572 40.8235 119.83C39.902 120.138 38.9706 120.416 38.0294 120.635C37.5196 120.754 37 120.883 36.4706 120.962C36.098 121.022 35.7255 121.091 35.3529 121.151C34.951 121.221 34.549 121.32 34.1373 121.33C33.951 121.429 33.7549 121.399 33.5588 121.419C33.3627 121.439 33.1667 121.479 32.9706 121.509C32.7745 121.528 32.5784 121.499 32.3824 121.588C32.2745 121.628 32.1373 121.598 32.0196 121.608C31.8333 121.618 31.6569 121.588 31.4804 121.677C31.4216 121.707 31.3333 121.697 31.2549 121.697C31.0392 121.707 30.8333 121.687 30.6275 121.777C30.549 121.816 30.4412 121.787 30.3529 121.797C30.1373 121.807 29.9314 121.777 29.7255 121.876C29.6471 121.916 29.549 121.896 29.451 121.896C28.8627 121.886 28.3529 122.104 27.902 122.472C27.0294 123.187 26.0392 123.693 24.9608 124.011C24.5882 124.121 24.2059 124.26 23.8039 124.23C23.451 124.359 23.0784 124.289 22.7157 124.319C22.3627 124.349 22.0294 124.21 21.6765 124.21C21.4412 124.091 21.1961 124.15 20.9608 124.14C20.8137 124.23 20.7353 124.339 20.6765 124.498C20.4118 125.233 20.1373 125.968 19.8431 126.693C19.5 127.537 19.098 128.351 18.5686 129.096C18.5588 129.106 18.5588 129.126 18.549 129.136C18.2843 129.434 18.0196 129.742 17.7647 130.04C17.6275 130.198 17.4412 130.278 17.2647 130.347C17.0686 130.427 16.8725 130.516 16.6275 130.457C16.1961 130.179 15.9902 129.712 15.8627 129.215C15.8039 128.977 15.7059 128.748 15.7451 128.49C15.5882 127.785 15.6863 127.07 15.6569 126.365C15.6471 126.206 15.6569 126.057 15.6569 125.898C15.5588 125.789 15.4706 125.69 15.3725 125.59C15.049 125.481 14.7353 125.362 14.4216 125.263C13.4706 124.945 12.5196 124.637 11.5686 124.329C10.6471 124.031 9.71569 123.773 8.77451 123.525C8.42157 123.515 8.08824 123.386 7.7549 123.306C7.42157 123.227 7.06863 123.207 6.7451 123.058C6.05882 122.939 5.39216 122.73 4.70588 122.601C4.03922 122.472 3.38235 122.273 2.70588 122.194C2.53922 122.085 2.34314 122.144 2.17647 122.075C2 121.995 1.81373 122.045 1.63725 122.005C1.22549 121.916 0.813725 121.816 0.470588 121.727C0.284314 121.578 0.156863 121.469 0.0196078 121.36C0 121.24 0 121.181 0 121.111ZM30.1275 55.1577C29.9118 55.1577 29.6667 55.1577 29.4216 55.1577C29.1863 55.2868 28.902 55.1875 28.6667 55.3265C28.3333 55.3563 28.0098 55.4556 27.6863 55.5152C27.2353 55.5947 26.7941 55.6841 26.3627 55.8231C26.1275 55.8926 25.8922 55.9423 25.6569 55.9919C25.2451 56.0813 24.8333 56.1806 24.4216 56.2899C24.098 56.3693 23.7843 56.4786 23.451 56.5382C23.2353 56.5779 23.0392 56.6375 22.8431 56.7169C22.5392 56.846 22.2255 56.9751 21.8922 57.0248C21.7255 57.0546 21.5686 57.1042 21.4118 57.1638C20.9314 57.3426 20.451 57.5412 19.9608 57.7001C19.7255 57.7796 19.5 57.8689 19.2941 57.998C19.0784 58.1172 18.8529 58.2165 18.6275 58.2861C18.3039 58.3754 18 58.5145 17.6961 58.6734C17.0588 59.0011 16.451 59.3785 15.8627 59.8055C15.5196 60.0538 15.1667 60.3021 14.8725 60.6199C14.8333 60.6696 14.7941 60.7192 14.7353 60.749C14.4314 60.9377 14.2353 61.2456 14.0196 61.5137C13.7157 61.901 13.4706 62.3281 13.2843 62.7849C13.1471 63.1226 13.0686 63.49 12.9608 63.8376C12.9706 64.3441 12.902 64.8506 13.0392 65.3571C13.1765 65.9133 13.3333 66.4595 13.598 66.9561C13.9804 67.6811 14.4706 68.3266 14.9706 68.9622C15.049 69.0615 15.1471 69.141 15.2451 69.2105C15.402 69.3197 15.5196 69.4488 15.6275 69.5978C15.7255 69.7468 15.8529 69.8957 16 69.995C16.1863 70.1142 16.3333 70.2632 16.4902 70.4122C16.5686 70.4817 16.6569 70.5512 16.7353 70.6108C17.0196 70.8193 17.2941 71.0279 17.5784 71.2464C18.0686 71.6138 18.5588 71.9714 19.0882 72.2792C19.4216 72.4679 19.7549 72.6566 20.0686 72.8652C20.2353 72.9744 20.4118 73.0737 20.5784 73.1731C20.7549 73.2724 20.9118 73.3816 21.0882 73.4809C21.2941 73.6001 21.5 73.7391 21.7353 73.8186C21.9608 73.898 22.1667 74.047 22.3824 74.1562C22.8039 74.3747 23.2157 74.6032 23.6471 74.7918C23.9118 74.9011 24.1863 75.0004 24.4412 75.1394C24.5588 75.199 24.6863 75.2586 24.8137 75.3281C24.9118 75.3778 25.0196 75.3877 25.1471 75.3281C25.1863 75.2388 25.2353 75.1196 25.2745 75.0103C25.3824 74.6627 25.4902 74.3052 25.598 73.9576C25.8235 73.2525 26.0686 72.5672 26.2549 71.8522C26.4216 71.2166 26.6471 70.5909 26.7549 69.9454C27 69.28 27.1765 68.5947 27.3725 67.9194C27.6275 67.0554 27.8431 66.1715 28.1176 65.3174C28.3725 64.503 28.6078 63.6787 28.8529 62.8544C29.049 62.1891 29.2255 61.5237 29.4118 60.8682C29.5196 60.4809 29.6667 60.1134 29.7549 59.7261C29.9902 58.7727 30.3039 57.8491 30.5686 56.9056C30.7255 56.3495 30.8922 55.7933 31.0588 55.1875C30.9902 55.118 30.9216 55.0485 30.8627 54.9889C30.7059 54.9889 30.598 54.9889 30.4902 54.9889C30.4216 55.0187 30.3137 55.0683 30.1275 55.1577ZM20.098 102.013C20.1373 101.964 20.1961 101.924 20.2157 101.865C20.2647 101.706 20.3137 101.537 20.3235 101.368C20.3431 100.921 20.5294 100.504 20.5294 100.047C20.6275 99.7392 20.6373 99.4115 20.7059 99.1036C20.7353 98.9646 20.7745 98.8355 20.7941 98.6964C20.8137 98.5574 20.8333 98.4283 20.8725 98.2893C20.9314 98.0509 20.9412 97.8026 20.9902 97.5643C21.0392 97.3259 21.0588 97.0776 21.1078 96.8393C21.2059 96.3427 21.3137 95.8462 21.3529 95.3397C21.3627 95.2801 21.3529 95.2106 21.3824 95.1609C21.4804 94.9027 21.4706 94.6147 21.5294 94.3465C21.5882 94.0784 21.5784 93.7904 21.6471 93.5322C21.7647 93.0853 21.8137 92.6284 21.8824 92.1716C21.9608 91.7048 22.0784 91.2381 22.098 90.7613C22.2059 90.5727 22.1471 90.3641 22.1961 90.1754C22.3137 89.7186 22.3529 89.2419 22.4608 88.7751C22.5098 88.5467 22.5098 88.3083 22.5784 88.0998C22.6569 87.8316 22.6569 87.5535 22.7255 87.2854C22.7941 86.9775 22.8039 86.6498 22.8333 86.3221C22.8333 86.2923 22.8333 86.2625 22.8529 86.2327C22.9608 86.0142 22.9216 85.7758 22.9118 85.5474C22.9118 85.5176 22.8922 85.4978 22.8725 85.458C22.8039 85.4183 22.7157 85.3786 22.6667 85.3488C22.4804 85.3488 22.3137 85.3091 22.1765 85.3587C21.9608 85.4382 21.7549 85.4183 21.5392 85.4282C21.3431 85.4382 21.1275 85.3985 20.9412 85.4481C20.6078 85.5474 20.2745 85.5077 19.9412 85.5276C19.8235 85.5375 19.7059 85.5673 19.5784 85.5772C19.5 85.5872 19.4314 85.607 19.3529 85.607C19.0784 85.6169 18.8137 85.6269 18.5392 85.6865C18.2647 85.7461 17.9706 85.7063 17.6765 85.7858C17.4412 85.8454 17.1961 85.8255 16.951 85.8752C16.7157 85.9248 16.4706 85.9248 16.2255 85.9645C16.0294 86.0043 15.8431 86.0539 15.6471 86.0639C15.4314 86.0837 15.2255 86.1334 15.0196 86.1532C14.8529 86.1731 14.6961 86.2525 14.5294 86.2525C14.2353 86.2625 13.9608 86.3618 13.6863 86.4115C13.3725 86.471 13.0686 86.5604 12.7549 86.62C12.2843 86.6995 11.8431 86.8484 11.3922 86.9775C10.7647 87.1563 10.1569 87.3946 9.54902 87.6529C8.7451 88.0005 7.98039 88.4076 7.38235 89.073C7.32353 89.1426 7.2549 89.2121 7.18627 89.2717C6.89216 89.5398 6.7451 89.8874 6.60784 90.2549C6.48039 90.6223 6.4902 90.9898 6.55882 91.3473C6.66667 91.8538 6.86275 92.3206 7.15686 92.7377C7.40196 93.0753 7.59804 93.4428 7.89216 93.7407C8.45098 94.3167 8.98039 94.9126 9.60784 95.4191C9.94118 95.6873 10.2647 95.9653 10.598 96.2335C11.2647 96.7698 11.9608 97.2663 12.6667 97.753C13.0686 98.031 13.4706 98.3091 13.8824 98.5673C14.3725 98.8752 14.8824 99.1632 15.3627 99.481C15.9608 99.8783 16.5882 100.226 17.2059 100.583C17.5196 100.772 17.8529 100.931 18.1667 101.12C18.6961 101.437 19.2157 101.735 19.7549 102.013C19.8824 102.013 19.9902 102.013 20.098 102.013ZM26.0686 106.125C26.0196 106.224 25.9706 106.324 25.9314 106.423C25.8824 106.562 25.8431 106.721 25.7941 106.86C25.6667 107.237 25.5686 107.625 25.4608 108.012C25.3922 108.26 25.3824 108.499 25.3824 108.747C25.3824 108.965 25.3627 109.184 25.402 109.392C25.5098 109.939 25.7353 110.445 26.0294 110.922C26.3137 111.369 26.6569 111.756 27.0294 112.124C27.4412 112.521 27.902 112.849 28.3922 113.137C28.7745 113.365 29.1471 113.583 29.5098 113.842C30.0588 114.229 30.2745 114.775 30.3431 115.411C30.3627 115.609 30.3137 115.808 30.2843 116.007C30.2451 116.265 30.2255 116.523 30.1667 116.781C30.1078 117.02 30.0588 117.258 30.0098 117.516C30.0098 117.526 30.0294 117.556 30.0294 117.586C30.1275 118.092 30.0784 118.599 30.0588 119.115C29.902 119.552 29.7745 119.989 29.5 120.376C29.3922 120.525 29.3039 120.684 29.2157 120.843C29.2059 120.863 29.2059 120.903 29.2059 120.943C29.2647 121.002 29.3333 121.062 29.402 121.121C29.7549 121.111 30.098 121.181 30.451 121.052C30.5882 121.002 30.7549 121.042 30.9118 121.022C31.0784 121.002 31.2353 120.952 31.402 120.943C31.7059 120.933 32.0098 120.943 32.3039 120.843C32.6569 120.883 32.9902 120.714 33.3431 120.744C33.5784 120.645 33.8235 120.655 34.0686 120.655C34.1176 120.655 34.1569 120.635 34.2059 120.625C34.3137 120.605 34.4118 120.585 34.5196 120.565C34.8039 120.525 35.098 120.515 35.3726 120.436C35.5588 120.386 35.7451 120.416 35.9118 120.357C36.2745 120.237 36.6471 120.188 37.0196 120.118C37.5098 120.019 37.9902 119.87 38.4804 119.8C39.2059 119.532 39.9608 119.373 40.6863 119.085C41.2941 118.837 41.902 118.589 42.4804 118.291C42.9412 118.053 43.2941 117.695 43.6275 117.308C43.7059 117.218 43.7451 117.089 43.7941 116.98C43.8333 116.881 43.8529 116.771 43.8922 116.652C43.7941 116.424 43.7255 116.166 43.5882 115.957C43.4118 115.689 43.2157 115.431 42.9706 115.212C42.7549 115.023 42.5392 114.825 42.3137 114.646C42.1275 114.487 41.9314 114.348 41.7255 114.209C41.1961 113.842 40.6765 113.474 40.1176 113.146C39.549 112.809 39.0098 112.451 38.4216 112.153C35.3333 110.614 32.2745 108.985 29.1569 107.505C28.2745 107.088 27.402 106.641 26.5196 106.214C26.4608 106.185 26.4118 106.145 26.3529 106.135C26.2549 106.115 26.1667 106.125 26.0686 106.125ZM37.9804 31.0048C37.902 30.836 37.7745 30.7863 37.6667 30.7565C37.4314 30.697 37.1863 30.6473 36.951 30.6374C36.6176 30.6274 36.2941 30.4884 35.951 30.5281C35.7549 30.4189 35.5294 30.4586 35.3235 30.4487C35.2353 30.4487 35.1275 30.4685 35.049 30.4387C34.8137 30.3394 34.5686 30.3692 34.3235 30.3593C34.2451 30.3593 34.1569 30.3692 34.098 30.3394C33.9118 30.2501 33.7059 30.2699 33.5098 30.2699C33.2451 30.26 32.9804 30.3096 32.7353 30.2501C32.2941 30.1507 31.8529 30.2004 31.4118 30.1805C31.3333 30.1805 31.2451 30.1607 31.1863 30.1905C30.9804 30.2798 30.7647 30.2699 30.5588 30.26C30.2059 30.2302 29.8627 30.3593 29.5196 30.3792C29.3137 30.3891 29.1078 30.4785 28.9118 30.5381C28.6961 30.5976 28.4706 30.6672 28.2647 30.7466C27.9314 30.8757 27.6275 31.0346 27.3431 31.2531C26.9412 31.5709 26.8235 32.0278 26.7843 32.5243C26.7843 32.5541 26.7843 32.5839 26.7941 32.6137C26.8431 32.7726 26.8824 32.9414 26.9314 33.1003C27.1667 33.8948 27.5588 34.6 28.049 35.2554C28.2941 35.5732 28.5196 35.891 28.7745 36.2088C29.0294 36.5167 29.2647 36.8345 29.5392 37.1324C29.7941 37.4006 30.0588 37.6687 30.3137 37.9269C30.6863 38.3043 31.049 38.6817 31.4216 39.0392C31.7941 39.4067 32.1863 39.7543 32.5686 40.1118C32.8726 40.3899 33.1667 40.6878 33.4902 40.9361C33.8431 41.2142 34.1765 41.5022 34.5098 41.7902C34.5294 41.8101 34.5588 41.82 34.6078 41.8399C34.6765 41.8299 34.7647 41.8299 34.8431 41.82C34.9706 41.681 35.0294 41.5519 35.0686 41.393C35.1078 41.244 35.1373 41.095 35.1863 40.946C35.3922 40.3204 35.5686 39.6848 35.7549 39.0492C35.9412 38.4334 36.1176 37.8177 36.3039 37.2019C36.5392 36.4273 36.7647 35.6427 37 34.8681C37.2549 34.014 37.4804 33.1599 37.7549 32.3158C37.8627 31.9582 37.902 31.6007 38.0098 31.2432C38.0098 31.1538 37.9804 31.0545 37.9804 31.0048ZM43.6765 31.1538C44.0882 31.3326 44.4804 31.3922 44.8627 31.4915C45.1078 31.5511 45.3627 31.6206 45.6078 31.6702C45.9804 31.7497 46.3529 31.8192 46.7157 31.9086C47.402 32.0774 48.098 32.2462 48.7843 32.425C49.4608 32.5938 50.1275 32.7925 50.8039 32.9414C51.2353 33.0407 51.6569 33.1698 52.0784 33.2791C52.4412 33.3784 52.8137 33.438 53.1863 33.5373C53.3725 33.587 53.5784 33.6068 53.7647 33.6465C53.9608 33.6863 54.1471 33.7161 54.3529 33.726C54.4412 33.7359 54.5294 33.7757 54.6176 33.7955C54.6569 33.8055 54.7059 33.7955 54.7549 33.7955C54.8529 33.7359 54.9314 33.6664 54.9118 33.4976C54.6569 33.0805 54.2843 32.713 53.951 32.3158C53.6471 31.9682 53.2941 31.6702 52.951 31.3624C52.5392 30.9949 52.1373 30.6274 51.6961 30.2798C51.4412 30.0812 51.2059 29.8627 50.9706 29.6442C50.6961 29.4059 50.4314 29.1377 50.1373 28.9193C49.6765 28.5717 49.2549 28.1645 48.7941 27.807C48.3529 27.4594 47.9412 27.0621 47.5 26.7046C47.2941 26.5457 47.1176 26.3471 46.902 26.1981C46.7647 26.0988 46.6373 25.9895 46.5098 25.8803C46.3725 25.7611 46.2157 25.6618 46.0882 25.5327C45.7647 25.2248 45.4118 24.9567 45.0588 24.6985C45.0392 24.6786 45 24.6786 44.9706 24.6687C44.7843 24.6786 44.7843 24.6786 44.6471 24.7878C44.6078 24.8872 44.5686 24.9865 44.549 25.0957C44.5294 25.2149 44.5294 25.344 44.5196 25.4632C44.5196 25.5128 44.5196 25.5625 44.5098 25.6022C44.3726 26.0392 44.3922 26.5159 44.2549 26.9529C44.2843 27.1714 44.1961 27.3799 44.1569 27.5885C44.1176 27.8169 44.049 28.0354 44 28.2539C43.9216 28.6114 43.8824 28.9788 43.7843 29.3364C43.7059 29.6045 43.7157 29.8826 43.6275 30.1507C43.5588 30.3692 43.549 30.5976 43.5196 30.8261C43.5098 30.8658 43.5294 30.9154 43.5392 30.9651C43.5784 31.0446 43.6275 31.0942 43.6765 31.1538ZM33.0686 84.1173C33.1569 84.1273 33.2353 84.1273 33.3039 84.1273C34.3726 84.1273 35.451 84.1173 36.5196 84.1173C36.5784 84.1173 36.6471 84.1273 36.7059 84.1074C36.8922 84.0081 37.098 84.0379 37.2941 84.0379C38.0294 84.0279 38.7647 84.0279 39.5 84.0279C39.6176 84.0279 39.7549 84.0478 39.8627 83.9982C40.0098 83.9386 40.1667 83.9485 40.3137 83.9485C40.9706 83.9386 41.6275 83.9386 42.2941 83.9386C42.402 83.9386 42.5196 83.9584 42.6078 83.9187C42.7745 83.8492 42.9412 83.8591 43.1078 83.8591C43.4902 83.8492 43.8725 83.8492 44.2549 83.8492C44.3431 83.8492 44.451 83.869 44.5294 83.8392C44.7549 83.7399 44.9804 83.7797 45.2059 83.7697C45.3725 83.7598 45.5588 83.7995 45.7059 83.7499C45.9216 83.6803 46.1275 83.6704 46.3431 83.6803C46.6373 83.7002 46.9118 83.5711 47.2059 83.5612C47.2843 83.5612 47.3627 83.4917 47.4412 83.4519C47.3824 83.2831 47.2353 83.3129 47.1275 83.2632C46.3333 82.9256 45.5 82.6773 44.6667 82.4588C44.2745 82.3595 43.8725 82.28 43.4804 82.1509C43.0294 82.002 42.5784 81.9026 42.1176 81.7934C41.6667 81.6842 41.2157 81.5352 40.7549 81.4259C40.4804 81.3564 40.1961 81.2869 39.9216 81.2075C39.4608 81.0783 39 80.9095 38.5294 80.8003C37.8922 80.6513 37.2745 80.4626 36.6471 80.2739C36.0098 80.0852 35.3627 79.9065 34.7353 79.6979C34.4412 79.5986 34.1275 79.4893 33.7843 79.5986C33.6373 79.7277 33.5882 79.9363 33.5196 80.0654C33.451 80.403 33.402 80.6811 33.3431 80.9691C33.2745 81.2968 33.1667 81.6246 33.1275 81.9523C33.0686 82.3496 32.9412 82.7269 32.9216 83.1242C32.7941 83.3725 32.8431 83.6406 32.8529 83.8988C32.9216 83.9783 33 84.0478 33.0686 84.1173ZM50.3039 53.9064C50.2843 53.8766 50.2745 53.8468 50.2549 53.8368C49.6961 53.4694 49.1275 53.1019 48.5784 52.7245C48.3137 52.5458 48.0294 52.3968 47.7843 52.1783C47.6863 52.0889 47.549 52.0294 47.4216 51.9896C47.2549 51.94 47.1176 51.8605 46.9902 51.7413C46.951 51.7016 46.902 51.652 46.8431 51.6222C46.3529 51.4235 45.9706 51.0561 45.5294 50.7879C45.0882 50.5198 44.6765 50.202 44.2353 49.9239C44.1863 49.8941 44.1275 49.8643 44.0882 49.8147C43.9118 49.6061 43.6765 49.4969 43.4412 49.3777C43.2059 49.2685 42.9804 49.1294 42.7843 48.9606C42.4902 48.6924 42.1569 48.464 41.8333 48.2455C41.6667 48.1363 41.5098 48.0171 41.3529 47.8979C41.1765 47.7589 41 47.6 40.8137 47.4709C40.6667 47.3716 40.5 47.2623 40.2843 47.3616C40.2647 47.3914 40.2059 47.4411 40.1961 47.4908C40.1471 47.7986 40.049 48.0866 40.0098 48.3945C39.9314 48.9308 39.7843 49.4373 39.6961 49.9736C39.6275 50.4106 39.5196 50.8475 39.4412 51.2746C39.3725 51.652 39.2647 52.0194 39.2059 52.3968C39.1569 52.7146 39.0294 53.0225 39.0882 53.3502C39.0882 53.38 39.1078 53.4098 39.1176 53.4495C39.1471 53.4793 39.1961 53.519 39.2549 53.5786C39.3627 53.5687 39.4902 53.5687 39.6078 53.529C39.8627 53.4396 40.1274 53.4893 40.3824 53.4893C40.5784 53.5985 40.8039 53.5588 41.0098 53.5687C41.9314 53.5687 42.8529 53.5687 43.7647 53.5687C43.9216 53.5687 44.0784 53.5389 44.2255 53.5886C44.4412 53.6581 44.6471 53.6481 44.8627 53.6581C44.951 53.668 45.0588 53.6382 45.1373 53.6779C45.3922 53.7773 45.6471 53.7475 45.902 53.7475C46.3922 53.7574 46.8824 53.7574 47.3725 53.7574C47.4608 53.7574 47.5686 53.7375 47.6471 53.7673C47.8529 53.8666 48.0686 53.8368 48.2843 53.8368C48.5294 53.8368 48.7647 53.8766 49.0098 53.9163C49.2647 53.956 49.5294 53.9262 49.7941 53.9362C49.8627 53.9362 49.9412 53.9858 50.0098 53.9957C50.098 54.0156 50.1863 54.0255 50.2745 53.9759C50.2843 53.966 50.2941 53.9362 50.3039 53.9064ZM8.29412 122.541C8.40196 122.631 8.51961 122.7 8.65686 122.7C8.73529 122.7 8.81373 122.71 8.88235 122.73C9.30392 122.869 9.73529 122.939 10.1569 123.058C10.8922 123.247 11.6078 123.475 12.3333 123.693C13.0196 123.892 13.6863 124.13 14.3627 124.349C14.4804 124.389 14.5882 124.428 14.7059 124.468C14.9314 124.558 15.1569 124.637 15.3922 124.726C15.5098 124.776 15.6275 124.766 15.7745 124.736C15.8137 124.657 15.8824 124.567 15.902 124.458C15.9902 124.011 16.0196 123.545 16.0882 123.098C16.0882 123.068 16.0686 123.038 16.0588 123.018C16 122.889 15.8627 122.859 15.7549 122.82C15.4706 122.71 15.1863 122.591 14.8922 122.541C14.6275 122.492 14.3431 122.522 14.0686 122.512C14.0196 122.512 13.9804 122.512 13.9314 122.512C13.4608 122.482 12.9902 122.581 12.5196 122.432C12.4804 122.422 12.4314 122.432 12.3824 122.432C11.098 122.432 9.81373 122.422 8.52941 122.422C8.45098 122.422 8.37255 122.412 8.31373 122.462C8.31373 122.482 8.30392 122.512 8.29412 122.541ZM41.3431 19.9215C41.4902 19.7924 41.5392 19.6534 41.5686 19.5243C41.6471 19.2263 41.7157 18.9284 41.8039 18.6404C41.951 18.124 42.1274 17.6175 42.2745 17.111C42.3627 16.8031 42.4902 16.4952 42.3824 16.1377C42.3529 16.1079 42.3137 16.0483 42.2647 16.0384C41.951 15.9291 41.6274 15.8696 41.2941 15.8298C40.951 15.7901 40.6373 15.8994 40.3039 15.9291C40.1569 15.9391 40.0098 16.0086 39.8137 16.0583C39.7255 16.1476 39.6176 16.2767 39.5098 16.386C39.4608 16.5449 39.4118 16.6939 39.3922 16.7534C39.4216 17.4586 39.6667 18.0048 39.9706 18.5212C40.2745 19.0376 40.6275 19.5243 41.0784 19.9215C41.1667 19.9215 41.2549 19.9215 41.3431 19.9215Z" fill="#0499BA"/>
</svg>
