<svg width="105" height="95" viewBox="0 0 105 95" fill="none" xmlns="http://www.w3.org/2000/svg">
<path id="Union" fill-rule="evenodd" clip-rule="evenodd" d="M75.5708 52.555H88.9644L88.9627 52.5545C97.7635 52.5545 104.919 59.6743 104.914 68.4182V85.18C104.914 90.4045 100.618 94.6601 95.3406 94.6601H77.2268C69.9236 94.6601 62.7414 92.7332 56.4577 89.095C51.9362 86.4528 46.709 86.5695 41.1762 86.6945C40.3049 86.7125 39.4283 86.7304 38.5472 86.7394C37.7112 91.2404 33.7473 94.6602 29.0054 94.6602H15.4318C10.0517 94.6602 5.67852 90.3067 5.67852 84.9563V21.2712C2.95476 20.6404 0.914062 18.2181 0.914062 15.3214V6.73922C0.914062 3.38687 3.67789 0.660156 7.07141 0.660156H55.7581C59.1291 0.660156 61.8709 3.38687 61.8709 6.73922V15.3214C61.8709 18.2309 59.8258 20.6583 57.1065 21.2794L57.1072 31.5438H59.1749C60.1636 31.5438 60.9725 32.3437 60.9725 33.3314C60.9725 34.3192 60.1681 35.1191 59.1749 35.1191H57.202C57.2968 36.9742 57.6655 38.7483 58.2765 40.42L59.2065 39.9015C60.0597 39.4233 61.1658 39.7271 61.6512 40.5944C62.1365 41.4563 61.822 42.5474 60.9544 43.0255L59.831 43.6511C60.7972 45.2382 61.9973 46.6503 63.3863 47.8752L63.8047 47.1689C64.3082 46.3151 65.418 46.0382 66.263 46.5298C67.1216 47.026 67.409 48.1252 66.9056 48.9746L66.3127 49.9803C68.0207 50.9769 69.8634 51.7723 71.8634 52.1794V51.4064C71.8634 50.4231 72.6723 49.6187 73.661 49.6187C74.6498 49.6187 75.4586 50.4187 75.4586 51.4064V52.5416C75.4757 52.5416 75.493 52.5447 75.5108 52.5479C75.5299 52.5514 75.5497 52.555 75.5708 52.555ZM45.1777 33.334C45.1777 32.3462 45.9821 31.5463 46.9753 31.5463L53.5009 31.5462V21.4444H39.5949L39.5941 25.4402C39.5941 26.4279 38.7897 27.2278 37.7965 27.2278H24.9823C23.9891 27.2278 23.1847 26.4279 23.1847 25.4402V21.4444H9.27412V34.4699C15.0761 36.6997 40.3766 47.977 52.4632 78.0371H101.312V68.4267C101.312 61.6502 95.7698 56.1389 88.9511 56.1389H75.5612C75.5441 56.1389 75.5269 56.1358 75.5091 56.1325C75.4899 56.1291 75.4701 56.1254 75.4491 56.1254V62.4411C75.4491 63.4243 74.6402 64.2288 73.6515 64.2288C72.6628 64.2288 71.8539 63.4288 71.8539 62.4411V55.7634C69.1977 55.3123 66.735 54.3686 64.4918 53.0591L60.7115 59.4734C60.3789 60.0414 59.7762 60.3586 59.1607 60.3586C58.85 60.3586 58.5354 60.2778 58.2525 60.108C57.394 59.6118 57.1065 58.5125 57.6099 57.6632L61.543 50.9899C59.6242 49.4028 57.9831 47.5299 56.6934 45.389L50.3336 48.9157C50.059 49.0676 49.758 49.1439 49.4615 49.1439C48.8272 49.1439 48.2162 48.8132 47.8881 48.2272C47.4073 47.3653 47.7173 46.2743 48.5849 45.7961L55.0747 42.1976C54.1981 39.9893 53.7038 37.6068 53.5962 35.1217H46.9753C45.9821 35.1217 45.1777 34.3217 45.1777 33.334ZM48.553 78.0327C37.6676 52.447 16.3261 41.3932 9.27423 38.3581V78.0335L48.553 78.0327ZM26.7808 14.4853V23.6526H35.999V14.4853H26.7808ZM4.5092 6.73889V15.3211H4.50958C4.50958 16.7249 5.66013 17.8691 7.07173 17.8691L23.1854 17.8683V12.6969C23.1854 11.7092 23.9898 10.9092 24.983 10.9092L37.7972 10.91C38.7904 10.91 39.5948 11.7099 39.5948 12.6977V17.8691H55.7484C57.1373 17.8691 58.2653 16.7249 58.2653 15.3211V6.73889C58.2653 5.35303 57.1374 4.23133 55.7484 4.23133H7.07134C5.65971 4.23133 4.5092 5.35755 4.5092 6.73889ZM77.2329 91.0843H95.3467L95.3473 91.0845C98.6468 91.0845 101.325 88.4384 101.325 85.1841V81.6124L9.27441 81.6132V84.9611C9.27441 88.3397 12.0382 91.0844 15.4318 91.0844L29.006 91.0837C32.377 91.0837 35.1189 88.3398 35.1189 84.9604C35.1189 83.9771 35.9233 83.1727 36.9165 83.1727H37.5899C38.6011 83.1727 39.6123 83.1527 40.6176 83.1328C40.7786 83.1296 40.9395 83.1264 41.1002 83.1233C46.885 82.9848 52.8761 82.8599 58.2741 86.011C64.0094 89.3273 70.5676 91.0843 77.2329 91.0843ZM15.424 64.9464C15.424 61.0979 18.57 57.9648 22.4398 57.9648C26.3097 57.9648 29.4557 61.0979 29.4557 64.9464C29.4557 68.7949 26.3051 71.9279 22.4398 71.9279C18.57 71.9279 15.424 68.7949 15.424 64.9464ZM19.0192 64.942C19.0192 66.8195 20.5519 68.3437 22.4398 68.3437C24.3278 68.3437 25.8605 66.8195 25.8605 64.942C25.8605 63.0644 24.3232 61.5402 22.4398 61.5402C20.5519 61.5402 19.0192 63.0644 19.0192 64.942Z" fill="#0499BA"/>
</svg>
