<svg width="144" height="150" viewBox="0 0 144 150" fill="none" xmlns="http://www.w3.org/2000/svg">
<path fill-rule="evenodd" clip-rule="evenodd" d="M112.531 0H1.86129C0.915685 0 0.166016 0.75248 0.166016 1.70163V148.298C0.166016 149.256 0.915685 150 1.86129 150H112.531C113.485 150 114.227 149.213 114.227 148.298V1.70163C114.227 0.75248 113.477 0 112.531 0ZM110.836 146.597H3.56509V3.41181H110.836V146.597ZM136.411 0C140.143 0 143.167 3.02702 143.167 6.78087V128.623C143.167 128.973 143.065 129.298 142.886 129.572L133.856 149.008C133.583 149.624 133.012 150 132.331 150C131.692 150 131.079 149.624 130.806 149.008L121.835 129.692C121.605 129.409 121.469 129.033 121.469 128.631V6.78087C121.469 3.03557 124.485 0 128.225 0H136.411ZM139.768 27.2346H124.86V35.7599H139.768V27.2346ZM124.86 23.8228H139.768V15.3403H124.86V23.8228ZM139.768 39.1632H124.86V126.93H139.768V39.1632ZM136.403 3.41181H128.216C126.35 3.41181 124.86 4.90822 124.86 6.78087V11.9371H139.768V6.78942C139.768 4.90822 138.269 3.41181 136.403 3.41181ZM125.848 130.341L132.331 144.279L138.822 130.341H125.848ZM133.582 49.5952H131.035C130.081 49.5952 129.34 48.8427 129.34 47.8935C129.34 46.9444 130.081 46.1919 131.035 46.1919H133.582C134.528 46.1919 135.278 46.9358 135.278 47.8935C135.278 48.8427 134.537 49.5952 133.582 49.5952ZM133.582 54.9819H131.035C130.081 54.9819 129.34 55.7344 129.34 56.6836C129.34 57.6413 130.09 58.3852 131.035 58.3852H133.582C134.537 58.3852 135.278 57.6327 135.278 56.6836C135.278 55.7259 134.537 54.9819 133.582 54.9819ZM131.035 63.7729H133.582C134.537 63.7729 135.278 64.5254 135.278 65.4746C135.278 66.4237 134.537 67.1762 133.582 67.1762H131.035C130.09 67.1762 129.34 66.4323 129.34 65.4746C129.34 64.5254 130.081 63.7729 131.035 63.7729ZM133.582 72.5635H131.035C130.081 72.5635 129.34 73.316 129.34 74.2651C129.34 75.2228 130.09 75.9667 131.035 75.9667H133.582C134.537 75.9667 135.278 75.2143 135.278 74.2651C135.278 73.316 134.537 72.5635 133.582 72.5635ZM131.035 81.3281H133.582C134.537 81.3281 135.278 82.0806 135.278 83.0298C135.278 83.9789 134.537 84.7314 133.582 84.7314H131.035C130.09 84.7314 129.34 83.9789 129.34 83.0298C129.34 82.0806 130.081 81.3281 131.035 81.3281ZM133.582 90.1177H131.035C130.081 90.1177 129.34 90.8702 129.34 91.8193C129.34 92.7685 130.09 93.5209 131.035 93.5209H133.582C134.537 93.5209 135.278 92.7685 135.278 91.8193C135.278 90.8702 134.537 90.1177 133.582 90.1177ZM131.035 98.9165H133.582C134.537 98.9165 135.278 99.669 135.278 100.618C135.278 101.567 134.537 102.32 133.582 102.32H131.035C130.09 102.32 129.34 101.567 129.34 100.618C129.34 99.669 130.081 98.9165 131.035 98.9165ZM133.582 107.707H131.035C130.081 107.707 129.34 108.46 129.34 109.409C129.34 110.367 130.09 111.111 131.035 111.111H133.582C134.537 111.111 135.278 110.358 135.278 109.409C135.278 108.46 134.537 107.707 133.582 107.707ZM131.035 116.472H133.582C134.537 116.472 135.278 117.216 135.278 118.174C135.278 119.123 134.537 119.875 133.582 119.875H131.035C130.09 119.875 129.34 119.131 129.34 118.174C129.34 117.224 130.081 116.472 131.035 116.472ZM70.3195 35.2471H97.8613C98.807 35.2471 99.5566 35.991 99.5566 36.9487C99.5566 37.8979 98.7814 38.6503 97.8613 38.6503H70.3195C69.3739 38.6503 68.6242 37.9064 68.6242 36.9487C68.6242 35.9995 69.3654 35.2471 70.3195 35.2471ZM97.8617 46.2861H67.4319C66.4778 46.2861 65.7366 47.0386 65.7366 47.9878C65.7366 48.9455 66.4863 49.6894 67.4319 49.6894H97.8531C98.7732 49.6894 99.5484 48.9369 99.5484 47.9878C99.5569 47.0386 98.8073 46.2861 97.8617 46.2861ZM64.986 57.3335H97.8607C98.8063 57.3335 99.556 58.0774 99.5475 59.0351C99.5475 59.9843 98.7722 60.7368 97.8522 60.7368H64.986C64.0404 60.7368 63.2907 59.9928 63.2907 59.0351C63.2907 58.086 64.0319 57.3335 64.986 57.3335ZM97.8615 68.373H16.5309C15.5768 68.373 14.8356 69.1255 14.8356 70.0747C14.8356 71.0238 15.5853 71.7763 16.5309 71.7763H97.8615C98.7816 71.7763 99.5568 71.0238 99.5568 70.0747C99.5568 69.1255 98.8071 68.373 97.8615 68.373ZM91.7104 81.1225C91.7104 82.0717 90.9352 82.8242 90.0152 82.8242H24.3765C23.4309 82.8242 22.6812 82.0717 22.6812 81.1225C22.6812 80.1734 23.4224 79.4209 24.3765 79.4209H90.0152C90.9608 79.4209 91.7104 80.1734 91.7104 81.1225ZM97.8615 90.46H16.5309C15.5768 90.46 14.8356 91.2124 14.8356 92.1616C14.8356 93.1107 15.5853 93.8632 16.5309 93.8632H97.8615C98.7816 93.8632 99.5568 93.1107 99.5568 92.1616C99.5568 91.2124 98.8071 90.46 97.8615 90.46ZM90.0152 104.911H24.3765C23.4224 104.911 22.6812 104.159 22.6812 103.209C22.6812 102.26 23.4224 101.508 24.3765 101.508H90.0152C90.9608 101.508 91.7104 102.26 91.7104 103.209C91.7104 104.159 90.9352 104.911 90.0152 104.911ZM22.5034 54.8882C22.5801 54.9737 22.6653 55.0507 22.7675 55.1191C26.7885 58.6164 32.0277 60.7456 37.7524 60.7456C43.5112 60.7456 48.7845 58.6079 52.8139 55.0763C52.8651 55.0421 52.9076 54.9994 52.9502 54.9566L52.9503 54.9566C57.6953 50.741 60.694 44.5844 60.677 37.7351C60.677 25.0541 50.386 14.7246 37.7524 14.7246C25.1188 14.7246 14.8279 25.0541 14.8279 37.7351C14.8364 44.5416 17.801 50.6641 22.5034 54.8882ZM25.5532 52.9814C26.5585 47.0299 31.6443 42.6433 37.7524 42.6433C43.8605 42.6433 48.9549 47.0299 49.9516 52.9814C46.6036 55.6749 42.3612 57.2996 37.7524 57.2996C33.1436 57.2996 28.9012 55.6749 25.5532 52.9814ZM37.7524 18.1022C48.5204 18.1022 57.2779 26.9011 57.2779 37.7009C57.2779 42.4552 55.5826 46.8247 52.7628 50.2194C50.7353 43.772 44.772 39.2401 37.7524 39.2401C30.7328 39.2401 24.795 43.7806 22.7505 50.228C19.9307 46.8247 18.2269 42.4638 18.2269 37.7009C18.2269 26.8925 26.9929 18.1022 37.7524 18.1022ZM46.3721 29.4924C46.3721 34.2638 42.5386 38.1459 37.7509 38.1459C32.9973 38.1459 29.1297 34.2553 29.1297 29.4838C29.1297 24.7124 32.9973 20.8303 37.7509 20.8389C42.5045 20.8389 46.3721 24.721 46.3721 29.4924ZM42.9816 29.4496C42.9816 26.5509 40.6388 24.1994 37.7509 24.1994C34.8715 24.1994 32.5288 26.5509 32.5203 29.4496C32.5203 32.3484 34.863 34.6999 37.7509 34.6999C40.6388 34.6999 42.9816 32.3484 42.9816 29.4496ZM91.1992 113.3L80.6698 114.762C80.2268 114.83 79.8179 115.07 79.5453 115.412L65.5571 133.745C61.0761 129.213 58.6653 125.938 57.4385 123.552C63.7511 122.398 67.8317 120.345 68.9136 117.72C69.4247 116.566 69.2543 115.3 68.4365 114.343C66.9798 112.573 63.6829 112.06 59.5768 112.949C55.198 113.907 53.6646 116.19 53.162 117.96C52.9235 118.849 52.8553 119.764 52.9916 120.79L52.9909 120.79C52.4119 120.859 51.8328 120.927 51.2282 120.961C47.1836 121.301 44.9459 119.422 41.8522 116.824L41.7892 116.771C41.5266 116.555 41.2648 116.334 40.9996 116.11C40.3011 115.521 39.58 114.912 38.7649 114.317C38.2197 113.907 37.5467 113.838 36.9674 114.146C36.3882 114.454 36.0474 115.035 36.0474 115.677L36.1837 129.179C35.8173 131.31 34.9706 131.685 34.6463 131.828L34.6247 131.838C32.0094 132.89 26.2676 129.315 23.8908 127.443C23.1752 126.861 22.0933 126.964 21.514 127.716C20.9347 128.435 21.037 129.521 21.7866 130.102C22.7067 130.82 30.7486 137.054 35.877 135.01C37.2741 134.463 39.0376 133.069 39.5487 129.555C39.5828 129.452 39.5828 129.384 39.5828 129.281L39.4805 119.26C39.5487 119.294 39.5828 119.328 39.6168 119.362L39.6982 119.43C42.9987 122.201 46.1103 124.814 51.5349 124.339C52.3868 124.27 53.1961 124.202 53.9798 124.099C55.607 127.819 59.1083 132.248 64.5774 137.567C64.9182 137.875 65.3271 138.046 65.7701 138.046C65.8042 138.046 65.8723 138.046 65.8382 138.08C66.3153 138.012 66.7583 137.772 67.065 137.396L81.8028 118.071L91.6507 116.677C92.6049 116.575 93.2438 115.685 93.1075 114.77C92.9967 113.804 92.1193 113.163 91.1992 113.3ZM56.5014 118.917C56.8422 117.652 58.1626 116.771 60.3691 116.292C61.5617 116.053 62.5414 115.95 63.3251 115.95C64.7478 115.95 65.5656 116.258 65.8382 116.498C65.5316 117.284 62.9162 119.157 56.3992 120.311C56.3651 119.738 56.3992 119.26 56.5014 118.917ZM97.8624 27.7819H64.451C63.4968 27.7819 62.7472 27.0294 62.7557 26.0802V11.1504C62.7557 10.2012 63.4968 9.44873 64.451 9.44873H97.8624C98.808 9.44873 99.5576 10.1927 99.5576 11.1504V26.0802C99.5576 26.9952 98.7824 27.7819 97.8624 27.7819ZM96.1671 12.852H66.1462V24.3701H96.1671V12.852ZM71.4103 16.9053H70.0899C69.1358 16.9053 68.3946 17.6578 68.3946 18.6069C68.3946 19.5646 69.1443 20.3085 70.0899 20.3085H71.4103C72.3645 20.3085 73.1056 19.5561 73.1056 18.6069C73.1056 17.6578 72.3559 16.9053 71.4103 16.9053ZM77.0073 16.9053H78.3363C79.2904 16.9053 80.0316 17.6578 80.0316 18.6069C80.0316 19.5561 79.2904 20.3085 78.3363 20.3085H77.0073C76.0617 20.3085 75.3121 19.5646 75.3121 18.6069C75.3121 17.6578 76.0532 16.9053 77.0073 16.9053ZM85.2608 16.9053H83.9403C82.9862 16.9053 82.245 17.6578 82.245 18.6069C82.245 19.5646 82.9947 20.3085 83.9403 20.3085H85.2608C86.2149 20.3085 86.956 19.5561 86.956 18.6069C86.956 17.6578 86.2149 16.9053 85.2608 16.9053ZM90.8675 16.9053H92.1879C93.142 16.9053 93.8917 17.6578 93.8832 18.6069C93.8832 19.5561 93.142 20.3085 92.1879 20.3085H90.8675C89.9219 20.3085 89.1722 19.5646 89.1722 18.6069C89.1722 17.6578 89.9134 16.9053 90.8675 16.9053Z" fill="#0499BA"/>
</svg>
