<svg width="119" height="150" viewBox="0 0 119 150" fill="none" xmlns="http://www.w3.org/2000/svg">
<path fill-rule="evenodd" clip-rule="evenodd" d="M118.457 116.131V137.077C118.482 137.184 118.491 137.299 118.499 137.407L118.5 137.419C118.5 137.538 118.491 137.65 118.466 137.761V140.387C118.466 145.706 114.162 150 108.83 150H10.1362C4.80369 150 0.5 145.672 0.5 140.387V48.8796V48.8026C0.542865 42.807 5.44667 37.9405 11.465 37.9405H21.3069V1.70202C21.3069 0.752651 22.0527 0 23.0129 0H81.73C82.6816 0 83.4361 0.744099 83.4361 1.70202V37.9148H102.537C103.489 37.9148 104.243 38.6589 104.243 39.6168V56.4403H108.821C114.153 56.4403 118.457 60.768 118.457 66.0537V68.6709C118.483 68.7821 118.491 68.9018 118.491 69.0215C118.491 69.1413 118.483 69.2525 118.457 69.3637V90.3182V90.3353V90.3524V116.096V116.114V116.131ZM115.045 70.7407H3.91209V135.708H115.036V117.807H84.662C83.7104 117.807 82.956 117.063 82.956 116.105V90.3353C82.956 89.3859 83.7018 88.6332 84.662 88.6332H115.045V70.7407ZM86.3681 114.412H115.036V92.0458H86.3681V114.412ZM115.036 67.3366V66.0708C115.036 62.624 112.233 59.87 108.821 59.87H102.537C102.417 59.87 102.297 59.8614 102.185 59.8358H81.7557H81.73H71.4938H71.4423H33.3607H33.3006H33.2406H23.0215H23.0129H11.465C8.54156 59.8358 5.8839 58.6811 3.91209 56.8166V67.3366H115.036ZM35.0067 56.4232H69.7191V18.038C66.5471 17.4564 64.018 15.207 63.2979 12.376H41.4279C40.7164 15.207 38.1873 17.4222 35.0067 18.038V56.4232ZM100.822 56.4232V41.3189H83.4275V56.4232H100.822ZM80.0154 56.4232V3.41259H24.7276V39.6339V39.651V39.6681V56.4232H31.5946V16.4985C31.5946 15.5491 32.3405 14.7964 33.3006 14.7964C36.0355 14.7964 38.2216 12.9576 38.2216 10.7082C38.2216 9.75881 38.9675 9.00616 39.9276 9.00616H64.8153C65.7669 9.00616 66.5214 9.75026 66.5214 10.7082C66.5214 12.9576 68.7418 14.7964 71.4423 14.7964C72.3939 14.7964 73.1484 15.5405 73.1484 16.4985V56.4232H80.0154ZM21.3069 41.3531H11.465C7.28989 41.3531 3.91209 44.7314 3.91209 48.8881C3.91209 53.0448 7.29846 56.4232 11.465 56.4232H21.3069V41.3531ZM10.1276 146.596H108.821C112.267 146.596 115.036 143.799 115.045 140.395V139.129H3.91209V140.395C3.91209 143.833 6.70692 146.596 10.1276 146.596ZM107.313 103.233C107.313 106.842 104.346 109.81 100.72 109.81C97.1021 109.81 94.1272 106.842 94.1272 103.233C94.1272 99.6236 97.0935 96.6558 100.72 96.6558C104.338 96.6558 107.313 99.615 107.313 103.233ZM103.901 103.233C103.901 101.488 102.46 100.06 100.72 100.06C98.9796 100.06 97.5393 101.488 97.5393 103.233C97.5393 104.978 98.971 106.406 100.72 106.406C102.469 106.406 103.901 104.969 103.901 103.233ZM52.3678 34.7417C47.5497 34.7417 43.6233 38.6589 43.6233 43.4656C43.6233 48.2723 47.5497 52.1895 52.3678 52.1895C57.1859 52.1895 61.1124 48.2723 61.1124 43.4656C61.1209 38.6589 57.1859 34.7417 52.3678 34.7417ZM52.3678 48.7855C49.4272 48.7855 47.0353 46.3992 47.0353 43.4656C47.0353 40.532 49.4272 38.1457 52.3678 38.1457C55.3084 38.1457 57.7003 40.532 57.7003 43.4656C57.7003 46.3992 55.3084 48.7855 52.3678 48.7855ZM18.9146 103.233C18.9146 89.7282 29.9138 78.7549 43.4507 78.7549C56.9791 78.7549 67.9869 89.7282 67.9869 103.233C67.9869 116.738 56.9791 127.711 43.4507 127.711C29.9224 127.711 18.9146 116.738 18.9146 103.233ZM22.3352 103.233C22.3352 114.856 31.7999 124.299 43.4507 124.299C55.1016 124.299 64.5663 114.856 64.5663 103.233C64.5663 91.6098 55.0673 82.1675 43.4507 82.1675C31.7999 82.1675 22.3352 91.6098 22.3352 103.233Z" fill="#0499BA"/>
</svg>
