<svg width="171" height="150" viewBox="0 0 171 150" fill="none" xmlns="http://www.w3.org/2000/svg">
<path d="M137.054 76.1049V68.3C143.423 63.9133 147.62 56.5635 147.62 48.2453V40.4114C150.969 26.7188 150.351 16.8997 145.797 11.2349C142.892 7.62289 139.225 6.82884 137.546 6.65454C133.001 2.16137 127.684 -0.0755232 121.701 0.00194508C106.483 0.205299 92.4913 15.4181 91.9026 16.0669C91.4877 16.5221 91.314 17.1515 91.4394 17.7519C91.5552 18.3523 91.9605 18.8655 92.5202 19.1269C94.1896 19.9016 97.7214 22.2838 97.2968 24.3076C96.3898 28.6071 98.725 38.7458 99.1882 40.7116V48.255C99.1882 56.5732 103.376 63.9327 109.745 68.3096V76.1146C94.8168 76.8505 82.3107 86.9505 77.9394 100.682C74.9576 98.4061 71.6574 96.6631 68.1642 95.4913C68.1159 95.472 68.0677 95.4526 68.0098 95.4429C65.1728 94.5036 62.2103 93.942 59.1899 93.787V92.2861H66.572C72.0723 92.2861 76.5498 87.7929 76.5498 82.2733V55.0529C76.5498 38.1357 62.8279 24.3657 45.9697 24.3657C29.1116 24.3657 15.3896 38.1357 15.3896 55.0529V82.2539C15.3896 87.7736 19.8671 92.2667 25.3675 92.2667H32.7399V93.7677C15.322 94.6586 1.32023 108.777 0.528949 126.285C0.50965 126.411 0.5 126.537 0.5 126.663C0.5 126.74 0.50965 126.818 0.5193 126.895C0.50965 127.215 0.5 127.534 0.5 127.854V148.073C0.5 149.138 1.35883 150 2.4203 150H78.1903H168.58C169.641 150 170.5 149.138 170.5 148.073V111.411C170.519 92.5088 155.659 77.0248 137.054 76.1049ZM145.324 81.5761L131.959 94.6779L126.159 88.3546L135.838 79.9396C139.148 79.988 142.332 80.5593 145.324 81.5761ZM126.989 135.397L123.39 139.551L119.79 135.397V107.17H126.989V135.397ZM110.922 79.9299L120.64 88.3546L114.84 94.6779L101.466 81.5664C104.447 80.5593 107.622 79.988 110.922 79.9299ZM123.399 91.0466L129.218 97.3893L127.481 103.316H119.318L117.581 97.3893L123.399 91.0466ZM142.11 38.3778C141.232 34.3979 137.691 31.4154 133.464 31.4154C129.46 31.4154 126.063 34.0977 124.972 37.7581C123.766 37.516 122.695 37.5644 121.817 37.729C120.717 34.0783 117.33 31.4154 113.335 31.4154C109.108 31.4154 105.567 34.3979 104.689 38.3778H103.521C105.094 32.2869 109.195 24.2592 116.973 24.0559C126.912 23.8041 133.541 21.8093 135.375 21.1895C140.18 22.2741 142.689 32.7129 143.529 38.3778H142.11ZM138.482 40.3242C138.472 43.0937 136.224 45.3403 133.464 45.3403C130.695 45.3403 128.446 43.084 128.446 40.3048C128.446 37.5257 130.695 35.2694 133.464 35.2694C136.224 35.2694 138.472 37.516 138.482 40.2855V40.2952C138.482 40.3145 138.482 40.3145 138.482 40.3242ZM108.317 40.2758C108.336 37.516 110.575 35.2694 113.335 35.2694C116.095 35.2694 118.333 37.516 118.353 40.2758C118.353 40.2952 118.353 40.3145 118.353 40.3339C118.333 43.0937 116.095 45.3306 113.335 45.3306C110.575 45.3306 108.336 43.084 108.317 40.3242C108.317 40.3145 108.317 40.3048 108.317 40.2952C108.317 40.2952 108.317 40.2855 108.317 40.2758ZM96.4573 16.9481C100.491 13.0747 111.067 4.00125 121.769 3.86568C126.883 3.79789 131.418 5.82175 135.307 9.87916C135.684 10.2762 136.195 10.4795 136.755 10.4699C136.784 10.4699 140.219 10.4505 142.805 13.6654C144.783 16.125 146.578 20.8409 145.633 29.8369C143.925 24.0655 140.837 17.9262 135.423 17.2967C135.114 17.258 134.805 17.2967 134.516 17.413C134.448 17.4323 127.761 19.9404 116.876 20.2115C109.6 20.3955 104.389 25.7698 101.475 32.4515C101.002 29.4205 100.742 26.5445 101.051 25.1017C101.842 21.3445 98.7733 18.5072 96.4573 16.9481ZM103.029 48.2453V42.2416H104.689C105.567 46.2215 109.118 49.204 113.335 49.204C117.783 49.204 121.479 45.9019 122.106 41.6024C122.685 41.4378 123.592 41.341 124.712 41.6702C125.368 45.931 129.045 49.204 133.474 49.204C137.7 49.204 141.242 46.2215 142.12 42.2416H143.77V48.2453C143.77 55.5177 139.968 61.9088 134.246 65.5305C134.14 65.5886 134.043 65.6467 133.947 65.7241C130.868 67.6027 127.25 68.6873 123.39 68.6873C119.52 68.6873 115.902 67.6027 112.823 65.7145C112.736 65.6467 112.65 65.5886 112.553 65.5401C106.831 61.9088 103.029 55.5177 103.029 48.2453ZM123.399 72.551C126.893 72.551 130.203 71.8054 133.204 70.4594V77.1217L123.399 85.6432L113.586 77.141V70.4594C116.587 71.7957 119.906 72.551 123.399 72.551ZM97.6056 83.1739L113.566 98.8225C113.721 98.9774 113.904 99.0936 114.097 99.1905L115.95 105.504V136.114C115.95 136.579 116.124 137.024 116.423 137.382L121.942 143.744C122.309 144.161 122.83 144.413 123.39 144.413C123.95 144.413 124.471 144.171 124.837 143.744L130.357 137.382C130.666 137.034 130.83 136.579 130.83 136.114V105.553L132.692 99.1905C132.885 99.1033 133.059 98.9774 133.223 98.8225L149.174 83.1836C159.519 88.3352 166.659 99.0452 166.659 111.401V123.467H149.618V111.866C149.618 110.801 148.759 109.939 147.698 109.939C146.636 109.939 145.777 110.801 145.777 111.866V125.355C145.777 125.365 145.777 125.384 145.777 125.394C145.777 125.404 145.777 125.423 145.777 125.433V146.136H101.012V111.866C101.012 110.801 100.153 109.939 99.0917 109.939C98.0302 109.939 97.1714 110.801 97.1714 111.866V123.467H80.1203V111.401C80.1203 109.068 80.3808 106.792 80.8633 104.594C80.8826 104.516 80.9019 104.439 80.9115 104.361C83.0345 95.0556 89.2779 87.3184 97.6056 83.1739ZM71.3197 128.599H76.2796V146.136H71.3197V128.599ZM76.27 111.401V124.736H71.31V119.477C71.31 118.412 70.4512 117.55 69.3897 117.55C68.3282 117.55 67.4694 118.412 67.4694 119.477V126.576C67.4694 126.605 67.4598 126.643 67.4598 126.672C67.4598 126.701 67.4598 126.74 67.4694 126.769V146.136H47.8997V120.736L57.8582 114.006L63.1077 115.652C63.6191 115.807 64.1692 115.749 64.642 115.478C65.1052 115.207 65.4333 114.762 65.5587 114.239L68.8493 99.8586C71.7443 101.059 74.4655 102.715 76.9069 104.788C76.4919 106.928 76.27 109.135 76.27 111.401ZM57.5205 41.0021C62.0848 42.0576 64.478 51.9735 65.2886 57.4253H64.063C63.1849 53.581 59.7592 50.7147 55.6677 50.7147C51.7982 50.7147 48.5076 53.2905 47.4365 56.8346C46.3557 56.6313 45.3521 56.6507 44.4933 56.7862C43.4029 53.2711 40.1316 50.7147 36.2717 50.7147C32.1802 50.7147 28.7545 53.5907 27.8764 57.4253H26.8921C28.4168 51.5862 32.3442 43.9555 39.7746 43.7716C49.3278 43.5295 55.716 41.6121 57.5205 41.0021ZM60.4347 59.3814C60.4154 62.0057 58.2925 64.136 55.6774 64.136C53.0526 64.136 50.92 61.996 50.92 59.3621C50.92 56.7281 53.0526 54.5881 55.6774 54.5881C58.2925 54.5881 60.4251 56.7184 60.4347 59.3427C60.4347 59.3524 60.4347 59.3621 60.4347 59.3717C60.4347 59.3621 60.4347 59.3717 60.4347 59.3814ZM41.0387 59.4008C41.0194 62.0153 38.8964 64.136 36.2813 64.136C33.6566 64.136 31.524 61.996 31.524 59.3621C31.524 56.7281 33.6566 54.5881 36.2813 54.5881C38.8964 54.5881 41.0194 56.7088 41.0387 59.333C41.0387 59.3427 41.0387 59.3717 41.0387 59.4008ZM26.4096 61.2891H27.886C28.7642 65.1238 32.1898 67.9901 36.2717 67.9901C40.5755 67.9901 44.1556 64.8042 44.7828 60.6596C45.3232 60.5144 46.1434 60.4369 47.1663 60.7274C47.8225 64.8429 51.3832 67.9901 55.6677 67.9901C59.7496 67.9901 63.1753 65.1238 64.0534 61.2891H65.5298V67.0024C65.5298 73.9551 61.9111 80.0655 56.4687 83.5515C56.3143 83.6193 56.1599 83.7162 56.0344 83.8227C53.0912 85.6044 49.6559 86.6212 45.9697 86.6212C42.2739 86.6212 38.8096 85.5851 35.8664 83.7936C35.7603 83.7065 35.6445 83.6387 35.5287 83.5806C30.0572 80.0945 26.4193 73.9648 26.4193 67.0024V61.2891H26.4096ZM36.5901 88.5095C39.4658 89.7781 42.6309 90.485 45.9697 90.485C49.2989 90.485 52.4737 89.7781 55.3396 88.5095V95.2299L45.9697 115.178L36.5901 95.2299V88.5095ZM65.1824 98.6191L62.2682 111.353L58.1188 110.055C57.5687 109.881 56.9608 109.968 56.4687 110.297L50.6788 114.21L58.4758 97.6217C60.7532 97.6895 63.0016 98.0284 65.1824 98.6191ZM72.7092 55.0529V82.2539C72.7092 85.6432 69.959 88.403 66.5816 88.403H59.1996V86.3598C65.3465 82.1184 69.3897 75.0203 69.3897 66.983V59.2265C69.3897 59.1684 69.3897 59.1006 69.3801 59.0425C69.1774 56.9702 67.2282 39.2784 58.389 37.2352C58.0416 36.7316 57.781 36.1603 57.8003 35.9182C57.8389 35.8795 57.9451 35.802 58.1574 35.7052C59.9136 34.9305 61.1102 34.1558 61.9111 33.5167C68.4537 38.4166 72.7092 46.2505 72.7092 55.0529ZM25.3675 88.4127C21.99 88.4127 19.2399 85.6529 19.2399 82.2636V55.0529C19.2399 40.2564 31.2345 28.2198 45.9794 28.2198C50.4472 28.2198 54.6545 29.3237 58.36 31.2798C57.8872 31.5606 57.3178 31.8608 56.6134 32.1707C54.8282 32.955 54.2299 34.2042 54.0369 35.1145C53.8343 36.1119 54.0369 37.0802 54.3843 37.913C51.6341 38.649 46.5198 39.7335 39.6974 39.9078C30.1441 40.1499 24.2674 49.6107 22.6462 58.965C22.6462 58.9747 22.6462 58.9747 22.6462 58.9844C22.6366 59.0522 22.6173 59.12 22.6076 59.1877C22.5883 59.2943 22.5787 59.4008 22.5787 59.5073V67.0024C22.5787 75.03 26.6123 82.1281 32.7592 86.3694V88.4224H25.3675V88.4127ZM33.454 97.612L41.251 114.21L35.4611 110.297C34.9786 109.968 34.3707 109.881 33.811 110.055L29.6616 111.353L26.7474 98.6094C28.8993 98.0284 31.1477 97.6895 33.454 97.612ZM23.0901 99.8392L26.3903 114.239C26.5061 114.762 26.8439 115.217 27.3071 115.478C27.7702 115.749 28.3299 115.807 28.8414 115.652L34.0908 114.006L44.0591 120.736V146.127H24.4797V119.468C24.4797 118.403 23.6208 117.541 22.5594 117.541C21.4979 117.541 20.6391 118.403 20.6391 119.468V124.726H4.50465C5.65298 113.454 13.0158 103.984 23.0901 99.8392ZM4.34061 128.599H20.6294V146.136H4.34061V128.599ZM80.1203 128.473C80.651 128.28 81.0659 127.854 81.2589 127.331H97.1714V146.136H80.1203V128.473ZM149.628 146.136V127.331H166.669V146.136H149.628Z" fill="#0499BA"/>
</svg>
