<svg width="188" height="24" viewBox="0 0 188 24" fill="none" xmlns="http://www.w3.org/2000/svg">
<g clip-path="url(#clip0_3_4346)">
<path fill-rule="evenodd" clip-rule="evenodd" d="M59.8908 0.446739C60.0617 0.171313 60.3751 0.00985833 60.7076 0.0288532H67.6502C67.4317 0.456237 67.2228 0.893118 67.0044 1.3205C66.8429 1.67191 66.596 1.97582 66.2825 2.20376C66.1211 2.32723 65.9216 2.38421 65.7127 2.38421H63.3003C63.1389 2.36522 62.9774 2.38421 62.8255 2.4317C62.5026 2.54567 62.2936 2.84959 62.2936 3.1915V10.59C63.7372 10.59 65.1808 10.59 66.6245 10.59C66.425 10.9984 66.2161 11.3973 66.0166 11.8057C65.8457 12.1666 65.5987 12.4895 65.2853 12.7364C65.1239 12.8599 64.9244 12.9359 64.7155 12.9359C63.9082 12.9359 63.1009 12.9359 62.2841 12.9359C62.2841 16.2505 62.2841 19.5651 62.2841 22.8892C62.3031 23.0981 62.2841 23.307 62.2081 23.5065C62.0657 23.8009 61.7713 23.9814 61.4579 23.9814C60.8975 23.9814 60.3372 23.9814 59.7863 23.9814C59.7863 16.3739 59.7863 8.77598 59.7863 1.16854C59.7483 0.92161 59.7863 0.66518 59.8908 0.446739ZM40.687 0.0478467C41.2663 0.0478467 41.8362 0.0478467 42.4155 0.0478467C42.7479 0.0573441 43.0423 0.266289 43.1563 0.579704C43.2038 0.760155 43.2133 0.940606 43.1943 1.12106C43.1943 7.95921 43.1943 14.7974 43.1943 21.6355C45.0463 21.6355 46.8888 21.6355 48.7408 21.6355C48.5414 22.0344 48.3419 22.4428 48.133 22.8417C47.981 23.1551 47.7721 23.4495 47.5156 23.6869C47.3257 23.8674 47.0692 23.9719 46.8033 23.9719C44.7614 23.9719 42.7194 23.9719 40.6775 23.9719C40.687 15.994 40.687 8.01619 40.687 0.0478467ZM22.7273 0.0478467C23.3067 0.0478467 23.8955 0.0478467 24.4749 0.0478467C24.8738 0.076339 25.1872 0.389755 25.2252 0.788647C26.4123 8.51955 27.609 16.2505 28.7962 23.9814C27.9699 23.9814 27.1531 23.9814 26.3269 23.9814C25.719 19.736 25.1112 15.4907 24.4939 11.2358C24.2944 9.90618 24.1235 8.57654 23.9145 7.25639C23.6486 9.27935 23.3352 11.3023 23.0598 13.3348C22.5564 16.8868 22.053 20.4388 21.5497 23.9814C20.7234 23.9814 19.8971 23.9814 19.0708 23.9814C20.296 16.0035 21.5117 8.02569 22.7273 0.0478467ZM2.50732 2.25125C2.50732 5.32842 2.50732 8.40558 2.50732 11.4828C3.26711 11.4828 4.01741 11.4828 4.7772 11.4828C5.00514 11.5017 5.23308 11.4638 5.45152 11.3688C5.86941 11.1693 6.12584 10.7325 6.11635 10.2766C6.11635 8.00669 6.11635 5.7463 6.11635 3.47642C6.13534 3.04903 5.9169 2.65014 5.55599 2.4222C5.30906 2.27974 5.01464 2.22276 4.72972 2.25125C3.97943 2.25125 3.23862 2.25125 2.50732 2.25125ZM0 0.0478467H6.14484C6.73368 0.0478467 7.29403 0.275785 7.71191 0.684174C8.1488 1.13055 8.41472 1.71939 8.46221 2.34622C8.46221 4.97701 8.46221 7.6078 8.46221 10.2386C8.4907 10.7325 8.37673 11.2263 8.1298 11.6537C7.89236 12.0336 7.55995 12.328 7.16106 12.5275C7.65493 12.7174 8.05382 13.1068 8.27226 13.5912C8.43371 14.0091 8.5002 14.4649 8.46221 14.9113C8.46221 17.9315 8.47171 20.9612 8.45271 23.9814C7.62644 23.9814 6.80016 23.9814 5.97388 23.9814C5.98338 20.9232 5.97388 17.8745 5.97388 14.8163C6.07835 14.313 5.74594 13.8286 5.25208 13.7241C5.1761 13.7051 5.10962 13.7051 5.03364 13.7051C4.18837 13.6767 3.34309 13.6862 2.50732 13.6767C2.49782 17.1052 2.50732 20.5433 2.50732 23.9719C1.67155 23.9719 0.835774 23.9719 0 23.9719C0 15.994 0 8.02569 0 0.0478467Z" fill="white"/>
<path fill-rule="evenodd" clip-rule="evenodd" d="M81.7351 0.038107C83.7865 0.038107 85.8285 0.038107 87.8799 0.038107C88.5162 0.0286096 89.1241 0.304034 89.542 0.778905C89.9599 1.26327 90.1973 1.88061 90.1973 2.51693C90.1973 4.56838 90.1973 6.61982 90.1973 8.67127C90.1783 9.36458 90.2258 10.0579 90.1688 10.7512C90.0738 11.511 89.6085 12.1758 88.9246 12.5082C89.352 12.6982 89.7129 13.0211 89.9409 13.439C90.1118 13.7809 90.1973 14.1513 90.1878 14.5312C90.1783 15.8418 90.2258 17.1525 90.2068 18.4631C90.1783 20.3056 90.1878 22.1386 90.1878 23.9811C89.3615 23.9811 88.5257 23.9811 87.709 23.9811C87.709 20.885 87.709 17.7888 87.709 14.6926C87.728 14.3792 87.595 14.0753 87.3386 13.8949C86.9967 13.7334 86.6168 13.6669 86.2464 13.7144C85.572 13.6954 84.8977 13.6764 84.2234 13.7049C84.2234 17.143 84.2329 20.5715 84.2139 24.0001C83.3876 23.9906 82.5519 24.0001 81.7256 24.0001C81.7351 16.0033 81.7351 8.02544 81.7351 0.038107ZM84.2234 2.2605C84.2329 5.32817 84.2329 8.39584 84.2234 11.454C85.0497 11.4825 85.8665 11.4635 86.6927 11.4635C87.3006 11.454 87.7944 10.9791 87.8229 10.3713C87.8229 8.04444 87.8229 5.72707 87.8229 3.4002C87.8229 2.77337 87.3196 2.2605 86.6927 2.25101C85.876 2.25101 85.0497 2.25101 84.2234 2.2605ZM103.114 0.038107C103.693 0.0476044 104.272 0.0286096 104.852 0.038107C105.317 0.0571018 105.669 0.455992 105.65 0.911869C105.65 0.949858 105.64 0.987849 105.631 1.02584C105.631 8.67127 105.631 16.3167 105.631 23.9621C105.051 23.9621 104.472 23.9716 103.893 23.9526C103.475 23.9431 103.133 23.6107 103.114 23.1928C103.114 15.4714 103.114 7.75002 103.114 0.038107ZM119.183 0.0476028C119.848 -0.0663663 120.542 0.0191108 121.159 0.294536C121.501 0.512977 121.757 0.854884 121.852 1.24428C122.745 5.56561 123.628 9.88694 124.53 14.1988C124.559 9.47855 124.53 4.75833 124.54 0.038107C125.309 0.038107 126.079 0.0191105 126.857 0.0476028C126.857 7.91147 126.857 15.7753 126.857 23.6392C126.857 23.7437 126.848 23.8577 126.848 23.9716C126.326 24.0286 125.803 23.9716 125.309 23.8007C124.806 23.5632 124.445 23.0979 124.331 22.5565C123.514 19.0425 122.707 15.5284 121.9 12.0144C121.786 11.568 121.71 11.1026 121.577 10.6562C121.558 15.0915 121.567 19.5268 121.567 23.9716C120.779 23.9811 119.991 23.9716 119.202 23.9716C119.174 15.9938 119.193 8.02544 119.183 0.0476028ZM141.189 0.152075C141.673 0.0286086 142.167 -0.00938014 142.671 0.038107C143.411 0.0476044 144.152 0.0191108 144.893 0.0571005C146.147 0.256546 147.077 1.32026 147.115 2.59291C147.125 3.95105 147.125 5.30918 147.115 6.67681C147.058 7.16118 146.754 7.57906 146.318 7.7975C145.814 8.07293 145.292 8.33886 144.779 8.58579C144.751 6.85726 144.779 5.13822 144.76 3.40969C144.703 2.56442 143.962 1.92809 143.117 1.98508C143.022 1.99458 142.937 2.00407 142.851 2.03257C142.205 2.2605 141.778 2.87784 141.806 3.56165C141.806 9.17463 141.806 14.7781 141.806 20.3911C141.787 21.1604 142.357 21.8252 143.126 21.9297C143.801 21.9772 144.418 21.5593 144.627 20.9135C144.703 20.6475 144.741 20.3626 144.722 20.0872C144.713 17.9218 144.732 15.7469 144.713 13.5814C144.19 13.3535 143.772 12.9166 143.573 12.3753C143.392 11.9954 143.193 11.6155 143.003 11.2356C144.029 11.2261 145.054 11.2356 146.08 11.2356C146.479 11.2166 146.849 11.4445 147.03 11.8054C147.115 12.0144 147.144 12.2328 147.125 12.4512C147.125 15.215 147.125 17.9882 147.125 20.752C147.153 21.1889 147.115 21.6258 147.02 22.0531C146.802 22.8604 146.213 23.5157 145.434 23.8197C144.826 23.9811 144.2 24.0381 143.573 23.9811C142.899 23.9621 142.234 24.0191 141.578 23.9431C140.315 23.6867 139.413 22.566 139.432 21.2839C139.432 15.4049 139.432 9.51654 139.432 3.63763C139.394 3.07728 139.432 2.51693 139.546 1.97558C139.774 1.13031 140.401 0.455993 141.227 0.161573L141.189 0.152075ZM161.039 0.883377C161.02 0.436998 161.362 0.0571018 161.808 0.038107C161.827 0.038107 161.836 0.038107 161.855 0.038107C163.992 0.038107 166.139 0.038107 168.276 0.038107C168 0.636445 167.687 1.21579 167.345 1.77614C167.126 2.13704 166.728 2.37447 166.3 2.38397C165.654 2.38397 165.009 2.38397 164.363 2.38397C163.926 2.38397 163.565 2.73538 163.555 3.17226C163.555 5.53712 163.555 7.89248 163.555 10.2573C164.79 10.2573 166.015 10.2478 167.25 10.2668C166.993 10.7797 166.747 11.3021 166.471 11.7959C166.262 12.2138 165.873 12.5082 165.417 12.6127C164.8 12.6127 164.182 12.6127 163.555 12.6127C163.555 15.6139 163.546 18.6056 163.555 21.6068C165.208 21.6068 166.861 21.6068 168.513 21.6068C168.304 22.0626 168.076 22.5185 167.839 22.9649C167.658 23.3543 167.354 23.6772 166.984 23.8861C166.718 23.9811 166.433 24.0096 166.148 23.9811C164.448 23.9811 162.748 23.9811 161.048 23.9811C161.029 16.2882 161.039 8.58579 161.039 0.892875V0.883377ZM179.093 23.9716C179.084 15.9938 179.084 8.01595 179.093 0.038107C181.135 0.0286096 183.168 0.0381068 185.21 0.0286094C185.903 0.0191119 186.549 0.332526 186.976 0.87388C187.346 1.33925 187.546 1.9091 187.536 2.49794C187.536 4.89129 187.536 7.29414 187.536 9.68749C187.574 10.2004 187.536 10.7227 187.403 11.2261C187.204 11.7674 186.815 12.2138 186.302 12.4702C186.71 12.6792 187.052 12.9926 187.28 13.3915C187.527 13.9993 187.622 14.6641 187.555 15.3195C187.565 17.2949 187.555 19.2704 187.555 21.2554C187.517 22.1576 187.536 23.0504 187.536 23.9526C186.71 23.9621 185.893 23.9526 185.067 23.9526C185.039 20.7995 185.077 17.6463 185.048 14.4932C185.01 14.0373 184.63 13.6764 184.165 13.6859C183.301 13.6574 182.446 13.6289 181.591 13.6574C181.591 17.086 181.591 20.5146 181.591 23.9431C180.755 23.9526 179.929 23.9431 179.093 23.9431V23.9716ZM181.591 2.25101C181.582 5.31868 181.582 8.38634 181.591 11.4635C182.398 11.473 183.206 11.4635 184.022 11.4635C184.659 11.4635 185.181 10.9507 185.181 10.3048C185.181 10.2953 185.181 10.2953 185.181 10.2858C185.2 8.01595 185.191 5.74606 185.181 3.47617C185.21 2.83985 184.725 2.29849 184.089 2.2605C183.263 2.24151 182.427 2.2605 181.591 2.25101Z" fill="#0499BA"/>
</g>
<defs>
<clipPath id="clip0_3_4346">
<rect width="187.574" height="24" fill="white"/>
</clipPath>
</defs>
</svg>
