<svg width="100" height="104" viewBox="0 0 100 104" fill="none" xmlns="http://www.w3.org/2000/svg">
<path id="Union" fill-rule="evenodd" clip-rule="evenodd" d="M94.3736 11.257C94.8951 11.257 95.41 11.3411 95.9035 11.5071L95.905 11.507C98.4249 12.353 99.7859 15.0817 98.9405 17.6024L88.1673 49.9256C85.8481 56.8776 79.3374 61.5663 72.0084 61.559H10.7934L5.55517 70.9815C5.43862 71.1932 5.37518 71.4359 5.37518 71.6794C5.37221 72.4901 6.02434 73.1459 6.83136 73.1496H82.3799C85.8662 73.1775 85.8065 78.4093 82.3799 78.4373H6.83136C1.81519 78.5495 -1.61504 72.7475 0.933651 68.4114L6.68312 58.0616L12.6156 14.1658C13.4542 9.74851 9.95774 5.20811 5.38252 5.28925C1.91396 5.2613 1.93454 0.0369287 5.38252 0.00151978C13.0885 -0.122553 19.1478 7.35109 17.8472 14.8702L12.263 56.2694H71.9993C77.0545 56.2732 81.5456 53.0369 83.139 48.2391L93.7145 16.5448H26.5489C25.0898 16.541 23.9051 15.36 23.9051 13.9009C23.9051 12.4417 25.0898 11.257 26.5489 11.257H94.3736ZM15.6493 82.7509C1.64054 83.1102 1.62959 103.641 15.6419 104C29.6549 103.651 29.6587 83.1097 15.6493 82.7509ZM15.6463 98.7129C8.62797 98.5963 8.62797 88.1514 15.6463 88.0387C22.6543 88.1655 22.6573 98.5898 15.6463 98.7129ZM64.8895 82.7509C50.8808 83.1102 50.8698 103.641 64.8821 104C78.8944 103.651 78.8982 83.1097 64.8895 82.7509ZM64.8858 98.7129C57.8675 98.5963 57.8675 88.1588 64.8821 88.0387C71.8938 88.1626 71.8974 98.5898 64.8858 98.7129ZM75.9084 32.0416C79.3527 32.0313 79.377 26.7678 75.9084 26.7539H31.0685C27.6243 26.7679 27.5999 32.0276 31.0685 32.0416H75.9084ZM43.9454 46.0541C37.6455 46.0532 31.2487 46.0523 31.0682 46.0541C27.607 46.0401 27.6174 40.7811 31.0682 40.7664H56.2453C59.7073 40.7804 59.6962 46.0401 56.2453 46.0541C56.3309 46.056 50.1857 46.055 43.9454 46.0541Z" fill="#0499BA"/>
</svg>
