<svg width="105" height="104" viewBox="0 0 105 104" fill="none" xmlns="http://www.w3.org/2000/svg">
<path id="Union" fill-rule="evenodd" clip-rule="evenodd" d="M76.1584 73.7927H99.6287L99.6264 73.7928C100.959 73.7936 102.237 74.324 103.18 75.2664C104.122 76.2089 104.652 77.4873 104.653 78.8202V88.6149C104.655 89.133 104.451 89.6299 104.084 89.9963C103.718 90.3627 103.221 90.5673 102.703 90.5652H87.883V93.9454H90.9595C91.4775 93.9433 91.9751 94.1479 92.3407 94.5143C92.7071 94.8799 92.9117 95.3776 92.9095 95.8957V102.05C92.9117 102.568 92.7071 103.065 92.3407 103.431C91.9751 103.798 91.4775 104.002 90.9595 104H74.7097C73.6461 103.986 72.7937 103.114 72.8031 102.05V95.8957C72.7938 94.8313 73.6462 93.9599 74.7097 93.9454H77.8298V90.5652H27.4776V93.9454H30.5977C31.6613 93.9599 32.5137 94.8313 32.5042 95.8957V102.05C32.5135 103.114 31.6612 103.986 30.5977 104H14.3479C13.8299 104.002 13.3322 103.798 12.9666 103.431C12.6003 103.065 12.3957 102.568 12.3979 102.05V95.8957C12.3957 95.3776 12.6003 94.8799 12.9666 94.5143C13.3322 94.1479 13.8299 93.9433 14.3479 93.9454H17.4244V90.5652H2.60432C2.08634 90.5673 1.58943 90.3627 1.22308 89.9963C0.856722 89.6299 0.652156 89.133 0.654333 88.6149V78.8202C0.655781 77.4873 1.18536 76.2089 2.1277 75.2664C3.07001 74.324 4.34831 73.7936 5.68094 73.7928H13.5071V61.3541C13.5071 60.9064 13.6855 60.4769 14.0025 60.1606C14.3196 59.8443 14.749 59.6672 15.1973 59.6687H35.6109H35.7712C36.0062 59.6839 36.2355 59.7507 36.443 59.8638C36.6468 59.9698 36.8267 60.1178 36.9718 60.297C37.1031 60.461 37.2018 60.6496 37.262 60.8513C37.3084 61.0153 37.3316 61.1843 37.3309 61.3541V73.7971H48.2073V63.8289C48.2021 59.7696 49.9644 55.9082 53.0336 53.252C56.1031 50.5958 60.1771 49.4066 64.1931 49.9951L76.7165 39.4856C76.6896 37.8104 76.9639 36.1445 77.5268 34.5665L70.3726 22.1547C68.2913 21.3276 66.4995 19.9062 65.2205 18.0677H33.2928C32.5028 19.2256 31.5089 20.2298 30.3591 21.0323V23.9534L40.3781 33.9818C40.6922 34.293 40.8685 34.7175 40.8678 35.1608V41.7393C40.87 42.1826 40.693 42.607 40.3781 42.9183H40.3774L28.2444 55.053C27.7504 55.521 27.0286 55.6566 26.3989 55.3998C25.7787 55.1488 25.3797 54.5386 25.3978 53.8696V44.0232C25.3964 43.5814 25.5712 43.1577 25.8831 42.8442L30.2815 38.4496L27.1788 35.3465C26.1554 35.9755 24.9779 36.3079 23.7773 36.3079C22.5761 36.3079 21.3987 35.9755 20.3758 35.3465L17.2818 38.4409L21.6715 42.8442C21.9856 43.1555 22.1627 43.5807 22.1612 44.0232V53.8572C22.1772 54.5261 21.7767 55.1363 21.1557 55.3866C20.5253 55.6435 19.8035 55.5078 19.3095 55.0398L7.17652 42.9051C6.86095 42.5939 6.68467 42.1694 6.68685 41.7261V35.1606C6.68757 34.718 6.86313 34.2943 7.17652 33.9816L17.1775 23.9792V21.0146C14.415 19.0608 12.6522 15.9909 12.3562 12.6202C12.0609 9.24993 13.2638 5.91963 15.6439 3.51524C18.0249 1.11149 21.3423 -0.123398 24.7156 0.139255C28.0881 0.402076 31.1749 2.13539 33.1546 4.87931H65.2215C66.6042 2.97177 68.5252 1.52149 70.7385 0.714674C72.9511 -0.0921196 75.3551 -0.219091 77.6403 0.350459C80.3309 1.12889 82.6567 2.84047 84.1997 5.17892C85.7428 7.51738 86.4022 10.3287 86.0598 13.109L93.2402 25.5565C96.435 26.1754 99.3173 27.881 101.398 30.3835C103.478 32.886 104.629 36.0318 104.654 39.286C104.609 43.3373 102.826 47.1734 99.7576 49.8186C96.6904 52.4647 92.6344 53.6655 88.6213 53.1155L76.1584 63.5995V73.7927ZM13.7422 39.6195C13.0922 38.9665 13.0922 37.9101 13.7422 37.2579L18.0413 32.9627C17.4232 31.6415 17.1164 30.1954 17.1446 28.7371L10.0244 35.8314V41.0321L18.8298 49.8257V44.7121L13.7422 39.6195ZM26.1342 32.1218C26.7487 31.4746 27.0701 30.6032 27.0244 29.7122V22.6222C24.9032 23.2491 22.6456 23.2491 20.5244 22.6222V29.7122C20.478 30.6033 20.8001 31.4747 21.4145 32.1218C22.029 32.769 22.8821 33.1347 23.7744 33.1347C24.6667 33.1347 25.5198 32.7691 26.1342 32.1218ZM37.5411 35.8532L30.3999 28.711C30.4238 30.1679 30.1141 31.6102 29.4945 32.9278V32.9286L33.8276 37.2622C34.4783 37.9145 34.4783 38.9709 33.8276 39.6239L28.7357 44.7165V49.8258L37.5411 41.0539V35.8532ZM18.0006 17.3657C19.5342 18.8994 21.614 19.7614 23.7831 19.7614C25.9508 19.7606 28.0291 18.8993 29.5619 17.3663C31.0948 15.8339 31.9573 13.756 31.9595 11.5881C31.961 9.41867 31.1005 7.33779 29.567 5.80327C28.0341 4.26877 25.9543 3.4061 23.7859 3.40538C21.6168 3.40464 19.5362 4.26593 18.0026 5.799C16.4684 7.33283 15.6066 9.41292 15.6058 11.5823C15.6053 13.751 16.467 15.8319 18.0006 17.3657ZM34.8553 14.721H63.6145C62.9957 12.598 62.9971 10.3424 63.6188 8.2201H34.7944C35.4386 10.3366 35.4596 12.5937 34.8553 14.721ZM98.2075 31.7582V31.7575L98.2162 31.7582C95.5291 29.0693 91.6124 28.018 87.9403 29.0011C84.2688 29.9835 81.4004 32.8507 80.416 36.5228C79.431 40.1941 80.4799 44.1119 83.1662 46.8008C85.1604 48.7902 87.8677 49.8988 90.6846 49.8778C93.5022 49.8982 96.211 48.7903 98.2075 46.8008C100.165 44.7867 101.262 42.0884 101.262 39.2791C101.262 36.4698 100.165 33.7716 98.2075 31.7582ZM66.567 10.0834C66.2457 11.972 66.6047 13.9136 67.5797 15.562L67.5664 15.5708C68.6495 17.4499 70.4357 18.8212 72.5299 19.3834C74.625 19.945 76.8572 19.6512 78.7346 18.5665C80.6127 17.481 81.9824 15.694 82.5424 13.5987C83.1163 11.5064 82.8246 9.27027 81.7321 7.39542C80.6398 5.52057 78.8391 4.16379 76.7361 3.63124C76.0295 3.44114 75.3012 3.34464 74.5692 3.34464C72.6541 3.33963 70.7984 4.01358 69.3338 5.24772C67.8685 6.48103 66.8877 8.19484 66.567 10.0834ZM74.6996 22.982C78.7634 22.9101 82.505 20.7545 84.6051 17.2743L89.2894 25.3874H89.2901C85.3262 25.7871 81.7201 27.8571 79.3754 31.0778L74.6996 22.982ZM84.8046 51.9932C81.1869 50.3128 78.4563 47.1699 77.2992 43.3513L68.0303 51.1261C71.6299 52.834 74.3554 55.9641 75.5531 59.7637L84.8046 51.9932ZM51.5334 63.816V67.7165L51.5472 73.7976H72.8317V63.8294C72.7613 61.0288 71.6173 58.3631 69.6361 56.3824C67.6557 54.4015 64.9889 53.2588 62.1887 53.1899C59.3675 53.1869 56.6602 54.3049 54.6623 56.2973C52.6644 58.2903 51.5392 60.9944 51.5334 63.816ZM30.0266 63.0274H16.8664L16.8882 71.7216L30.0266 63.0274ZM33.931 73.7929V64.4835L19.8785 73.7929H33.931ZM15.7355 100.664H29.1692L29.1684 97.2833H15.7355V100.664ZM20.8056 93.9458H24.1419V90.5655H20.8056V93.9458ZM76.1411 100.664H89.5741V97.2833H76.1411V100.664ZM81.1676 93.9458H84.5039L84.5046 90.5655H81.1683L81.1676 93.9458ZM3.99099 87.228H101.317L101.318 78.8203C101.298 77.9018 100.546 77.1683 99.6277 77.1733H5.68127C4.76285 77.1683 4.01058 77.9018 3.99099 78.8203V87.228ZM23.1347 31.0282C22.5107 30.7699 22.1044 30.1619 22.1044 29.4864C22.1044 28.5649 22.8517 27.8184 23.7732 27.8184C24.4479 27.8184 25.0559 28.2247 25.3142 28.8479C25.5725 29.4719 25.4303 30.1894 24.9529 30.6668C24.4755 31.1435 23.7579 31.2865 23.1347 31.0282ZM62.1892 56.0786C60.2248 56.0786 58.34 56.8593 56.9501 58.2488C55.5609 59.6382 54.7795 61.5232 54.7795 63.4879C54.7788 65.4534 55.5593 67.3383 56.9486 68.7285C58.3371 70.1187 60.2218 70.9 62.1863 70.9008C64.1515 70.9015 66.0361 70.1215 67.4261 68.7321C68.8168 67.3434 69.598 65.4592 69.5995 63.4937C69.5974 61.5289 68.816 59.6446 67.4269 58.2545C66.0377 56.8644 64.1544 56.0823 62.1892 56.0786ZM62.1892 67.5719C61.1062 67.5734 60.0673 67.1439 59.3005 66.3784C58.5344 65.613 58.1035 64.574 58.1028 63.4907C58.1028 62.4075 58.533 61.3685 59.299 60.6023C60.0644 59.8369 61.1032 59.4066 62.1863 59.4066C63.2694 59.4073 64.3083 59.8383 65.0736 60.6045C65.8389 61.3714 66.2684 62.4104 66.2669 63.4937C66.272 64.5791 65.844 65.6209 65.0794 66.3901C64.314 67.1599 63.2745 67.5923 62.1893 67.5938L62.1892 67.5719ZM96.7477 43.362C95.4013 45.4044 93.13 46.6458 90.6838 46.6748L90.6835 46.675C88.7198 46.6872 86.8323 45.9153 85.4401 44.5295C84.0539 43.1372 83.2755 41.2522 83.2755 39.2874C83.2755 37.3227 84.0538 35.4376 85.4401 34.0453C87.1871 32.333 89.6703 31.5995 92.0671 32.0878C94.4639 32.5761 96.4618 34.2231 97.3998 36.4824C98.3378 38.7417 98.0934 41.3188 96.7477 43.362ZM88.6084 35.9091C88.3189 36.0564 88.0432 36.2291 87.785 36.425L87.7763 36.4251C87.0167 37.1876 86.5909 38.2201 86.5909 39.2961C86.5909 40.3721 87.0167 41.4045 87.7763 42.1671C88.4654 42.8483 89.3788 43.2561 90.3458 43.3134C91.3129 43.3707 92.2675 43.0747 93.0329 42.4798C93.2157 42.3804 93.392 42.2708 93.561 42.1504C94.3205 41.3862 94.7471 40.3539 94.7471 39.2764C94.7471 38.1997 94.3205 37.1665 93.561 36.4032C92.7745 35.6784 91.7568 35.2562 90.6882 35.2112C90.1906 35.2162 89.6987 35.3193 89.2409 35.5145C89.0219 35.6327 88.8108 35.764 88.6084 35.9091ZM78.9452 9.0008C78.1225 7.56495 76.6375 6.6356 74.9873 6.52304C73.3362 6.41131 71.7388 7.13177 70.7303 8.44284C69.7213 9.7539 69.434 11.4828 69.965 13.0501C70.496 14.6165 71.775 15.8152 73.3732 16.2426C73.7969 16.3565 74.2336 16.4152 74.6732 16.416C75.7606 16.4189 76.8184 16.0612 77.6816 15.3988C78.5441 14.7363 79.1622 13.8055 79.4393 12.7535C79.7817 11.4867 79.604 10.1357 78.9453 9.00098L78.9452 9.0008ZM76.2109 11.9864C76.0992 12.3615 75.8395 12.6742 75.4913 12.8534C75.1082 13.0457 74.6679 13.0936 74.2522 12.9876C73.846 12.8745 73.4941 12.6191 73.2598 12.2679C73.1836 12.1213 73.1292 11.9632 73.0995 11.7999C73.0995 11.7768 73.0896 11.7561 73.0797 11.7353C73.0711 11.7171 73.0623 11.6988 73.0603 11.6788C73.0349 11.4698 73.048 11.2587 73.0995 11.0548C73.209 10.6405 73.4789 10.2864 73.8496 10.071C74.0723 9.94761 74.3226 9.88087 74.5772 9.87578C74.6483 9.87143 74.7187 9.87143 74.7898 9.87578C74.9704 9.89392 75.1474 9.94036 75.3143 10.0144C75.3825 10.0419 75.4492 10.0739 75.513 10.1101C75.7343 10.2429 75.92 10.4272 76.0549 10.647C76.2893 11.0533 76.3458 11.538 76.2109 11.9864ZM20.2823 8.085C21.2109 7.15558 22.4709 6.63392 23.7847 6.63392C25.0971 6.63609 26.3555 7.15908 27.2841 8.08705C28.2127 9.01574 28.735 10.2746 28.7371 11.5879C28.7371 12.901 28.2156 14.1613 27.2863 15.09C26.3577 16.0194 25.0977 16.541 23.7847 16.541C22.4709 16.541 21.2109 16.0194 20.2823 15.09C19.353 14.1613 18.8314 12.9011 18.8314 11.5879C18.8314 10.2739 19.353 9.0137 20.2823 8.085ZM22.2946 12.1995C22.5442 12.8025 23.1318 13.1957 23.7847 13.1957C24.6733 13.1957 25.3937 12.4767 25.3966 11.5879C25.398 10.9349 25.0063 10.3458 24.4042 10.0947C23.8021 9.84443 23.1078 9.98082 22.6464 10.4415C22.1843 10.9023 22.0458 11.5966 22.2946 12.1995Z" fill="#0499BA"/>
</svg>
