<svg width="88" height="111" viewBox="0 0 88 111" fill="none" xmlns="http://www.w3.org/2000/svg">
<path d="M88 37.277C88 13.8382 70.4554 0.476074 56.7316 0.476074C43.0079 0.476074 39.0393 14.1403 39.0393 24.4182C39.0393 29.7447 39.0393 52.6252 39.0393 73.4555C28.878 71.7349 15.2466 63.9098 15.2466 35.9682C15.2466 3.10275 33.4926 3.34986 33.4926 2.19668C33.4926 1.03436 32.0159 1.18994 32.0159 1.18994C15.5511 1.18079 0 14.3874 0 37.277C0 58.6565 14.6467 75.8992 39.0393 78.0774C39.0393 95.5672 39.0393 110.476 39.0393 110.476H48.0839C48.0839 110.476 48.0839 95.5214 48.0839 78.1872C73.3349 76.6496 88 59.6266 88 37.277ZM48.0931 73.6569C48.0931 60.7065 48.0931 47.0607 48.0931 37.6797C48.0931 14.3874 48.6561 12.1176 53.1784 10.5618C57.9222 8.92353 75.6514 12.4746 75.6514 41.2124C75.6422 66.4358 58.8728 72.5403 48.0931 73.6569Z" fill="#0499BA"/>
</svg>
