<svg width="84" height="150" viewBox="0 0 84 150" fill="none" xmlns="http://www.w3.org/2000/svg">
<path fill-rule="evenodd" clip-rule="evenodd" d="M83.5 110.702C83.466 116.738 78.5457 121.658 72.5102 121.658H70.7992L80.444 141.64C80.4695 141.691 80.495 141.75 80.5206 141.801L83.2957 147.557C83.7043 148.408 83.3638 149.421 82.5125 149.83C82.2742 149.966 82.0018 150 81.7634 150C81.125 150 80.5461 149.659 80.2397 149.046L77.8817 144.16H6.08635L3.72836 149.046C3.46447 149.659 2.85156 150 2.20461 150C1.96625 150 1.69385 149.932 1.4555 149.83C0.604236 149.421 0.263732 148.408 0.672337 147.557L13.1603 121.65H11.4919C5.45642 121.65 0.536135 116.738 0.536135 110.693V87.8342C0.510597 87.7235 0.502085 87.6043 0.502085 87.4851C0.502085 87.3659 0.51911 87.2467 0.536135 87.136V48.8762C0.510597 48.7655 0.502085 48.6463 0.502085 48.5272C0.502085 48.408 0.51911 48.2888 0.536135 48.1781V46.22C0.536135 35.0502 9.63611 25.9578 20.7961 25.9578H29.845V20.0919C29.845 19.1469 30.5856 18.3978 31.539 18.3978H34.3312L30.3217 3.3969H25.742C23.7075 3.3969 22.0475 5.05704 22.0475 7.09178V9.26273C22.0475 10.2077 21.2984 10.9569 20.3535 10.9569C19.4086 10.9569 18.6595 10.2162 18.6595 9.26273V7.09178C18.6595 3.19258 21.8517 0 25.7505 0H52.2758H52.3439H58.2516C62.1504 0 65.3426 3.19258 65.3426 7.09178V9.26273C65.3426 10.2077 64.602 10.9569 63.6486 10.9569C62.7037 10.9569 61.9546 10.2162 61.9546 9.26273V7.09178C61.9546 5.05704 60.2946 3.3969 58.2601 3.3969H53.6463L49.6369 18.3978H52.4545C53.3994 18.3978 54.1485 19.1384 54.1485 20.0919V25.9578H63.24C74.4085 25.9578 83.5 35.0587 83.5 46.22V110.702ZM3.89861 50.2299V85.7909H40.307V50.2299H3.89861ZM80.0439 50.2299H43.7036V85.7909H80.0439V50.2299ZM50.1561 3.3969H33.8204L37.8299 18.3892H46.1382L50.1561 3.3969ZM36.5359 21.7861H33.2501V25.9578H50.7775V21.7861H47.4576H47.4491H47.4406H36.553H36.5445H36.5359ZM63.1804 29.3547H20.7621C11.4663 29.3547 3.89861 36.9232 3.89861 46.22V46.833H80.0439V46.22C80.0439 36.9232 72.4762 29.3547 63.1804 29.3547ZM11.6706 132.581L7.72077 140.763H76.2473L72.2974 132.581H11.6706ZM13.305 129.193H70.663L67.0196 121.658H16.9399L13.305 129.193ZM68.0752 118.27H68.1773H72.4677C76.6474 118.27 80.0354 114.873 80.0354 110.702V89.1878H3.8901V110.702C3.8901 114.873 7.28663 118.27 11.4578 118.27H15.7907H15.8673H68.0752ZM52.0799 39.7756H31.888C30.9431 39.7756 30.194 39.0264 30.194 38.0814C30.194 37.1364 30.9346 36.3872 31.888 36.3872H52.0799C53.0248 36.3872 53.7739 37.1279 53.7739 38.0814C53.7739 39.0264 53.0333 39.7756 52.0799 39.7756ZM21.0349 95.8369C16.6935 95.8369 13.1607 99.37 13.1607 103.712C13.1607 108.054 16.6935 111.587 21.0349 111.587C25.3763 111.587 28.909 108.088 28.909 103.712C28.9005 99.3615 25.3763 95.8369 21.0349 95.8369ZM21.0349 108.224C18.5577 108.224 16.5573 106.223 16.5573 103.746C16.5573 101.269 18.5577 99.2679 21.0349 99.2679C23.478 99.2679 25.5125 101.269 25.5125 103.746C25.5125 106.215 23.5121 108.224 21.0349 108.224ZM55.0663 103.712C55.0663 99.37 58.599 95.8369 62.9405 95.8369C67.2819 95.8369 70.8146 99.3615 70.8146 103.712C70.8146 108.088 67.2819 111.587 62.9405 111.587C58.599 111.587 55.0663 108.054 55.0663 103.712ZM58.4628 103.746C58.4628 106.223 60.4633 108.224 62.9405 108.224C65.4176 108.224 67.4181 106.215 67.4181 103.746C67.4181 101.269 65.4176 99.2679 62.9405 99.2679C60.4633 99.2679 58.4628 101.269 58.4628 103.746Z" fill="#0499BA"/>
</svg>
