<svg width="1745" height="224" viewBox="0 0 1745 224" fill="none" xmlns="http://www.w3.org/2000/svg">
<path fill-rule="evenodd" clip-rule="evenodd" d="M557.04 4.50243C558.66 1.92243 561.56 0.432426 564.6 0.622426H629.17C627.14 4.61243 625.19 8.64243 623.14 12.6224C621.61 15.8824 619.3 18.7124 616.42 20.8724C614.89 21.9924 613.04 22.5924 611.15 22.5924H588.73C587.23 22.4424 585.72 22.5824 584.27 23.0024C581.31 24.0824 579.34 26.9024 579.33 30.0624V98.8724C592.75 98.8724 606.16 98.8724 619.59 98.8724C617.74 102.662 615.82 106.412 613.96 110.192C612.41 113.562 610.09 116.512 607.2 118.822C605.69 120.012 603.84 120.682 601.92 120.722C594.39 120.722 586.86 120.722 579.34 120.722C579.34 151.562 579.34 182.402 579.34 213.252C579.54 215.192 579.3 217.142 578.64 218.972C577.35 221.672 574.61 223.382 571.62 223.342C566.43 223.342 561.23 223.342 556.04 223.342C556.08 152.612 556.08 81.8924 556.04 11.1624C555.71 8.89243 556.05 6.57243 557.02 4.49243L557.04 4.50243ZM378.46 0.782425C383.81 0.782425 389.15 0.782425 394.5 0.782425C397.59 0.852425 400.32 2.80243 401.37 5.71243C401.8 7.35243 401.92 9.05243 401.71 10.7324C401.71 74.3424 401.71 137.952 401.71 201.572C418.91 201.572 436.11 201.572 453.31 201.572C451.41 205.312 449.58 209.092 447.67 212.822C446.28 215.772 444.34 218.442 441.95 220.672C440.17 222.352 437.82 223.312 435.37 223.342C416.38 223.342 397.4 223.342 378.42 223.342C378.42 149.142 378.42 74.9624 378.42 0.782425H378.46ZM211.36 0.782425C216.79 0.782425 222.22 0.782425 227.65 0.782425C231.35 1.04243 234.31 3.94243 234.65 7.63243C245.73 79.5124 256.81 151.412 267.88 223.332C260.24 223.332 252.59 223.332 244.95 223.332C239.29 183.822 233.62 144.322 227.93 104.832C226.09 92.4924 224.51 80.1124 222.5 67.8124C220.01 86.6624 217.15 105.472 214.55 124.312C209.85 157.332 205.15 190.352 200.46 223.372C192.77 223.372 185.07 223.372 177.38 223.372C188.73 149.192 200.05 75.0124 211.34 0.812428L211.36 0.782425ZM23.29 21.3324C23.29 49.9524 23.29 78.5724 23.29 107.202C30.33 107.202 37.37 107.202 44.41 107.202C46.55 107.372 48.69 107.002 50.65 106.132C54.52 104.242 56.93 100.252 56.82 95.9524C56.82 74.8624 56.82 53.7824 56.82 32.6924C56.97 28.7224 54.98 24.9824 51.6 22.8924C49.27 21.5824 46.59 21.0324 43.93 21.3024C37.04 21.3024 30.16 21.3024 23.27 21.3024L23.29 21.3324ZM0.0399933 0.772427H57.15C62.58 0.772427 67.8 2.90243 71.69 6.70243C75.76 10.8624 78.22 16.3324 78.66 22.1324C78.66 46.5824 78.66 71.0524 78.66 95.5224C78.92 100.112 77.86 104.682 75.6 108.682C73.43 112.172 70.32 114.982 66.63 116.792C71.23 118.602 74.93 122.152 76.92 126.672C78.41 130.592 79.02 134.802 78.7 138.982C78.7 167.092 78.77 195.222 78.64 223.332C70.97 223.332 63.3 223.332 55.62 223.332C55.66 194.922 55.62 166.522 55.62 138.112C56.56 133.442 53.54 128.882 48.86 127.942C48.18 127.802 47.49 127.752 46.8 127.782C38.97 127.512 31.12 127.582 23.28 127.552C23.22 159.472 23.28 191.412 23.28 223.332C15.52 223.332 7.76 223.332 0 223.332C0.01 149.152 0.00999451 74.9724 0.00999451 0.772427H0.0399933Z" fill="#252525"/>
<path fill-rule="evenodd" clip-rule="evenodd" d="M760.19 0.722542C779.24 0.722542 798.3 0.722542 817.36 0.722542C823.28 0.662542 828.93 3.17254 832.85 7.61254C836.77 12.0925 838.93 17.8425 838.94 23.8025C838.94 42.8725 838.94 61.9425 838.94 81.0125C838.81 87.4425 839.24 93.9025 838.7 100.333C837.85 107.393 833.49 113.543 827.12 116.693C831.14 118.453 834.47 121.483 836.61 125.323C838.17 128.473 838.97 131.953 838.94 135.473C838.87 147.653 839.25 159.813 839.12 172.003C838.84 189.113 838.94 206.223 838.96 223.343C831.24 223.383 823.54 223.383 815.86 223.343C815.86 194.523 815.86 165.723 815.86 136.913C816.08 134.003 814.78 131.193 812.42 129.473C809.25 127.953 805.71 127.353 802.22 127.753C795.98 127.613 789.67 127.443 783.4 127.633C783.4 159.563 783.49 191.493 783.35 223.423C775.63 223.373 767.92 223.423 760.18 223.423C760.18 149.223 760.18 75.0125 760.18 0.80254L760.19 0.722542ZM783.36 21.3825C783.42 49.8925 783.42 78.4125 783.36 106.923C791.02 107.183 798.69 106.983 806.35 107.043C812.01 106.973 816.63 102.513 816.9 96.8625C816.9 75.2625 816.9 53.6625 816.9 32.0725C816.9 26.2425 812.23 21.4825 806.4 21.3825C798.73 21.2825 791.06 21.2825 783.38 21.3825H783.36ZM959.04 0.702542C964.43 0.752542 969.84 0.632542 975.23 0.702542C979.52 0.912542 982.82 4.56254 982.61 8.84254C982.59 9.21254 982.55 9.58254 982.48 9.94254C982.48 81.0525 982.48 152.163 982.48 223.283C977.13 223.283 971.69 223.383 966.3 223.193C962.4 223.123 959.23 220.023 959.08 216.123C959.08 144.303 959.08 72.4825 959.08 0.662541L959.04 0.702542ZM1108.48 0.812542C1114.69 -0.227457 1121.07 0.582542 1126.83 3.13254C1130.04 5.13254 1132.36 8.30254 1133.29 11.9725C1141.59 52.1325 1149.77 92.3125 1158.18 132.443C1158.44 88.5525 1158.18 44.6625 1158.3 0.762543C1165.43 0.762543 1172.65 0.572543 1179.83 0.832543C1179.79 73.9725 1179.79 147.113 1179.83 220.253C1179.83 221.263 1179.78 222.313 1179.75 223.363C1174.92 223.863 1170.04 223.323 1165.43 221.773C1160.74 219.553 1157.36 215.263 1156.31 210.193C1148.75 177.523 1141.21 144.823 1133.7 112.103C1132.6 107.923 1131.92 103.633 1130.66 99.5025C1130.46 140.773 1130.58 182.043 1130.59 223.353C1123.27 223.403 1115.93 223.353 1108.61 223.353C1108.44 149.173 1108.61 74.9825 1108.51 0.792542L1108.48 0.812542ZM1313.15 1.80254C1317.64 0.69254 1322.29 0.322542 1326.9 0.702542C1333.78 0.802542 1340.67 0.50254 1347.54 0.87254C1359.18 2.76254 1367.83 12.6425 1368.18 24.4325C1368.23 37.0825 1368.23 49.7425 1368.18 62.4025C1367.63 66.9125 1364.85 70.8325 1360.78 72.8325C1356.08 75.4325 1351.27 77.8425 1346.46 80.1825C1346.19 64.1425 1346.46 48.1025 1346.31 32.0725C1345.74 24.1825 1338.89 18.2525 1331 18.8225C1330.15 18.8825 1329.31 19.0225 1328.49 19.2325C1322.47 21.3325 1318.53 27.1225 1318.77 33.4925C1318.77 85.6725 1318.77 137.853 1318.77 190.043C1318.61 197.233 1323.88 203.403 1331.01 204.363C1337.28 204.803 1343.05 200.913 1344.99 194.933C1345.73 192.443 1346.03 189.843 1345.88 187.243C1345.83 167.073 1345.92 146.893 1345.84 126.723C1340.95 124.563 1337.13 120.533 1335.25 115.523C1333.61 111.963 1331.69 108.473 1329.98 104.913C1339.53 104.843 1349.08 104.913 1358.63 104.913C1362.36 104.753 1365.82 106.833 1367.42 110.193C1368.18 112.103 1368.49 114.153 1368.31 116.203C1368.31 141.953 1368.31 167.693 1368.31 193.423C1368.59 197.473 1368.25 201.553 1367.3 205.503C1365.23 212.993 1359.77 219.073 1352.54 221.913C1346.9 223.433 1341.03 223.953 1335.21 223.433C1328.97 223.263 1322.79 223.803 1316.63 223.063C1304.91 220.653 1296.53 210.283 1296.63 198.313C1296.59 143.603 1296.59 88.8925 1296.63 34.1925C1296.29 29.0125 1296.64 23.8125 1297.66 18.7225C1299.77 10.8825 1305.6 4.59254 1313.25 1.88254L1313.15 1.80254ZM1497.83 8.56254C1497.65 4.42254 1500.86 0.912541 1505 0.732541C1505.14 0.722541 1505.27 0.722542 1505.41 0.722542C1525.32 0.682542 1545.23 0.722542 1565.11 0.722542C1562.53 6.28254 1559.63 11.6925 1556.45 16.9325C1554.38 20.3325 1550.74 22.4625 1546.77 22.6025C1540.77 22.6025 1534.78 22.6025 1528.79 22.6025C1524.7 22.6225 1521.37 25.8825 1521.26 29.9725C1521.26 51.9325 1521.26 73.9025 1521.26 95.9025C1532.7 95.9025 1544.13 95.8525 1555.58 95.9625C1553.19 100.733 1550.9 105.553 1548.34 110.223C1546.39 114.103 1542.79 116.883 1538.54 117.773C1532.78 117.773 1527.02 117.773 1521.26 117.773C1521.26 145.653 1521.22 173.533 1521.26 201.423C1536.63 201.423 1551.99 201.423 1567.35 201.423C1565.43 205.703 1563.29 209.883 1561.11 214.043C1559.41 217.653 1556.63 220.643 1553.15 222.593C1550.64 223.433 1547.99 223.743 1545.35 223.483C1529.53 223.483 1513.7 223.483 1497.89 223.483C1497.68 151.893 1497.85 80.2925 1497.8 8.69254L1497.83 8.56254ZM1665.74 223.293C1665.65 149.103 1665.65 74.9125 1665.74 0.722542C1684.7 0.612542 1703.67 0.722543 1722.64 0.672543C1729.05 0.582543 1735.13 3.50254 1739.08 8.56254C1742.5 12.8625 1744.35 18.2125 1744.3 23.7125C1744.3 45.9925 1744.3 68.3125 1744.3 90.6125C1744.69 95.4225 1744.26 100.263 1743.03 104.923C1741.19 109.933 1737.53 114.073 1732.78 116.503C1736.58 118.423 1739.75 121.393 1741.92 125.043C1744.18 130.733 1745.06 136.873 1744.48 142.973C1744.56 161.363 1744.48 179.753 1744.48 198.163C1744.13 206.513 1744.32 214.883 1744.3 223.243C1736.64 223.323 1728.98 223.243 1721.33 223.243C1721.04 193.923 1721.37 164.593 1721.15 135.273C1720.84 130.993 1717.25 127.693 1712.95 127.753C1704.93 127.503 1696.96 127.263 1688.97 127.493C1688.97 159.393 1688.97 191.293 1688.97 223.193C1681.22 223.293 1673.48 223.193 1665.73 223.193L1665.74 223.293ZM1689 21.2825C1688.9 49.8325 1688.9 78.3925 1689 106.953C1696.53 107.013 1704.06 106.953 1711.6 106.953C1717.54 106.963 1722.36 102.143 1722.36 96.2125C1722.36 96.1525 1722.36 96.0925 1722.36 96.0425C1722.49 74.9125 1722.44 53.8025 1722.36 32.6725C1722.6 26.7725 1718.11 21.7525 1712.22 21.3225C1704.5 21.2425 1696.77 21.3625 1689.02 21.3225L1689 21.2825Z" fill="#252525"/>
</svg>
